<?xml version="1.0" encoding="utf-8"?>
<!-- Generator: Adobe Illustrator 16.0.0, SVG Export Plug-In . SVG Version: 6.00 Build 0)  -->
<!DOCTYPE svg PUBLIC "-//W3C//DTD SVG 1.1//EN" "http://www.w3.org/Graphics/SVG/1.1/DTD/svg11.dtd">
<svg version="1.1" id="圖層_1" xmlns="http://www.w3.org/2000/svg" xmlns:xlink="http://www.w3.org/1999/xlink" x="0px" y="0px"
	 width="300px" height="300px" viewBox="0 0 300 300" enable-background="new 0 0 300 300" xml:space="preserve">
<circle fill="none" stroke="#BB9974" stroke-miterlimit="10" stroke-dasharray="5" cx="167.051" cy="133.5" r="90.5"/>
<path fill="#FFFFFF" stroke="#A5E6E6" stroke-width="2.7044" stroke-miterlimit="10" d="M38.251,188.613
	c1.905-6.02,7.565-10.356,14.213-10.286c5.564,0.059,10.372,3.196,12.835,7.774c2.215-1.763,4.99-2.846,8.043-2.814
	c2.033,0.021,3.924,0.56,5.622,1.424c3.582-4.808,9.316-7.911,15.772-7.843c0.939,0.01,1.856,0.11,2.76,0.25
	c3.733-9.766,13.211-16.667,24.277-16.55c14.205,0.15,25.599,11.788,25.448,25.992c-0.006,0.574-0.061,1.133-0.103,1.698
	c2.189-0.842,4.564-1.308,7.055-1.282c10.553,0.111,19.017,8.756,18.904,19.309c-0.111,10.551-8.756,19.014-19.309,18.902
	c-4.447-0.047-8.513-1.622-11.731-4.206c-3.542,3.913-8.664,6.36-14.355,6.3c-5.606-0.06-10.606-2.542-14.062-6.426
	c-3.896,6.706-11.178,11.188-19.483,11.101c-9.323-0.099-17.235-5.914-20.468-14.076c-2.189,1.248-4.725,1.962-7.428,1.934
	c-4.654-0.049-8.773-2.251-11.441-5.647c-3.009,4.702-8.285,7.808-14.277,7.744c-9.256-0.098-16.67-7.673-16.572-16.926
	C24.039,196.632,30.234,189.79,38.251,188.613z"/>
<circle fill="#FC9E96" cx="140.199" cy="134.074" r="67.924"/>
<g>
	<path fill="#FBC9B8" d="M161.34,193.161c-0.541,0-1.054-0.317-1.277-0.846c-0.299-0.705,0.031-1.519,0.735-1.816
		c16.951-7.179,26.551-14.049,35.259-33.677c0.312-0.701,1.132-1.015,1.83-0.706c0.699,0.311,1.016,1.129,0.705,1.829
		c-9.033,20.359-19.451,27.796-36.713,35.106C161.703,193.126,161.52,193.161,161.34,193.161z"/>
</g>
<path fill="#A5E6E6" d="M241,124.827c0,0,0.439,0.103,0.459,0.306c0.03,0.197,0.246,0.517,0.232,0.938
	c-0.06,0.82-0.237,2.053-1.068,3.403c-1.621,2.748-5.154,5.802-10.16,8.753c-2.508,1.477-5.346,2.962-8.535,4.414
	c-3.188,1.454-6.661,2.943-10.449,4.378c-7.565,2.893-16.287,5.623-25.891,8.304c-9.613,2.653-20.146,5.096-31.384,7.229
	c-11.241,2.121-23.173,3.946-35.617,5.228c-6.222,0.639-12.567,1.14-19.013,1.449c-6.448,0.277-12.994,0.322-19.611,0.071
	c-6.62-0.252-13.312-0.833-20.037-2.218c-3.361-0.716-6.738-1.584-10.105-3.081c-1.679-0.755-3.371-1.666-4.982-3.023
	c-0.801-0.676-1.585-1.488-2.246-2.499c-0.658-1-1.186-2.226-1.373-3.531l-0.049-0.48c-0.01-0.115-0.02-0.181-0.026-0.335
	c-0.01-0.375-0.012-0.787,0.016-1.131c0.058-0.638,0.176-1.25,0.341-1.831c0.335-1.16,0.845-2.165,1.412-3.047
	c1.143-1.77,2.49-3.137,3.873-4.352c2.779-2.419,5.751-4.241,8.754-5.913c3.011-1.655,6.076-3.095,9.162-4.42
	c3.1-1.298,6.217-2.482,9.342-3.576c6.254-2.181,12.52-4.073,18.77-5.687c6.252-1.599,12.465-2.985,18.598-4.201
	c12.269-2.431,24.217-4.195,35.582-5.471c11.367-1.263,22.156-2.024,32.124-2.313c9.968-0.258,19.112-0.219,27.194,0.326
	c8.077,0.553,15.102,1.459,20.769,2.814c5.651,1.35,9.976,3.216,12.332,5.366c1.192,1.047,1.826,2.143,2.124,2.909
	c0.135,0.392-0.201,0.692-0.17,0.901c0.042,0.207-0.365,0.311-0.365,0.311V124.827z M229,126.773c0,0,0.095-0.088,0.059-0.263
	c-0.026-0.177-0.048-0.431-0.161-0.762c-0.254-0.648-0.757-1.582-1.786-2.491c-2.028-1.868-5.818-3.524-10.814-4.708
	c-5.008-1.191-11.227-1.988-18.389-2.368c-7.162-0.383-15.266-0.361-24.086,0.095c-8.819,0.451-18.354,1.342-28.387,2.695
	c-10.031,1.364-20.562,3.177-31.345,5.59c-10.771,2.428-21.823,5.4-32.712,9.417c-5.434,2.025-10.842,4.301-15.961,7.172
	c-2.543,1.451-5.039,3.038-7.222,4.992c-1.087,0.976-2.099,2.051-2.866,3.277c-0.773,1.211-1.254,2.642-1.045,4.038
	c0.205,1.395,1.078,2.62,2.166,3.547c1.089,0.943,2.366,1.669,3.688,2.277c2.653,1.217,5.497,1.988,8.348,2.617
	c5.725,1.217,11.551,1.78,17.328,2.094c11.572,0.591,22.996,0.136,33.996-0.758c11.003-0.91,21.596-2.317,31.578-4.006
	c9.98-1.699,19.354-3.693,27.917-5.893c8.563-2.196,16.317-4.593,23.055-7.096c6.735-2.5,12.457-5.119,16.897-7.751
	c4.435-2.621,7.592-5.34,8.99-7.73c0.721-1.175,0.96-2.227,1.015-2.922c0.013-0.344-0.098-0.606-0.125-0.794
	c-0.017-0.183-0.138-0.276-0.138-0.276V126.773z"/>
<polygon fill="#FC9E96" points="72.432,129.435 72.398,138.188 206.243,116.944 203.302,108.74 128.115,109.94 "/>
<path fill="#FBC9B8" d="M124.082,187.189c-0.604-1.448-2.014-2.187-3.239-1.675c-1.086,0.453-1.567,1.76-1.251,3.058
	c-0.699-1.137-1.969-1.676-3.053-1.224c-1.227,0.512-1.719,1.825-1.115,3.273c0.33,0.788,1.007,1.38,1.597,1.38h-0.003l5.287,3.024
	l1.695-5.717v0.067C125,188.72,124.411,187.978,124.082,187.189z"/>
<path fill-rule="evenodd" clip-rule="evenodd" fill="#9EA09A" d="M92.637,156.36c-0.852,0.442-1.577,0.982-2.34,1.46
	c-0.44,0.277-0.881,0.555-1.33,0.818c-0.17,0.099-0.282,0.233-0.38,0.389c-1.026,1.666-1.85,3.421-2.366,5.314
	c-0.108,0.402-0.131,0.812-0.131,1.231c0.002,0.602-0.404,0.902-0.978,0.725c-0.617-0.188-0.948-0.649-1.103-1.249
	c-0.084-0.314-0.113-0.648-0.039-0.959c0.393-1.643,0.557-3.325,0.889-4.978c0.092-0.466,0.283-0.876,0.582-1.274
	c0.932-1.237,1.821-2.525,2.33-3.994c0.28-0.809,0.287-1.713,0.412-2.575c0.17-1.168,0.307-2.341,0.385-3.519
	c0.035-0.534-0.015-0.574-0.523-0.396c-1.735,0.604-3.957,0.776-5.771,1.093c-5.885,1.03-11.346,0.295-13.503-0.54
	c-0.414-0.161-0.8-0.388-1.151-0.665c-0.281-0.222-0.518-0.482-0.65-0.819c-0.339-0.857-0.006-1.452,0.904-1.608
	c0.626-0.107,1.255-0.093,1.871,0.048c7.483,2.535,12.414,1.455,14.873,0.878c0.493-0.115,0.909-0.349,1.301-0.655
	c1.002-0.788,1.908-1.685,2.854-2.537c2.029-1.828,4.461-2.686,7.135-2.902c1.865-0.152,3.736-0.227,5.608-0.087
	c0.72,0.054,1.423,0.184,2.116,0.401c1.633,0.514,3.332,0.671,5.025,0.815c1.649,0.14,3.303,0.247,4.957,0.317
	c1.447,0.062,2.827-0.177,4.09-0.985c1.08-0.695,2.309-1.058,3.573-1.262c0.327-0.052,0.509-0.187,0.667-0.462
	c0.38-0.667,0.797-1.314,1.334-1.868c0.239-0.247,0.483-0.599,0.879-0.462c0.393,0.136,0.385,0.559,0.417,0.904
	c0.042,0.443,0.063,0.89,0.063,1.333c0.001,0.309,0.096,0.5,0.396,0.642c0.621,0.296,1.208,0.661,1.752,1.093
	c0.596,0.475,0.843,1.082,0.694,1.827c-0.08,0.396,0.05,0.659,0.348,0.918c0.648,0.563,0.806,1.266,0.51,2.045
	c-0.006,0.014-0.008,0.034-0.02,0.041c-0.66,0.413-1.132,1.115-1.92,1.315c-0.412,0.105-0.853,0.129-1.279,0.137
	c-0.607,0.009-1.082,0.275-1.526,0.651c-0.585,0.498-1.133,1.032-1.644,1.606c-0.385,0.43-0.58,0.909-0.603,1.494
	c-0.059,1.383-0.068,2.76,0.196,4.125c0.086,0.428,0.23,0.823,0.527,1.157c0.119,0.137,0.241,0.291,0.302,0.457
	c0.36,0.987,1.055,1.691,1.814,2.383c0.791,0.72,1.489,1.546,2.231,2.322c0.357,0.374,0.666,0.804,1.182,0.995
	c0.104,0.039,0.236,0.149,0.258,0.246c0.094,0.45,0.404,0.405,0.738,0.381c0.965-0.065,1.669,0.468,1.885,1.412
	c0.074,0.317-0.082,0.521-0.361,0.596c-1.208,0.322-2.433,0.498-3.686,0.403c-0.144-0.012-0.264-0.075-0.357-0.186
	c-2.307-2.66-5.362-4.243-8.407-5.839c-1.153-0.604-2.323-1.182-3.575-1.56c-1.145-0.346-1.344-0.274-2.024,0.717
	c-0.656,0.952-1.161,1.98-1.566,3.062c-0.243,0.645-0.103,1.304-0.06,1.958c0.01,0.176,0.145,0.207,0.297,0.22
	c0.242,0.021,0.488,0.045,0.729,0.092c0.295,0.058,0.57,0.181,0.65,0.507c0.082,0.327-0.053,0.607-0.28,0.834
	c-0.276,0.277-0.63,0.421-1.009,0.518c-0.525,0.137-1.058,0.177-1.594,0.104c-0.763-0.102-1.093-0.43-1.238-1.195
	c-0.164-0.861,0.027-1.713,0.086-2.566c0.08-1.163,0.155-2.325,0.193-3.49c0.014-0.418-0.11-0.623-0.555-0.706
	c-2.348-0.438-4.695-0.891-7.064-1.215c-0.865-0.118-1.424,0.124-1.851,0.883c-0.536,0.95-1.04,1.909-1.413,2.937
	c-0.326,0.9-0.226,1.685,0.479,2.403c0.6,0.611,1.123,1.298,1.675,1.956c0.168,0.2,0.312,0.261,0.583,0.129
	c0.518-0.254,1.478,0.188,1.705,0.731c0.097,0.231,0.03,0.419-0.112,0.597c-0.127,0.16-0.3,0.27-0.488,0.334
	c-1.029,0.354-2.09,0.465-3.172,0.367c-0.219-0.021-0.39-0.127-0.538-0.312c-1.108-1.408-2.225-2.813-3.353-4.207
	c-0.627-0.774-0.83-1.801-1.121-2.751C92.807,158.074,92.559,157.278,92.637,156.36z"/>
<g>
	<polygon fill="#FFFBEE" points="252.104,103.08 248.396,98.585 246.893,100.051 	"/>
	<polygon fill="#FFFBEE" points="262.621,82.231 219.869,83.765 253.883,91.454 	"/>
	<path fill="#FFFBEE" d="M248.426,96.731c0.029-0.003,0.062-0.02,0.091-0.02c0.175,0.011,0.38,0.093,0.544,0.277l5.299,6.433
		l-1.076-10.459l-30.461-6.888L248.352,96.7L248.426,96.731z"/>
	<path fill="#FFFBEE" d="M234.473,110.147l10.562-10.291c0.041-0.106,0.105-0.203,0.201-0.288l1.833-1.769l-30.915-12.864
		L234.473,110.147z"/>
	<path fill="#A5E6E6" d="M213.665,82.542c0.027-0.013,0.057-0.02,0.085-0.029C213.72,82.521,213.692,82.529,213.665,82.542z"/>
	<path fill="#A5E6E6" d="M213.45,82.69c0.023-0.022,0.05-0.041,0.075-0.061C213.501,82.65,213.473,82.667,213.45,82.69z"/>
	<path fill="#A5E6E6" d="M264.322,80.649l-50.336,1.815c-0.008,0-0.014,0.004-0.021,0.004c0.064-0.004,0.131-0.01,0.196,0.005
		l5.708,1.291l42.752-1.533l-8.738,9.223l0.221,0.05c0.38,0.092,0.574,0.349,0.625,0.667l0.035,0.326l10.114-10.556
		c0.255-0.195,0.276-0.543,0.153-0.831C264.906,80.822,264.6,80.7,264.322,80.649z"/>
	<path fill="#A5E6E6" d="M255.543,106.599c-0.164,0.032-0.354,0.006-0.585-0.118C255.084,106.634,255.297,106.664,255.543,106.599z"
		/>
	<path fill="#A5E6E6" d="M213.525,82.629c0.044-0.033,0.088-0.064,0.14-0.087C213.615,82.566,213.571,82.597,213.525,82.629z"/>
	<path fill="#A5E6E6" d="M213.248,83.122c0.01-0.165,0.085-0.314,0.202-0.432c-0.083,0.076-0.153,0.161-0.192,0.258
		c-0.041,0.173-0.02,0.355,0.039,0.516c-0.007-0.022-0.004-0.043-0.01-0.066C213.259,83.308,213.242,83.212,213.248,83.122z"/>
	<polygon fill="#A5E6E6" points="248.352,96.7 248.425,96.731 248.426,96.731 	"/>
	<path fill="#A5E6E6" d="M213.75,82.513c0.068-0.023,0.138-0.041,0.215-0.044C213.89,82.473,213.82,82.487,213.75,82.513z"/>
	<path fill="#A5E6E6" d="M255.72,106.544c0,0-0.011,0.004-0.019,0.009C255.705,106.55,255.708,106.549,255.72,106.544z"/>
	<path fill="#A5E6E6" d="M213.337,83.553c-0.009-0.023-0.026-0.045-0.034-0.068C213.311,83.51,213.326,83.53,213.337,83.553z"/>
	<polygon fill="#A5E6E6" points="253.786,91.556 253.883,91.454 219.869,83.765 219.652,83.772 	"/>
	<path fill="#A5E6E6" d="M256.096,106.136c-0.023,0.062-0.058,0.117-0.096,0.17C256.039,106.254,256.069,106.197,256.096,106.136z"
		/>
	<path fill="#A5E6E6" d="M254.227,92.981c-0.143,0.061-0.285,0.124-0.389,0.083l-31.678-7.265l0.662,0.276l30.461,6.888
		l1.076,10.459l1.636,1.984c0.144,0.189,0.186,0.469,0.108,0.709c0.042-0.112,0.064-0.231,0.045-0.35l-1.385-13.268l-0.279,0.29
		C254.443,92.889,254.299,92.951,254.227,92.981z"/>
	<path fill="#A5E6E6" d="M255.701,106.553C255.686,106.559,255.689,106.557,255.701,106.553L255.701,106.553z"/>
	<path fill="#A5E6E6" d="M255.92,106.409c-0.003,0.002-0.006,0.005-0.008,0.007C255.914,106.415,255.917,106.412,255.92,106.409z"/>
	<path fill="#A5E6E6" d="M254.104,91.504l-0.221-0.05l-0.097,0.102l-34.134-7.783l0.217-0.008l-5.708-1.291
		c-0.065-0.015-0.132-0.009-0.196-0.005c-0.077,0.003-0.146,0.021-0.215,0.044c-0.028,0.009-0.058,0.016-0.085,0.029
		c-0.052,0.023-0.096,0.054-0.14,0.087c-0.025,0.02-0.052,0.038-0.075,0.061c-0.117,0.117-0.192,0.267-0.202,0.432
		c-0.006,0.091,0.011,0.186,0.039,0.276c-0.045-0.22,0.005-0.437,0.156-0.615c0.225-0.268,0.615-0.35,0.922-0.226l7.795,3.243
		l31.678,7.265c0.104,0.041,0.246-0.022,0.389-0.083c0.072-0.03,0.217-0.093,0.258-0.195l0.279-0.29l-0.035-0.326
		C254.678,91.854,254.483,91.597,254.104,91.504z"/>
	<polygon fill="#A5E6E6" points="248.352,96.7 222.822,86.075 222.291,85.956 	"/>
	<path fill="#A5E6E6" d="M244.99,100.185c-0.01-0.12,0.008-0.229,0.045-0.329l-10.562,10.291l-18.318-25.212l30.915,12.864
		l0.054-0.051l-33.464-13.867c-0.14-0.057-0.247-0.18-0.322-0.328c0.024,0.058,0.047,0.117,0.087,0.173l20.363,27.991
		c0.166,0.185,0.299,0.297,0.545,0.276c0.143-0.061,0.246-0.02,0.389-0.082c0.072-0.03,0.145-0.062,0.186-0.165l10.955-10.689
		l-0.552-0.33C245.176,100.614,245.012,100.43,244.99,100.185z"/>
	<path fill="#A5E6E6" d="M213.303,83.485c-0.003-0.007-0.004-0.014-0.006-0.021C213.299,83.471,213.301,83.478,213.303,83.485z"/>
	<polygon fill="#A5E6E6" points="246.9,100.019 246.904,100.021 248.402,98.571 248.383,98.537 	"/>
	<path fill="#A5E6E6" d="M213.659,83.881l33.464,13.867l0.818-0.79c0.156-0.138,0.327-0.209,0.483-0.228l-0.073-0.031
		l-26.061-10.744l0.531,0.119l-0.662-0.276l-8.326-1.909c-0.259-0.015-0.464-0.238-0.547-0.493c0.006,0.023,0.003,0.044,0.01,0.066
		c0.002,0.007,0.003,0.014,0.006,0.021c0.008,0.022,0.025,0.045,0.034,0.068C213.412,83.701,213.52,83.825,213.659,83.881z"/>
	<path fill="#A5E6E6" d="M213.834,83.891l8.326,1.909l-7.795-3.243c-0.307-0.124-0.697-0.042-0.922,0.226
		c-0.151,0.178-0.201,0.395-0.156,0.615C213.37,83.653,213.575,83.875,213.834,83.891z"/>
	<path fill="#A5E6E6" d="M255.912,106.416c-0.057,0.054-0.121,0.099-0.192,0.128C255.771,106.521,255.851,106.475,255.912,106.416z"
		/>
	<path fill="#A5E6E6" d="M245.035,99.856l2.088-2.034l-0.054-0.022l-1.833,1.769C245.141,99.653,245.076,99.75,245.035,99.856z"/>
	<path fill="#A5E6E6" d="M255.72,106.544c-0.06,0.026-0.118,0.039-0.177,0.054C255.605,106.587,255.663,106.568,255.72,106.544z"/>
	<path fill="#A5E6E6" d="M248.4,98.581l-0.004,0.004l3.708,4.495l-5.212-3.029l-1.031,1.007l9.057,5.405
		c0.015,0.008,0.027,0.011,0.04,0.018c-0.024-0.028-0.054-0.051-0.07-0.09L248.4,98.581z"/>
	<path fill="#A5E6E6" d="M255.977,106.349c0.01-0.011,0.014-0.028,0.023-0.042c-0.026,0.036-0.049,0.073-0.08,0.103
		C255.938,106.389,255.966,106.373,255.977,106.349z"/>
	<path fill="#A5E6E6" d="M248.517,96.711c-0.028,0-0.062,0.017-0.091,0.02l0.267,0.11c0.066,0.018,0.128,0.046,0.182,0.085
		c0.019,0.012,0.034,0.029,0.052,0.044c0.059,0.052,0.107,0.113,0.145,0.181l5.311,6.481l-0.021-0.211l-5.299-6.433
		C248.896,96.805,248.691,96.722,248.517,96.711z"/>
	<path fill="#A5E6E6" d="M256.374,106.216c-0.003,0.008-0.005,0.015-0.008,0.021C256.369,106.231,256.371,106.224,256.374,106.216z"
		/>
	<path fill="#A5E6E6" d="M256.131,105.456l-1.703-2.009l-0.012,0.198l-5.33-6.488c0.039,0.073,0.061,0.147,0.066,0.225
		c0.021,0.246-0.035,0.521-0.22,0.686l-0.53,0.514l6.486,7.81c0.017,0.039,0.046,0.061,0.07,0.09c0.23,0.124,0.42,0.149,0.584,0.117
		c0.059-0.016,0.117-0.028,0.177-0.054c0.071-0.03,0.136-0.074,0.192-0.128c0.002-0.001,0.005-0.004,0.008-0.007
		c0.031-0.03,0.188-0.017,0.215-0.052c0.039-0.053,0.209-0.059,0.231-0.12c0.003-0.007,0.005-0.014,0.008-0.021
		C256.463,105.98,256.275,105.645,256.131,105.456z"/>
	<path fill="#A5E6E6" d="M248.692,96.841l-0.267-0.11h-0.001l0.226,0.093C248.665,96.827,248.678,96.836,248.692,96.841z"/>
	<path fill="#A5E6E6" d="M248.874,96.926c0.019,0.013,0.034,0.029,0.052,0.044C248.908,96.955,248.893,96.938,248.874,96.926z"/>
	<path fill="#A5E6E6" d="M249.02,97.091l0.051,0.06c-0.037-0.068-0.086-0.129-0.145-0.181
		C248.961,97.001,248.996,97.033,249.02,97.091z"/>
	<path fill="#A5E6E6" d="M246.9,100.019l1.502-1.263L248.445,99h0.004l-0.41-0.672l-0.905-0.474l-0.058-0.002l0.049-0.003
		l-2.088,2.021c-0.038,0.1-0.056,0.202-0.047,0.321c0.021,0.246,0.186,0.427,0.32,0.541l0.557,0.313l1.037-1.022L246.9,100.019z"/>
	<path fill="#A5E6E6" d="M248.874,96.926c-0.054-0.039-0.115-0.068-0.182-0.085l0.062,0.025
		C248.795,96.883,248.835,96.903,248.874,96.926z"/>
	<path fill="#A5E6E6" d="M248.926,96.97c-0.018-0.015-0.033-0.031-0.052-0.044c-0.039-0.023-0.079-0.043-0.12-0.061l-0.062-0.025
		c-0.015-0.004-0.027-0.014-0.042-0.017l-0.226-0.093c-0.156,0.019-0.327,0.09-0.483,0.228l-0.818,0.79l0.892,0.37l0.386,0.463
		l0.528-0.515c0.185-0.167,0.235-0.442,0.215-0.688c-0.006-0.078-0.036-0.154-0.073-0.227l-0.051-0.06
		C248.996,97.033,248.961,97.001,248.926,96.97z"/>
</g>
<path fill="#FFFFFF" stroke="#A5E6E6" stroke-width="2.378" stroke-miterlimit="10" d="M229.419,213.191
	c-1.288,0-2.547,0.133-3.763,0.376c-2.643-12.612-13.82-22.086-27.22-22.086c-6.976,0-13.333,2.587-18.215,6.827
	c0-0.072,0.011-0.141,0.011-0.212c0-11.146-9.034-20.184-20.184-20.184c-11.148,0-20.184,9.037-20.184,20.184
	c0,0.617,0.04,1.224,0.093,1.828c-1.214-0.18-2.446-0.302-3.71-0.302c-13.987,0-25.327,11.34-25.327,25.327
	s11.34,25.328,25.327,25.328c4.561,0,8.83-1.222,12.524-3.332c5.046,5.123,12.056,8.306,19.812,8.306
	c8.391,0,15.896-3.731,20.995-9.606c2.785,0.935,5.756,1.465,8.856,1.465c5.578,0,10.765-1.659,15.118-4.487
	c3.396,5.155,9.23,8.56,15.864,8.56c10.492,0,18.997-8.504,18.997-18.996C248.416,221.696,239.911,213.191,229.419,213.191z"/>
<path fill="#FFFFFF" stroke="#A5E6E6" stroke-width="2.378" stroke-miterlimit="10" d="M228.264,178.352
	c0.701,0,1.387,0.072,2.049,0.205c1.439-6.867,7.525-12.025,14.82-12.025c3.798,0,7.259,1.409,9.917,3.717
	c0-0.039-0.006-0.077-0.006-0.115c0-6.069,4.919-10.989,10.989-10.989s10.988,4.92,10.988,10.989c0,0.336-0.021,0.666-0.05,0.996
	c0.661-0.099,1.331-0.165,2.021-0.165c7.615,0,13.789,6.174,13.789,13.79s-6.174,13.79-13.789,13.79
	c-2.484,0-4.809-0.666-6.819-1.814c-2.747,2.789-6.564,4.522-10.787,4.522c-4.568,0-8.655-2.032-11.431-5.23
	c-1.517,0.509-3.135,0.798-4.822,0.798c-3.037,0-5.861-0.903-8.231-2.443c-1.849,2.807-5.026,4.661-8.638,4.661
	c-5.713,0-10.343-4.63-10.343-10.343S222.551,178.352,228.264,178.352z"/>
<g>
	<g>
		<g>
			<path fill="#A5E6E6" d="M198.589,204.299c0,0,5.601-6.294,14.144-15.602c2.141-2.322,4.46-4.838,6.912-7.499
				c2.445-2.668,5.077-5.432,7.771-8.318c5.386-5.773,11.197-11.87,16.987-17.986c23.162-24.463,46.325-48.927,46.325-48.927
				l0.072,0.068c0,0-22.907,24.703-45.814,49.405c-5.728,6.175-11.434,12.37-16.845,18.12c-2.705,2.875-5.292,5.681-7.796,8.295
				c-2.496,2.621-4.855,5.098-7.034,7.385c-8.733,9.129-14.65,15.127-14.65,15.127L198.589,204.299z"/>
		</g>
		<g>
			<path fill="#A5E6E6" d="M199.326,198.94c0,0,4.812-5.469,12.172-13.538c1.845-2.013,3.844-4.193,5.957-6.5
				c2.106-2.313,4.382-4.703,6.705-7.203c4.647-5,9.671-10.271,14.672-15.562c20.009-21.163,40.018-42.326,40.018-42.326
				l0.072,0.068c0,0-19.753,21.402-39.506,42.803c-4.939,5.35-9.856,10.72-14.528,15.696c-2.336,2.488-4.565,4.92-6.73,7.179
				c-2.157,2.266-4.196,4.409-6.079,6.386c-7.551,7.892-12.68,13.064-12.68,13.064L199.326,198.94z"/>
		</g>
		<g>
			<path fill="#A5E6E6" d="M203.898,204.299c0.001,0,3.756-4.366,9.532-10.783c1.449-1.6,3.019-3.333,4.68-5.165
				c1.672-1.822,3.436-3.743,5.261-5.73c3.698-3.929,7.643-8.12,11.587-12.311c15.786-16.756,31.572-33.513,31.572-33.513
				l0.074,0.068c0,0-15.53,16.994-31.06,33.989c-3.885,4.247-7.769,8.494-11.41,12.475c-1.846,1.968-3.629,3.871-5.32,5.674
				c-1.704,1.793-3.314,3.488-4.802,5.052c-5.967,6.24-10.041,10.312-10.04,10.312L203.898,204.299z"/>
		</g>
		<g>
			<path fill="#A5E6E6" d="M208.128,204.299c0,0,2.627-3.135,6.711-7.704c1.025-1.137,2.137-2.37,3.312-3.673
				c1.17-1.309,2.441-2.654,3.735-4.064c2.641-2.774,5.456-5.732,8.272-8.691c11.271-11.828,22.544-23.655,22.544-23.655
				l0.072,0.068c0,0-11.016,12.066-22.031,24.133c-2.756,3.015-5.512,6.029-8.096,8.856c-1.317,1.389-2.57,2.75-3.795,4.009
				c-1.219,1.263-2.371,2.458-3.435,3.56c-4.273,4.392-7.219,7.23-7.219,7.23L208.128,204.299z"/>
		</g>
	</g>
	<polygon fill="#A5E6E6" points="193.077,205.204 195.557,201.364 197.096,205.668 201.514,206.84 197.896,209.634 198.147,214.197 
		194.372,211.621 190.109,213.27 191.394,208.883 188.508,205.339 	"/>
</g>
</svg>
