<?xml version="1.0" encoding="utf-8"?>
<!-- Generator: Adobe Illustrator 16.0.0, SVG Export Plug-In . SVG Version: 6.00 Build 0)  -->
<!DOCTYPE svg PUBLIC "-//W3C//DTD SVG 1.1//EN" "http://www.w3.org/Graphics/SVG/1.1/DTD/svg11.dtd">
<svg version="1.1" id="圖層_1" xmlns="http://www.w3.org/2000/svg" xmlns:xlink="http://www.w3.org/1999/xlink" x="0px" y="0px"
	 width="300px" height="300px" viewBox="0 0 300 300" enable-background="new 0 0 300 300" xml:space="preserve">
<path fill="#FFFFFF" stroke="#A5E6E6" stroke-width="2.378" stroke-miterlimit="10" d="M111.568,170.055
	c11.238,0,20.858,6.809,24.853,16.465c3.179-2.951,7.424-4.769,12.103-4.769c2.398,0,4.681,0.48,6.769,1.339
	c2.876-16.27,17.073-28.63,34.169-28.63c10.9,0,20.622,5.029,26.985,12.889c4.386-3.074,9.745-4.888,15.538-4.888
	c14.188,0,25.797,10.849,26.759,24.583c9.751,0.103,17.626,8.03,17.626,17.806c0,9.839-7.977,17.816-17.815,17.816
	c-3.581,0-6.907-1.066-9.7-2.885c-5.245,9.237-15.268,15.485-26.778,15.485c-10.133,0-19.114-4.843-24.698-12.303
	c-2.544,0.594-5.191,0.918-7.916,0.918c-2.699,0-5.323-0.318-7.846-0.901c-2.835,3.255-7,5.321-11.655,5.321
	c-5.401,0-10.15-2.773-12.917-6.969c-3.941,5.479-10.367,9.051-17.633,9.051c-7.406,0-13.943-3.711-17.862-9.374
	c-3.086,1.219-6.452,1.896-9.979,1.896c-14.819,0-26.832-11.831-26.832-26.425C84.736,181.886,96.749,170.055,111.568,170.055z"/>
<circle fill="none" stroke="#BB9974" stroke-miterlimit="10" stroke-dasharray="5" cx="143.051" cy="126.5" r="90.5"/>
<g>
	<path fill="#FFFBEE" stroke="#A5E6E6" stroke-linecap="round" stroke-miterlimit="10" d="M25.844,149.056l130.678,22.729
		c0,0,21.57,18.983,27.982,41.169c0,0,4.833,10.282,10.706,0.702c0,0,8.573-22.777,37.133-42.407l-0.999-3.18l10.382,1.435
		l-0.172,2.611c0,0-39.47,39.37-43.24,44.892c-3.771,5.521-9.189,2.807-13.871,2.237c-4.684-0.569-126.021-22.423-126.021-22.423
		s-26.926-41.625-34.293-45.255L25.844,149.056z"/>
	<path fill="#FFFBEE" stroke="#A5E6E6" stroke-linecap="round" stroke-miterlimit="10" d="M100.262,137.938l127.629,21.217
		l4.452,12.094c0,0-33.323,24.301-37.133,42.407c0,0-6.632,9.602-10.706-0.702c-4.073-10.304-13.801-29.488-27.982-41.169
		L43.724,152.167l10.504-8.067l33.984,5.638C88.212,149.737,95.877,140.799,100.262,137.938z"/>
	<path fill="none" stroke="#A5E6E6" stroke-linecap="round" stroke-miterlimit="10" d="M227.891,159.155
		c0,0-33.2,10.412-37.175,51.06c0,0-7.929-39.068-23.396-47.162l-79.108-13.315"/>
	
		<line fill="none" stroke="#A5E6E6" stroke-linecap="round" stroke-miterlimit="10" x1="167.32" y1="163.053" x2="156.521" y2="171.785"/>
	<g>
		<path fill="#A5E6E6" d="M57.629,147.681c4.45,0.647,8.9,1.295,13.34,2.011l13.327,2.091c4.445,0.677,8.875,1.45,13.311,2.182
			c4.438,0.729,8.868,1.495,13.296,2.275c8.863,1.521,17.706,3.159,26.557,4.753l6.641,1.183l6.647,1.141
			c4.436,0.734,8.876,1.444,13.322,2.113l0.068,0.01l0.057,0.042c0.822,0.609,1.546,1.278,2.28,1.956
			c0.715,0.693,1.425,1.391,2.093,2.128c0.689,0.718,1.326,1.481,1.966,2.242c0.639,0.762,1.225,1.565,1.839,2.346
			c0.595,0.795,1.154,1.616,1.733,2.423c0.575,0.81,1.087,1.661,1.623,2.497c0.546,0.829,1.021,1.701,1.52,2.559
			c0.493,0.86,1,1.713,1.441,2.602l1.371,2.639l1.262,2.691c0.416,0.899,0.83,1.799,1.188,2.724l1.116,2.752
			c0.392,0.909,0.686,1.857,1.03,2.784l0.979,2.801l1.712,5.678c0.008,0.026-0.007,0.055-0.033,0.062
			c-0.025,0.008-0.054-0.008-0.062-0.033l-1.975-5.581l-1.091-2.75c-0.369-0.914-0.688-1.847-1.102-2.742l-1.188-2.705
			c-0.38-0.909-0.817-1.791-1.253-2.673l-1.283-2.658l-1.39-2.602c-0.447-0.876-0.959-1.715-1.458-2.562
			c-0.503-0.844-0.983-1.702-1.533-2.516c-0.545-0.817-1.051-1.66-1.607-2.469c-0.564-0.802-1.11-1.619-1.69-2.41
			c-0.6-0.776-1.171-1.576-1.794-2.332c-0.631-0.751-1.227-1.532-1.888-2.255c-0.637-0.746-1.315-1.452-1.999-2.154
			c-0.695-0.681-1.407-1.374-2.155-1.964l0.124,0.053c-4.419-0.831-8.846-1.62-13.276-2.385l-6.653-1.107l-6.66-1.066
			c-8.882-1.404-17.772-2.766-26.643-4.243c-4.438-0.72-8.875-1.453-13.305-2.223c-4.431-0.767-8.867-1.493-13.289-2.315
			l-13.273-2.406c-4.427-0.784-8.844-1.635-13.26-2.487c-0.026-0.005-0.045-0.031-0.039-0.059
			C57.577,147.695,57.603,147.677,57.629,147.681z"/>
	</g>
	<g>
		<path fill="#A5E6E6" d="M63.976,151.506c4.048,0.593,8.095,1.197,12.135,1.84l12.114,1.958l12.096,2.063
			c4.033,0.677,8.053,1.441,12.079,2.157c8.054,1.432,16.082,3.011,24.125,4.508l6.039,1.086l6.051,1.013l12.122,1.912l0.106,0.017
			l0.086,0.075c1.106,0.976,2.142,1.999,3.149,3.057c1.029,1.037,2.009,2.119,2.958,3.228c0.473,0.556,0.961,1.098,1.42,1.665
			l1.344,1.728l1.343,1.727c0.464,0.563,0.847,1.187,1.268,1.783c0.826,1.202,1.65,2.405,2.453,3.621l2.177,3.794
			c0.354,0.636,0.742,1.253,1.068,1.904l0.907,1.989l1.797,3.976c0.012,0.025,0,0.054-0.025,0.066
			c-0.023,0.011-0.055-0.003-0.066-0.027l-2.018-3.858l-1.001-1.927c-0.354-0.631-0.754-1.237-1.128-1.856l-2.281-3.693
			l-2.516-3.536c-0.425-0.585-0.812-1.197-1.279-1.75l-1.354-1.695l-1.354-1.694c-0.463-0.556-0.954-1.086-1.43-1.63l-1.422-1.636
			c-0.48-0.54-0.987-1.054-1.479-1.583c-0.976-1.063-2.023-2.068-3.051-3.062l0.192,0.092l-12.054-2.307l-6.036-1.096l-6.05-1.023
			c-8.074-1.316-16.163-2.549-24.226-3.93c-4.032-0.69-8.071-1.332-12.097-2.062l-12.079-2.155l-12.062-2.261
			c-4.019-0.763-8.031-1.565-12.041-2.379c-0.026-0.005-0.044-0.032-0.039-0.059C63.925,151.52,63.949,151.502,63.976,151.506z"/>
	</g>
	<g>
		<path fill="#A5E6E6" d="M193.226,203.197c0,0,0.916-2.54,2.656-6.193c0.874-1.824,1.931-3.938,3.197-6.131
			c0.603-1.114,1.319-2.21,1.997-3.355c0.721-1.118,1.458-2.251,2.224-3.367c0.802-1.089,1.543-2.226,2.386-3.261
			c0.836-1.039,1.619-2.096,2.496-3.021c0.88-0.919,1.668-1.868,2.561-2.626c0.878-0.771,1.645-1.566,2.461-2.178
			c0.799-0.633,1.553-1.184,2.207-1.685c0.67-0.483,1.302-0.838,1.804-1.151c1.014-0.608,1.593-0.957,1.593-0.957
			c0.023-0.014,0.054-0.006,0.068,0.017c0.013,0.022,0.004,0.052-0.016,0.068c0,0-0.525,0.422-1.444,1.16
			c-0.452,0.377-1.033,0.787-1.654,1.315c-0.609,0.545-1.28,1.176-2.036,1.832c-0.771,0.639-1.487,1.465-2.309,2.263
			c-0.825,0.795-1.616,1.714-2.46,2.638c-0.88,0.892-1.668,1.922-2.535,2.913c-0.868,0.991-1.638,2.089-2.471,3.139
			c-0.788,1.082-1.551,2.186-2.296,3.274c-0.704,1.117-1.446,2.186-2.076,3.275c-1.312,2.148-2.444,4.209-3.383,5.993
			c-1.869,3.575-2.876,6.074-2.876,6.074c-0.011,0.026-0.04,0.038-0.065,0.028S193.217,203.222,193.226,203.197z"/>
	</g>
</g>
<circle fill="#CAC6F0" cx="143" cy="126" r="28"/>
<path fill-rule="evenodd" clip-rule="evenodd" fill="#9EA09A" d="M161.719,102.854c0.162,0.977-0.278,1.187-1.207,1.164
	c-2.729-0.066-5.462-0.028-8.192-0.02c-0.473,0.001-0.94,0.042-1.184-0.488c-1.852-0.931-2.928-2.542-3.903-4.29
	c-0.558-1.001-1.61-1.58-2.479-2.308c-0.813-0.682-1.629-1.365-2.478-2.001c-0.752-0.563-0.958-1.233-0.646-2.111
	c0.22-0.619,0.309-1.295,0.591-1.88c0.615-1.275,0.555-2.488-0.225-3.631c-1.435-2.103-1.75-4.543-2.082-6.953
	c-0.108-0.785,0.205-1.656,0.437-2.456c0.561-1.93,0.588-2.02-1.101-3.154c-6.345-4.261-12.206-9.102-17.597-14.517
	c-4.602-4.622-8.376-9.779-10.392-16.072c-0.708-2.21-1.109-4.468-1.075-6.8c0.046-3.238,1.428-5.785,3.983-7.699
	c1.688-1.264,3.551-2.204,5.673-2.477c0.995-0.128,1.995-0.043,2.741,0.774c0.666,0.73,0.727,1.467-0.012,2.221
	c-0.8,0.819-1.686,1.546-2.675,2.09c-3.671,2.02-4.343,5.262-3.37,9.043c0.639,2.487,1.851,4.708,3.475,6.669
	c4.919,5.942,10.197,11.627,16.438,16.113c5.339,3.837,11.583,5.591,18.397,4.66c5.743-0.784,11.522-0.971,17.282,0.143
	c9.317,1.801,15.201,7.531,18.563,16.141c0.518,1.325,1.102,2.581,2.178,3.493c3.389,2.869,5.041,6.506,5.103,10.926
	c0.029,2.109,1.051,3.698,2.665,5.053c1.651,1.386,3.396,2.676,4.868,4.27c0.267,0.288,0.631,0.367,0.977,0.465
	c3.395,0.955,6.208,2.906,8.845,5.154c1.038,0.885,1.042,1.168-0.093,2.005c-0.577,0.425-0.642,0.63-0.021,1.058
	c0.629,0.434,1.176,0.987,1.749,1.499c0.466,0.415,0.381,0.826-0.053,1.207c-0.685,0.603-1.508,0.879-2.397,0.988
	c-1.441,0.176-2.852-0.05-4.242-0.391c-0.71-0.174-1.319-0.068-1.81,0.459c-1.804,1.945-4.368,3.081-5.77,5.459
	c-0.28,0.477-0.761,0.767-1.307,0.431c-0.85-0.523-1.799-0.568-2.735-0.692c-0.697-0.092-1.228-0.44-1.636-1
	c-1.391-1.905-2.725-3.832-2.576-6.361c0.028-0.469-0.296-0.745-0.619-0.975c-0.626-0.444-1.255-0.896-1.933-1.25
	c-3.282-1.715-6.395-3.709-9.45-5.788c-0.697-0.475-0.899-0.425-1.257,0.379c-2.428,5.466-2.869,11.158-2.039,16.995
	c0.297,2.09-0.287,3.595-2.316,4.402c-0.332,0.132-0.463,0.449-0.643,0.723c-0.966,1.46-1.748,1.43-2.656-0.102
	c-0.049-0.762-0.138-1.524-0.14-2.286c-0.01-8.713-0.012-17.427,0.007-26.14c0.001-0.713-0.083-1.238-0.932-1.265
	c-0.766-0.053-0.99-0.696-1.266-1.228c-0.939-1.818-1.865-3.642-2.799-5.462c-0.597-1.161-1.347-1.637-2.547-1.394
	c-4.177,0.847-8.357,0.518-12.542,0.113c-0.213-0.021-0.43-0.097-0.724,0.085c1.737,1.737,3.112,3.912,5.962,3.973
	c0.501,0.011,0.995,0.226,1.479,0.393C161.41,100.694,161.803,101.304,161.719,102.854z"/>
<path fill="none" stroke="#FFFFFF" stroke-width="2.1443" stroke-linecap="round" stroke-linejoin="round" stroke-miterlimit="10" d="
	M166.262,132.042c0,0-2.5,13.178-15.64,16.706"/>
<path fill="#FFFFFF" stroke="#A5E6E6" stroke-width="2.2047" stroke-miterlimit="10" d="M180.977,203.439
	c-10.395-0.736-19.737,4.931-24.064,13.599c-2.746-2.938-6.553-4.897-10.88-5.204c-2.217-0.157-4.36,0.138-6.347,0.795
	c-1.594-15.234-13.915-27.595-29.725-28.715c-10.08-0.714-19.4,3.3-25.801,10.152c-3.854-3.131-8.691-5.159-14.049-5.539
	c-13.123-0.929-24.568,8.343-26.357,20.982c-9.023-0.544-16.826,6.271-17.467,15.312c-0.645,9.1,6.209,16.999,15.309,17.643
	c3.311,0.235,6.458-0.534,9.16-2.032c4.245,8.886,13.105,15.32,23.75,16.075c9.371,0.664,17.994-3.227,23.646-9.76
	c2.314,0.716,4.742,1.189,7.262,1.368c2.496,0.177,4.943,0.054,7.314-0.32c2.408,3.196,6.125,5.38,10.43,5.685
	c4.996,0.354,9.569-1.899,12.402-5.599c3.286,5.326,8.996,9.05,15.715,9.525c6.85,0.485,13.139-2.519,17.133-7.499
	c2.774,1.33,5.842,2.177,9.105,2.408c13.705,0.971,25.59-9.183,26.546-22.681C205.016,216.138,194.68,204.41,180.977,203.439z"/>
<g>
	<path fill="#A5E6E6" d="M79.159,162.52c-1.603-0.539-3.336-0.423-4.882,0.324c-1.547,0.747-2.716,2.034-3.289,3.621l-1.13,3.083
		l2.01,0.684l1.117-3.07c0.389-1.064,1.169-1.924,2.199-2.422c1.031-0.497,2.19-0.574,3.263-0.217
		c1.069,0.359,1.924,1.111,2.409,2.117c0.482,1.002,0.537,2.135,0.154,3.189c-0.388,1.064-1.167,1.924-2.199,2.421
		c-1.03,0.498-2.189,0.575-3.264,0.217l-10.029-3.359c-1.608-0.534-3.341-0.419-4.882,0.324c-1.546,0.747-2.714,2.034-3.289,3.623
		c-0.575,1.592-0.492,3.303,0.238,4.816c0.728,1.511,2.016,2.641,3.625,3.18c1.602,0.538,3.336,0.423,4.881-0.324
		c1.547-0.747,2.716-2.033,3.289-3.622l1.124-3.081l-2.005-0.672l-1.122,3.061c-0.388,1.064-1.168,1.924-2.2,2.422
		c-1.029,0.498-2.188,0.575-3.263,0.217c-1.067-0.36-1.923-1.112-2.407-2.117c-0.482-1.002-0.537-2.135-0.155-3.188
		c0.387-1.064,1.168-1.924,2.198-2.422c1.032-0.498,2.19-0.575,3.265-0.217l10.03,3.359c1.607,0.535,3.341,0.419,4.881-0.324
		c1.547-0.747,2.715-2.034,3.288-3.621c0.583-1.592,0.501-3.305-0.231-4.821C82.055,164.188,80.768,163.058,79.159,162.52
		L79.159,162.52z"/>
</g>
</svg>
