<svg width="60" height="61" viewBox="0 0 60 61" fill="none" xmlns="http://www.w3.org/2000/svg">
<path d="M29.9999 58.0866C45.5064 58.0866 58.0769 45.5161 58.0769 30.0096C58.0769 14.5031 45.5064 1.93262 29.9999 1.93262C14.4934 1.93262 1.92285 14.5031 1.92285 30.0096C1.92285 45.5161 14.4934 58.0866 29.9999 58.0866Z" fill="#6F6F6F"/>
<path d="M30 60.0095C13.458 60.0095 0 46.5515 0 30.0095C0 13.4675 13.458 0.00952148 30 0.00952148C46.542 0.00952148 60 13.4675 60 30.0095C60 46.5515 46.542 60.0095 30 60.0095ZM30 3.85552C15.579 3.85552 3.846 15.5875 3.846 30.0095C3.846 44.4305 15.579 56.1635 30 56.1635C44.422 56.1635 56.154 44.4305 56.154 30.0095C56.154 15.5885 44.421 3.85552 30 3.85552Z" fill="#4B4B4B"/>
<path d="M18.7273 15.1948L30 14.0095L41.2727 15.1948L50 26.8466L30 50.0095L10 26.8466L18.7273 15.1948Z" fill="#FDB300"/>
<path d="M18.0847 27.0095L29.9597 50.0037L10 27.0095H18.0847Z" fill="#EA6C00"/>
<path d="M41.8348 27.0095L29.9597 50.0037L49.9194 27.0095H41.8348Z" fill="#EA6C00"/>
<path d="M18.0845 27.0095H41.8345L29.9595 50.0037L18.0845 27.0095Z" fill="#FDAD00"/>
<path d="M29.9595 14.0095L18.7094 15.2087L18.0845 26.9973L29.9595 14.0095Z" fill="#FDD231"/>
<path d="M29.9594 14.0095L41.2095 15.2087L41.8345 26.9973L29.9594 14.0095Z" fill="#FDD231"/>
<path d="M49.9194 26.9974L41.2097 15.2087L41.8348 26.9974H49.9194Z" fill="#FDAD00"/>
<path d="M10 26.9974L18.7096 15.2087L18.0847 26.9974H10Z" fill="#FDAD00"/>
<path d="M29.9595 14.0095L18.0845 26.9973H41.8345L29.9595 14.0095Z" fill="#FEEEB7"/>
</svg>
