<svg width="60" height="61" viewBox="0 0 60 61" fill="none" xmlns="http://www.w3.org/2000/svg">
<path d="M29.9999 58.0866C45.5064 58.0866 58.0769 45.5161 58.0769 30.0096C58.0769 14.5031 45.5064 1.93262 29.9999 1.93262C14.4934 1.93262 1.92285 14.5031 1.92285 30.0096C1.92285 45.5161 14.4934 58.0866 29.9999 58.0866Z" fill="#525967"/>
<path d="M30 60.0095C13.458 60.0095 0 46.5515 0 30.0095C0 13.4675 13.458 0.00952148 30 0.00952148C46.542 0.00952148 60 13.4675 60 30.0095C60 46.5515 46.542 60.0095 30 60.0095ZM30 3.85552C15.579 3.85552 3.846 15.5875 3.846 30.0095C3.846 44.4305 15.579 56.1635 30 56.1635C44.422 56.1635 56.154 44.4305 56.154 30.0095C56.154 15.5885 44.421 3.85552 30 3.85552Z" fill="#454B57"/>
<path d="M25.5 47.0095C26.9587 47.0095 28.3576 46.4827 29.3891 45.5451C30.4205 44.6074 31 43.3356 31 42.0095V37.0095H25.5C23.535 37.0095 21.7193 37.9625 20.7369 39.5095C19.7544 41.0565 19.7544 42.9625 20.7369 44.5095C21.7193 46.0565 23.535 47.0095 25.5 47.0095Z" fill="#0ACF83"/>
<path d="M20 32.0095C20 29.2481 22.4624 27.0095 25.5 27.0095H31V37.0095H25.5C22.4624 37.0095 20 34.7709 20 32.0095Z" fill="#A259FF"/>
<path d="M20 22.0095C20 19.2481 22.4624 17.0095 25.5 17.0095H31V27.0095H25.5C24.0413 27.0095 22.6424 26.4827 21.6109 25.5451C20.5795 24.6074 20 23.3356 20 22.0095Z" fill="#F24E1E"/>
<path d="M30 17.0095H35.5C38.5376 17.0095 41 19.2481 41 22.0095C41 24.7709 38.5376 27.0095 35.5 27.0095H30V17.0095Z" fill="#FF7262"/>
<path d="M41 32.0095C41 34.7709 38.5376 37.0095 35.5 37.0095C32.4624 37.0095 30 34.7709 30 32.0095C30 29.2481 32.4624 27.0095 35.5 27.0095C38.5376 27.0095 41 29.2481 41 32.0095Z" fill="#1ABCFE"/>
</svg>
