<svg width="60" height="61" viewBox="0 0 60 61" fill="none" xmlns="http://www.w3.org/2000/svg">
<path d="M29.9999 58.0866C45.5064 58.0866 58.0769 45.5161 58.0769 30.0096C58.0769 14.5031 45.5064 1.93262 29.9999 1.93262C14.4934 1.93262 1.92285 14.5031 1.92285 30.0096C1.92285 45.5161 14.4934 58.0866 29.9999 58.0866Z" fill="#0C61C6"/>
<path d="M30 60.0095C13.458 60.0095 0 46.5515 0 30.0095C0 13.4675 13.458 0.00952148 30 0.00952148C46.542 0.00952148 60 13.4675 60 30.0095C60 46.5515 46.542 60.0095 30 60.0095ZM30 3.85552C15.579 3.85552 3.846 15.5885 3.846 30.0095C3.846 44.4315 15.578 56.1635 30 56.1635C44.421 56.1635 56.154 44.4315 56.154 30.0095C56.154 15.5885 44.421 3.85552 30 3.85552Z" fill="#CCEFFF"/>
<path d="M15.9072 41.0224V20.6904H22.4942C24.9912 20.6904 26.6182 20.7924 27.3752 20.9954C28.5402 21.3004 29.5162 21.9644 30.3012 22.9854C31.0872 24.0064 31.4802 25.3264 31.4802 26.9454C31.4802 28.1934 31.2532 29.2424 30.8012 30.0934C30.3472 30.9444 29.7722 31.6114 29.0742 32.0974C28.3762 32.5824 27.6662 32.9044 26.9462 33.0604C25.9662 33.2544 24.5462 33.3524 22.6882 33.3524H20.0122V41.0214H15.9072V41.0224ZM20.0122 24.1304V29.8994H22.2592C23.8772 29.8994 24.9592 29.7944 25.5052 29.5804C26.0502 29.3684 26.4782 29.0354 26.7882 28.5824C27.0982 28.1294 27.2522 27.6024 27.2522 27.0004C27.2522 26.2614 27.0352 25.6514 26.6002 25.1694C26.1652 24.6894 25.6152 24.3884 24.9502 24.2684C24.4592 24.1764 23.4742 24.1294 21.9952 24.1294L20.0122 24.1304Z" fill="#CCEFFF"/>
<path d="M32.0312 36.8194L35.9422 36.2234C36.1082 36.9814 36.4463 37.5574 36.9543 37.9504C37.4633 38.3434 38.1753 38.5404 39.0903 38.5404C40.0983 38.5404 40.8562 38.3554 41.3652 37.9854C41.7072 37.7264 41.8783 37.3804 41.8783 36.9444C41.8783 36.6484 41.7863 36.4034 41.6012 36.2094C41.4072 36.0244 40.9723 35.8534 40.2973 35.6964C37.1533 35.0034 35.1612 34.3694 34.3202 33.7964C33.1552 33.0014 32.5723 31.8964 32.5723 30.4824C32.5723 29.2064 33.0762 28.1334 34.0842 27.2654C35.0912 26.3954 36.6542 25.9614 38.7722 25.9614C40.7872 25.9614 42.2852 26.2894 43.2652 26.9464C44.2442 27.6024 44.9203 28.5734 45.2903 29.8584L41.6152 30.5374C41.4572 29.9644 41.1592 29.5244 40.7202 29.2204C40.2812 28.9154 39.6552 28.7624 38.8412 28.7624C37.8142 28.7624 37.0802 28.9064 36.6362 29.1924C36.3402 29.3954 36.1922 29.6594 36.1922 29.9834C36.1922 30.2604 36.3222 30.4964 36.5802 30.6904C36.9323 30.9494 38.1453 31.3154 40.2213 31.7864C42.2973 32.2574 43.7463 32.8354 44.5693 33.5194C45.3822 34.2134 45.7903 35.1794 45.7903 36.4184C45.7903 37.7684 45.2262 38.9284 44.0982 39.8994C42.9702 40.8704 41.3012 41.3564 39.0912 41.3564C37.0852 41.3564 35.4972 40.9494 34.3272 40.1354C33.1562 39.3214 32.3913 38.2164 32.0312 36.8194Z" fill="#CCEFFF"/>
</svg>
