<svg width="60" height="61" viewBox="0 0 60 61" fill="none" xmlns="http://www.w3.org/2000/svg">
<path d="M29.9989 58.0866C45.5054 58.0866 58.0759 45.5161 58.0759 30.0096C58.0759 14.5031 45.5054 1.93262 29.9989 1.93262C14.4924 1.93262 1.92188 14.5031 1.92188 30.0096C1.92188 45.5161 14.4924 58.0866 29.9989 58.0866Z" fill="#0868AC"/>
<path d="M29.999 60.0095C13.457 60.0095 -0.000976562 46.5515 -0.000976562 30.0095C-0.000976562 13.4675 13.457 0.00952148 29.999 0.00952148C46.541 0.00952148 59.998 13.4675 59.998 30.0095C59.998 46.5515 46.541 60.0095 29.999 60.0095ZM29.999 3.85552C15.577 3.85552 3.84502 15.5875 3.84502 30.0095C3.84502 44.4305 15.577 56.1635 29.999 56.1635C44.421 56.1635 56.152 44.4315 56.152 30.0095C56.152 15.5875 44.421 3.85552 29.999 3.85552Z" fill="#6BA4CD"/>
<path d="M19.6633 17.9776C17.5673 20.9906 17.8273 24.9106 19.4303 28.1116L19.5473 28.3396L19.6223 28.4836L19.6683 28.5666L19.7533 28.7156C19.8023 28.8036 19.8543 28.8906 19.9063 28.9776L19.9923 29.1226C20.0513 29.2146 20.1093 29.3076 20.1713 29.4006L20.2463 29.5176C20.3293 29.6416 20.4143 29.7656 20.5023 29.8876L20.5103 29.8976L20.5533 29.9566C20.6303 30.0606 20.7083 30.1656 20.7873 30.2686L20.8753 30.3806C20.9473 30.4686 21.0193 30.5586 21.0933 30.6466L21.1753 30.7446C21.2743 30.8606 21.3743 30.9766 21.4773 31.0906L21.4823 31.0956L21.4953 31.1086C21.5963 31.2176 21.6983 31.3246 21.8023 31.4326L21.9003 31.5306C21.9813 31.6126 22.0633 31.6916 22.1443 31.7706L22.2463 31.8656C22.3563 31.9696 22.4673 32.0716 22.5813 32.1706L22.5863 32.1756L22.6473 32.2246C22.7453 32.3116 22.8473 32.3986 22.9503 32.4816L23.0773 32.5826C23.1603 32.6506 23.2463 32.7166 23.3313 32.7816L23.4673 32.8856C23.5623 32.9546 23.6563 33.0226 23.7513 33.0896L23.8553 33.1636L23.8833 33.1836C23.9733 33.2456 24.0673 33.3066 24.1593 33.3666L24.2783 33.4466C24.4213 33.5356 24.5653 33.6276 24.7123 33.7126L24.8323 33.7796C24.9403 33.8416 25.0473 33.9026 25.1573 33.9626L25.3373 34.0546L25.5693 34.1756L25.6233 34.2016L25.7193 34.2486C25.8413 34.3056 25.9643 34.3636 26.0883 34.4186L26.1663 34.4536C26.3093 34.5146 26.4513 34.5746 26.5953 34.6326L26.7003 34.6736C26.8343 34.7266 26.9703 34.7766 27.1073 34.8246L27.1583 34.8416C27.3073 34.8946 27.4593 34.9426 27.6103 34.9896L27.7193 35.0216C27.8733 35.0676 28.0273 35.1246 28.1863 35.1546C38.3243 37.0016 41.2693 29.0616 41.2693 29.0616C38.7953 32.2836 34.4053 33.1336 30.2463 32.1876C30.0893 32.1526 29.9353 32.1026 29.7823 32.0576L29.6663 32.0216C29.5163 31.9756 29.3683 31.9276 29.2203 31.8766L29.1583 31.8546C29.0253 31.8086 28.8943 31.7586 28.7643 31.7086L28.6543 31.6656C28.5103 31.6096 28.3693 31.5516 28.2283 31.4896L28.1443 31.4516C28.0233 31.3956 27.9033 31.3416 27.7853 31.2856L27.6813 31.2346C27.5883 31.1906 27.4953 31.1406 27.4043 31.0936L27.2183 30.9956C27.1073 30.9356 26.9943 30.8746 26.8863 30.8106L26.7743 30.7476C26.6283 30.6616 26.4843 30.5726 26.3403 30.4826L26.2233 30.4046C26.1193 30.3376 26.0173 30.2696 25.9143 30.1986L25.8133 30.1286C25.7163 30.0596 25.6193 29.9896 25.5223 29.9186L25.3943 29.8206C25.3053 29.7536 25.2173 29.6846 25.1313 29.6146L25.0133 29.5206C24.9033 29.4296 24.7933 29.3386 24.6863 29.2446L24.6503 29.2156C24.5343 29.1126 24.4193 29.0066 24.3053 28.9016L24.2093 28.8076C24.1243 28.7286 24.0423 28.6486 23.9613 28.5656L23.8643 28.4676C23.7613 28.3626 23.6593 28.2566 23.5603 28.1476L23.5453 28.1306C23.4403 28.0166 23.3363 27.9006 23.2373 27.7806L23.1563 27.6846C23.0823 27.5946 23.0073 27.5036 22.9343 27.4096L22.8533 27.3086C22.7663 27.1956 22.6803 27.0816 22.5963 26.9676C20.2873 23.8166 19.4563 19.4736 21.3033 15.9046M26.1703 15.4396C24.6553 17.6216 24.7353 20.5416 25.9193 22.8476C26.1183 23.2346 26.3423 23.6116 26.5903 23.9676C26.8183 24.2936 27.0693 24.6806 27.3693 24.9426C27.4793 25.0636 27.5943 25.1796 27.7113 25.2966L27.7993 25.3846C27.9133 25.4946 28.0283 25.6016 28.1493 25.7066L28.1633 25.7196L28.1663 25.7226C28.2973 25.8376 28.4333 25.9496 28.5713 26.0586L28.6633 26.1296C28.8023 26.2356 28.9433 26.3396 29.0893 26.4396L29.1013 26.4486L29.2953 26.5766L29.3873 26.6366C29.4913 26.7036 29.5963 26.7686 29.7023 26.8306L29.7463 26.8556C29.8383 26.9096 29.9313 26.9606 30.0243 27.0116L30.1223 27.0626L30.3173 27.1646L30.3453 27.1776C30.4793 27.2426 30.6143 27.3066 30.7523 27.3666L30.8413 27.4026C30.9503 27.4496 31.0633 27.4966 31.1743 27.5376L31.3173 27.5906C31.4193 27.6286 31.5203 27.6636 31.6233 27.6966L31.7613 27.7416C31.9073 27.7846 32.0513 27.8426 32.2023 27.8696C40.0293 29.1646 41.8373 23.1386 41.8373 23.1386C40.2083 25.4866 37.0543 26.6056 33.6883 25.7326C33.5383 25.6926 33.3913 25.6486 33.2453 25.6036L33.1113 25.5606C33.0073 25.5266 32.9043 25.4926 32.8013 25.4526L32.6603 25.4006C32.5483 25.3586 32.4373 25.3136 32.3263 25.2666L32.2363 25.2306C32.0983 25.1686 31.9623 25.1056 31.8283 25.0406L31.6233 24.9366L31.5073 24.8746C31.4203 24.8276 31.3313 24.7776 31.2473 24.7286L31.1853 24.6936C31.0803 24.6316 30.9743 24.5676 30.8723 24.5026L30.7773 24.4396L30.5743 24.3056C30.4293 24.2056 30.2903 24.1006 30.1513 23.9956L30.0563 23.9196C28.5823 22.7576 27.4143 21.1666 26.8593 19.3646C26.2773 17.4946 26.4023 15.3966 27.4113 13.6936M31.6433 13.5426C30.7503 14.8586 30.6633 16.4906 31.2833 17.9426C31.9363 19.4846 33.2763 20.6936 34.8403 21.2676L35.0353 21.3356L35.1203 21.3626C35.2133 21.3906 35.3033 21.4246 35.3983 21.4426C39.7203 22.2776 40.8933 19.2256 41.2053 18.7756C40.1783 20.2546 38.4523 20.6086 36.3353 20.0946C36.1673 20.0546 35.9853 19.9946 35.8233 19.9366C35.6153 19.8626 35.4133 19.7796 35.2153 19.6846C34.8393 19.5036 34.4813 19.2856 34.1493 19.0336C32.2533 17.5966 31.0773 14.8546 32.3133 12.6206" fill="white"/>
<path d="M30.6701 39.6125H29.4651C29.3991 39.6125 29.3311 39.6655 29.3181 39.7315L28.8901 41.7105L28.4631 43.6895C28.4481 43.7535 28.3811 43.8085 28.3161 43.8085H27.4621C26.6191 43.8085 26.7151 43.2245 26.8891 42.4255L26.8941 42.4015L26.9141 42.3005L26.9171 42.2815L26.9561 42.0755L26.9971 41.8555L27.0411 41.6305L27.2351 40.6815L27.4291 39.7315C27.4431 39.6655 27.3991 39.6115 27.3321 39.6115H26.0951C26.0301 39.6115 25.9621 39.6655 25.9491 39.7315L25.6831 40.9925L25.4161 42.2545L25.3921 42.3735C25.0861 43.7715 25.1661 45.1055 26.8311 45.1465H26.8791H29.4911C29.5581 45.1465 29.6251 45.0925 29.6381 45.0295L30.2021 42.3805L30.7641 39.7315C30.7811 39.6655 30.7361 39.6125 30.6701 39.6125ZM17.7661 39.5985H16.4441C16.3771 39.5985 16.3101 39.6515 16.2951 39.7165L16.1701 40.2705L16.0461 40.8255C16.0311 40.8895 16.0721 40.9435 16.1411 40.9435H17.4731C17.5401 40.9435 17.6071 40.8895 17.6211 40.8245L17.7421 40.2705L17.8641 39.7185C17.8761 39.6525 17.8331 39.5985 17.7661 39.5985ZM17.3811 41.3215H16.0491C15.9821 41.3215 15.9151 41.3755 15.9001 41.4405L15.7121 42.2705L15.5251 43.1005L15.4731 43.3375L15.2931 44.1845L15.1131 45.0325C15.0981 45.0965 15.0701 45.2035 15.0491 45.2665C15.0491 45.2665 14.7991 46.0065 14.3811 45.9995L14.3271 45.9985L13.9661 45.9915C13.9001 45.9905 13.8311 46.0425 13.8161 46.1065L13.6781 46.6895L13.5401 47.2705C13.5241 47.3345 13.5651 47.3885 13.6331 47.3905C13.8711 47.3925 14.4041 47.3995 14.7251 47.3995C15.7721 47.3995 16.3231 46.8195 16.6771 45.1505L17.0911 43.2355L17.4781 41.4395C17.4931 41.3755 17.4491 41.3215 17.3811 41.3215ZM41.9381 40.8725L41.8811 40.6445L41.8271 40.4105L41.8001 40.2925C41.6921 39.8705 41.3741 39.6275 40.6821 39.6275L39.6081 39.6265L38.6191 39.6255H37.5051C37.4371 39.6255 37.3721 39.6795 37.3581 39.7455L37.3091 39.9775L37.2511 40.2525L37.2331 40.3305L36.7331 42.6795L36.2551 44.9105C36.24 44.9755 36.2361 45.0555 36.2441 45.0885C36.2531 45.1225 36.3811 45.1485 36.4481 45.1485H37.4521C37.5191 45.1485 37.6031 45.1355 37.6401 45.1225C37.6761 45.1075 37.7301 44.9765 37.7441 44.9105L37.9231 44.0265L38.1031 43.1445L38.1261 43.0255L38.3431 42.0095L38.5341 41.1125C38.5491 41.0475 38.6151 40.9945 38.6811 40.9945L41.8431 40.9935C41.9101 40.9915 41.9541 40.9385 41.9381 40.8725ZM46.0091 38.8085L45.7661 38.8095H44.7531C44.6861 38.8095 44.6001 38.8545 44.5641 38.9095L42.3251 42.1885C42.2891 42.2435 42.2451 42.2355 42.2291 42.1705L42.0631 41.4495C42.0501 41.3845 41.9831 41.3305 41.9161 41.3305H40.4781C40.4101 41.3305 40.3701 41.3825 40.3891 41.4465L41.0341 43.7045C41.0531 43.7685 41.0551 43.8735 41.0371 43.9405L40.7561 45.0325C40.7401 45.0975 40.7801 45.1505 40.8471 45.1505H42.2711C42.3361 45.1505 42.4061 45.0975 42.4211 45.0325L42.7031 43.9405C42.7201 43.8745 42.7651 43.7785 42.8061 43.7245L46.4401 38.9025C46.4811 38.8495 46.4591 38.8055 46.3931 38.8055L46.0091 38.8085ZM34.5781 41.6365V41.6355C34.5701 41.7085 34.5021 41.7625 34.4351 41.7625H32.6111C32.5481 41.7625 32.5151 41.7195 32.5251 41.6665L32.5261 41.6625H32.5251L32.5261 41.6565L32.5341 41.6255C32.7091 41.1615 33.0641 40.8575 33.7301 40.8575C34.4821 40.8575 34.6291 41.2245 34.5781 41.6365ZM34.0421 39.5305C31.7011 39.5305 31.1461 40.9525 30.8351 42.3865C30.5231 43.8485 30.5501 45.2175 32.9741 45.2175H33.2681L33.3401 45.2165H33.3581H33.6471H33.6531C34.2931 45.2125 34.9341 45.2085 35.1941 45.2055C35.2601 45.2055 35.3251 45.1515 35.3391 45.0865L35.4381 44.6065L35.4571 44.5135L35.5741 43.9415C35.5881 43.8775 35.5451 43.8235 35.4771 43.8235H33.2981C32.4331 43.8235 32.1761 43.5935 32.2711 42.9165H35.7521H35.7541C35.8101 42.9155 35.8601 42.8775 35.8811 42.8275L35.8901 42.7965C36.4061 40.8455 36.2581 39.5315 34.0421 39.5305ZM22.9771 41.6305L22.9441 41.7465L22.6801 42.6785L22.4171 43.6105C22.3981 43.6755 22.3291 43.7275 22.2621 43.7275H20.8711C19.8151 43.7275 19.5591 42.9015 19.8151 41.6845C20.0711 40.4395 20.5761 39.6645 21.6141 39.5865C23.0351 39.4795 23.3191 40.4775 22.9771 41.6305ZM23.9321 43.6555C23.9321 43.6555 24.5871 42.0625 24.7361 41.1415C24.9401 39.9105 24.3241 38.1235 21.9411 38.1235C19.5731 38.1235 18.5451 39.8305 18.1521 41.6835C17.7591 43.5525 18.2731 45.1905 20.6291 45.1755L22.4871 45.1685L24.2221 45.1615C24.2881 45.1615 24.3581 45.1085 24.3751 45.0435L24.6781 43.8895C24.6941 43.8255 24.6541 43.7725 24.5861 43.7705L24.2971 43.7695L24.0061 43.7675C23.9501 43.7675 23.9171 43.7295 23.9241 43.6815L23.9321 43.6555ZM35.6561 42.5885C35.6561 42.6325 35.6201 42.6695 35.5751 42.6695C35.5311 42.6695 35.4961 42.6325 35.4961 42.5885C35.4961 42.5445 35.5311 42.5095 35.5751 42.5095C35.6201 42.5095 35.6561 42.5445 35.6561 42.5885Z" fill="white"/>
</svg>
