<svg width="60" height="61" viewBox="0 0 60 61" fill="none" xmlns="http://www.w3.org/2000/svg">
<path d="M29.9999 58.0876C45.5069 58.0876 58.0779 45.5167 58.0779 30.0096C58.0779 14.5026 45.5069 1.93164 29.9999 1.93164C14.4928 1.93164 1.92188 14.5026 1.92188 30.0096C1.92188 45.5167 14.4928 58.0876 29.9999 58.0876Z" fill="#1572B6"/>
<path d="M29.999 60.0095C13.457 60.0095 0 46.5515 0 30.0095C0 13.4675 13.457 0.00952148 29.999 0.00952148C46.541 0.00952148 59.999 13.4675 59.999 30.0095C59.999 46.5515 46.541 60.0095 29.999 60.0095ZM29.999 3.85552C15.577 3.85552 3.846 15.5875 3.846 30.0095C3.846 44.4305 15.577 56.1635 29.999 56.1635C44.421 56.1635 56.153 44.4315 56.153 30.0095C56.153 15.5875 44.421 3.85552 29.999 3.85552Z" fill="#33A9DC"/>
<path d="M30.0082 15.0095H19.6152L19.7122 15.6905L19.8992 17.4275L19.9812 18.0095H30.0082H35.6442L35.2712 23.0095H29.8542H24.9862L25.0832 23.8335L25.2712 25.9995L25.3532 27.0095H29.8542H34.9072L34.4962 32.0875L30.0002 33.2805V34.0095H29.8602L25.3022 32.5265L25.0102 29.0095H20.9012L21.4752 35.2295L29.9262 37.4545L30.0002 37.3495V37.3505L38.3222 35.0255L38.3522 34.5625L39.0312 27.0095H39.0222L40.0232 15.9185L40.1192 15.0095H30.0082Z" fill="white"/>
<path d="M39.2732 44.0364H36.5582L39.3812 47.0984V48.5554H33.5682V46.8484H36.3902L33.5682 43.7854V42.3274H39.2732V44.0364ZM32.4162 44.0364H29.7032L32.5242 47.0984V48.5554H26.7122V46.8484H29.5342L26.7122 43.7854V42.3274H32.4162V44.0364ZM25.6262 44.1044H22.6992V46.7754H25.6272V48.5544H20.6172V42.3254H25.6272L25.6262 44.1044Z" fill="white"/>
</svg>
