<svg width="60" height="61" viewBox="0 0 60 61" fill="none" xmlns="http://www.w3.org/2000/svg">
<path d="M29.9999 58.0866C45.5064 58.0866 58.0769 45.5161 58.0769 30.0096C58.0769 14.5031 45.5064 1.93262 29.9999 1.93262C14.4934 1.93262 1.92285 14.5031 1.92285 30.0096C1.92285 45.5161 14.4934 58.0866 29.9999 58.0866Z" fill="#E44D26"/>
<path d="M30 60.0095C13.457 60.0095 0 46.5515 0 30.0095C0 13.4675 13.458 0.00952148 30 0.00952148C46.541 0.00952148 60 13.4675 60 30.0095C60 46.5515 46.542 60.0095 30 60.0095ZM30 3.85552C15.578 3.85552 3.846 15.5875 3.846 30.0095C3.846 44.4305 15.578 56.1635 30 56.1635C44.421 56.1635 56.154 44.4315 56.154 30.0095C56.154 15.5875 44.421 3.85552 30 3.85552Z" fill="#F48454"/>
<path d="M17.689 42.3296H19.768V44.3846H21.672V42.3296H23.753V48.5546H21.672V46.4696H19.768V48.5546H17.687V42.3296H17.689ZM26.488 44.3936H24.656V42.3296H30.401V44.3936H28.568V48.5546H26.488V44.3936ZM31.312 42.3296H33.48L34.815 44.5176L36.148 42.3296H38.318V48.5546H36.245V45.4696L34.815 47.6806H34.779L33.347 45.4696V48.5536H31.311L31.312 42.3296ZM39.354 42.3296H41.435V46.4976H44.36V48.5546H39.354V42.3296Z" fill="white"/>
<path d="M30.3968 15.0095H30.3818H20.1328L20.2298 15.9185L21.2348 27.0095H30.7768H35.4218L34.9478 32.2175L30.3968 33.3955L30.2018 33.3705L29.9998 33.3935V34.0095H30.3788L25.8208 32.5255L25.5288 29.0095H21.4198L21.9938 35.3585L30.1808 37.6475L29.9998 37.6035V37.6025L38.5748 35.2805L38.7368 34.5895L39.7468 23.9595L39.8968 23.0095H38.7918H30.3968H30.3818H24.9788L24.6068 19.0095H30.7768H40.2698L40.3518 17.8465L40.5398 15.9395L40.6368 15.0095H30.3968Z" fill="white"/>
</svg>
