<svg width="61" height="61" viewBox="0 0 61 61" fill="none" xmlns="http://www.w3.org/2000/svg">
<path d="M30.9969 58.0866C46.5034 58.0866 59.0739 45.5161 59.0739 30.0096C59.0739 14.5031 46.5034 1.93262 30.9969 1.93262C15.4904 1.93262 2.91992 14.5031 2.91992 30.0096C2.91992 45.5161 15.4904 58.0866 30.9969 58.0866Z" fill="#CD6699"/>
<path d="M30.997 60.0095C14.455 60.0095 0.998047 46.5515 0.998047 30.0095C0.998047 13.4675 14.455 0.00952148 30.997 0.00952148C47.539 0.00952148 60.997 13.4675 60.997 30.0095C60.997 46.5515 47.539 60.0095 30.997 60.0095ZM30.997 3.85552C16.575 3.85552 4.84405 15.5875 4.84405 30.0095C4.84405 44.4305 16.575 56.1635 30.997 56.1635C45.418 56.1635 57.151 44.4315 57.151 30.0095C57.151 15.5875 45.418 3.85552 30.997 3.85552Z" fill="#E1A3C2"/>
<path d="M26.3589 30.0926C26.4219 29.9666 26.6189 29.9036 26.7619 29.8196C27.3359 29.4856 27.9149 29.1536 28.5079 28.8146C30.2039 27.7466 30.6489 26.3106 30.6489 26.3106C29.4259 26.9766 26.9789 28.2816 25.7589 28.9526C25.6259 29.0276 25.5289 29.0056 25.4319 28.9036C24.8179 28.2466 24.0989 27.7026 23.3949 27.1516C22.4089 26.3806 21.3869 25.6506 20.5359 24.7206C20.0389 24.1766 19.6219 23.5816 19.4139 22.8626C19.0749 21.6866 19.3279 20.5896 19.8929 19.5496C20.5589 18.3186 21.5479 17.3676 22.6399 16.5196C24.3739 15.1756 26.2749 14.1086 28.2799 13.2296C30.5239 12.2466 32.8499 11.6126 35.3309 11.7086C36.3129 11.7466 37.2659 11.9166 38.1429 12.3966C38.7609 12.7376 39.1699 13.2296 39.2869 13.9516C39.4249 14.7966 39.2209 15.5766 38.8459 16.3176C38.0079 17.9726 36.6749 19.1436 35.0999 20.0616C33.7879 20.8246 32.3739 21.3106 30.8759 21.5636C30.0479 21.7056 29.2189 21.7906 28.3849 21.6636C27.4309 21.5176 26.5479 21.1996 25.8939 20.4296C25.8199 20.3416 25.7239 20.2796 25.5949 20.3416C25.4639 20.4056 25.4749 20.5236 25.4869 20.6336C25.4959 20.7106 25.5149 20.7886 25.5439 20.8626C25.7199 21.3326 26.0469 21.6896 26.4289 21.9996C27.4249 22.8106 28.6069 23.0476 29.8449 23.0726C31.0579 23.0966 32.2529 22.9426 33.4339 22.6606C36.1009 22.0226 38.3319 20.7156 39.9639 18.4736C40.9389 17.1326 41.5549 15.6576 41.5009 13.9686C41.4649 12.8966 41.1049 11.9506 40.3239 11.1816C39.3949 10.2686 38.2429 9.80858 37.0069 9.53358C35.6289 9.22758 34.2369 9.18358 32.8339 9.35158C31.6119 9.49758 30.4169 9.74758 29.2559 10.1486C27.4769 10.7616 25.7579 11.5146 24.1129 12.4296C22.4289 13.3676 20.8409 14.4396 19.4499 15.7846C18.2179 16.9726 17.1579 18.2856 16.5609 19.9166C16.3049 20.6136 16.1239 21.3296 16.2939 22.0846C16.5119 23.0556 16.9909 23.8956 17.6199 24.6546C18.5719 25.8036 19.7399 26.7086 20.9449 27.5726C21.9119 28.2656 22.9249 28.8986 23.8539 29.6456C24.1169 29.8556 24.1149 29.8556 23.8049 30.0186C23.4429 30.2076 23.0779 30.3886 22.7209 30.5906C21.2869 31.4026 19.9009 32.2806 18.7659 33.5036C18.2079 34.1046 17.8309 34.7826 17.6559 35.5316C17.3519 36.4836 17.8039 37.6136 18.4099 38.1176C19.0469 38.6486 20.4629 38.9836 21.6299 38.7946C23.7449 38.6296 24.6459 37.9836 25.8429 36.1626C26.4199 35.2856 26.6899 34.2906 26.7929 33.2416C26.8819 32.3176 26.7879 31.4216 26.5159 30.5396C26.4679 30.3846 26.2909 30.2296 26.3589 30.0926ZM25.1149 32.3136C25.1799 34.4056 23.6599 36.4406 21.7799 37.1066C21.4259 37.2316 21.0549 37.2856 20.6759 37.2566C20.2069 37.2176 19.9079 36.8876 19.8779 36.3886C19.8449 35.8126 20.0149 35.2936 20.2649 34.7886C20.7239 33.8726 21.4929 33.2486 22.2749 32.6386C23.0369 32.0446 23.8579 31.5366 24.6859 31.0446C24.9379 30.8956 24.9419 30.8966 24.9979 31.1946C25.0739 31.5796 25.1409 31.9656 25.1149 32.3136Z" fill="#F2F2F2"/>
<path d="M25.604 47.1385C25.604 47.5865 25.521 47.9765 25.355 48.3165C25.19 48.6535 24.963 48.9335 24.68 49.1585C24.397 49.3855 24.065 49.5535 23.684 49.6665C23.303 49.7815 22.896 49.8375 22.463 49.8375C22.169 49.8375 21.898 49.8125 21.646 49.7655C21.395 49.7185 21.17 49.6595 20.98 49.5925C20.789 49.5225 20.628 49.4525 20.496 49.3775C20.367 49.3015 20.276 49.2375 20.219 49.1805C20.163 49.1235 20.12 49.0435 20.098 48.9355C20.073 48.8295 20.062 48.6745 20.062 48.4725C20.062 48.3375 20.064 48.2235 20.076 48.1305C20.085 48.0405 20.101 47.9655 20.116 47.9085C20.138 47.8505 20.166 47.8095 20.195 47.7865C20.231 47.7615 20.266 47.7505 20.311 47.7505C20.373 47.7505 20.459 47.7865 20.569 47.8585C20.681 47.9325 20.824 48.0105 21 48.0975C21.175 48.1845 21.386 48.2645 21.625 48.3375C21.869 48.4105 22.154 48.4455 22.472 48.4455C22.679 48.4455 22.867 48.4185 23.034 48.3685C23.202 48.3175 23.342 48.2475 23.459 48.1555C23.575 48.0635 23.662 47.9495 23.724 47.8145C23.785 47.6775 23.818 47.5255 23.818 47.3605C23.818 47.1675 23.765 47.0035 23.658 46.8645C23.555 46.7285 23.415 46.6055 23.249 46.4975C23.082 46.3885 22.89 46.2895 22.676 46.1965C22.462 46.1035 22.239 46.0025 22.013 45.8965C21.785 45.7925 21.566 45.6745 21.353 45.5405C21.136 45.4075 20.946 45.2485 20.78 45.0605C20.61 44.8745 20.474 44.6585 20.369 44.4005C20.263 44.1495 20.211 43.8445 20.211 43.4905C20.211 43.0835 20.288 42.7245 20.435 42.4165C20.588 42.1085 20.793 41.8515 21.049 41.6485C21.301 41.4465 21.606 41.2935 21.954 41.1915C22.299 41.0935 22.667 41.0435 23.058 41.0435C23.261 41.0435 23.463 41.0575 23.661 41.0885C23.864 41.1185 24.053 41.1615 24.226 41.2135C24.403 41.2645 24.557 41.3245 24.694 41.3895C24.828 41.4555 24.919 41.5115 24.963 41.5545C25.007 41.5985 25.034 41.6345 25.051 41.6655C25.068 41.6965 25.079 41.7375 25.089 41.7885C25.099 41.8395 25.109 41.9025 25.113 41.9775C25.115 42.0545 25.118 42.1505 25.118 42.2635C25.118 42.3915 25.115 42.4985 25.108 42.5845C25.101 42.6715 25.091 42.7445 25.079 42.8035C25.06 42.8605 25.038 42.9005 25.012 42.9275C24.983 42.9535 24.947 42.9675 24.896 42.9675C24.847 42.9675 24.772 42.9365 24.666 42.8755C24.562 42.8145 24.431 42.7465 24.28 42.6755C24.126 42.6025 23.947 42.5385 23.748 42.4775C23.546 42.4195 23.326 42.3905 23.086 42.3905C22.899 42.3905 22.732 42.4145 22.594 42.4605C22.454 42.5065 22.337 42.5685 22.241 42.6485C22.149 42.7295 22.078 42.8295 22.034 42.9405C21.984 43.0555 21.963 43.1745 21.963 43.3015C21.963 43.4895 22.015 43.6525 22.115 43.7895C22.221 43.9285 22.355 44.0505 22.532 44.1565C22.703 44.2645 22.899 44.3665 23.117 44.4585C23.338 44.5525 23.559 44.6505 23.785 44.7565C24.014 44.8625 24.236 44.9835 24.456 45.1145C24.676 45.2475 24.868 45.4065 25.039 45.5945C25.21 45.7785 25.347 45.9975 25.453 46.2505C25.554 46.5025 25.604 46.7985 25.604 47.1385Z" fill="white"/>
<path d="M31.2552 48.5314C31.2552 48.6474 31.2532 48.7394 31.2452 48.8174C31.2392 48.8944 31.2312 48.9584 31.2192 49.0094C31.2092 49.0634 31.1942 49.1054 31.1782 49.1384C31.1642 49.1724 31.1292 49.2124 31.0782 49.2644C31.0262 49.3124 30.9372 49.3754 30.8082 49.4474C30.6792 49.5194 30.5372 49.5834 30.3732 49.6404C30.2132 49.6994 30.0382 49.7444 29.8492 49.7784C29.6582 49.8124 29.4612 49.8314 29.2592 49.8314C28.8092 49.8314 28.4082 49.7604 28.0632 49.6204C27.7132 49.4814 27.4212 49.2724 27.1862 48.9994C26.9512 48.7264 26.7702 48.3954 26.6502 47.9994C26.5292 47.6054 26.4702 47.1554 26.4702 46.6494C26.4702 46.0624 26.5442 45.5544 26.6892 45.1304C26.8352 44.7034 27.0422 44.3514 27.3032 44.0694C27.5682 43.7904 27.8782 43.5834 28.2372 43.4454C28.5942 43.3114 28.9882 43.2434 29.4182 43.2434C29.5942 43.2434 29.7622 43.2594 29.9312 43.2874C30.1012 43.3184 30.2592 43.3624 30.4042 43.4144C30.5502 43.4674 30.6832 43.5244 30.8002 43.5934C30.9162 43.6564 30.9962 43.7144 31.0472 43.7624C31.0932 43.8094 31.1242 43.8504 31.1482 43.8834C31.1682 43.9154 31.1792 43.9604 31.1912 44.0114C31.2032 44.0624 31.2122 44.1294 31.2172 44.2054C31.2242 44.2824 31.2302 44.3744 31.2302 44.4844C31.2302 44.7374 31.2052 44.9164 31.1632 45.0204C31.1182 45.1214 31.0622 45.1724 30.9902 45.1724C30.9172 45.1724 30.8382 45.1444 30.7542 45.0814C30.6722 45.0194 30.5702 44.9514 30.4612 44.8784C30.3462 44.8024 30.2112 44.7374 30.0542 44.6754C29.8962 44.6144 29.7082 44.5824 29.4902 44.5824C29.0602 44.5824 28.7312 44.7474 28.5062 45.0784C28.2782 45.4104 28.1652 45.8934 28.1652 46.5324C28.1652 46.8464 28.1922 47.1254 28.2512 47.3654C28.3062 47.6044 28.3902 47.8084 28.5022 47.9694C28.6142 48.1324 28.7532 48.2544 28.9232 48.3344C29.0902 48.4144 29.2862 48.4564 29.5092 48.4564C29.7392 48.4564 29.9312 48.4214 30.0962 48.3544C30.2582 48.2874 30.4052 48.2114 30.5282 48.1274C30.6512 48.0444 30.7542 47.9694 30.8372 47.9004C30.9192 47.8334 30.9892 47.7994 31.0482 47.7994C31.0862 47.7994 31.1182 47.8124 31.1462 47.8334C31.1712 47.8544 31.1902 47.8954 31.2082 47.9544C31.2262 48.0124 31.2352 48.0874 31.2422 48.1804C31.2502 48.2694 31.2552 48.3884 31.2552 48.5314Z" fill="white"/>
<path d="M36.572 47.8115C36.572 48.1435 36.508 48.4355 36.384 48.6895C36.259 48.9415 36.085 49.1545 35.856 49.3265C35.627 49.4965 35.36 49.6245 35.048 49.7105C34.737 49.7965 34.4 49.8375 34.036 49.8375C33.819 49.8375 33.608 49.8215 33.413 49.7885C33.214 49.7575 33.035 49.7135 32.877 49.6635C32.721 49.6125 32.588 49.5615 32.483 49.5095C32.378 49.4575 32.3 49.4055 32.251 49.3615C32.204 49.3145 32.168 49.2445 32.143 49.1455C32.117 49.0465 32.103 48.8995 32.103 48.7065C32.103 48.5815 32.108 48.4775 32.117 48.4025C32.125 48.3265 32.138 48.2655 32.156 48.2175C32.173 48.1735 32.195 48.1415 32.222 48.1265C32.246 48.1105 32.282 48.1035 32.319 48.1035C32.368 48.1035 32.438 48.1285 32.533 48.1835C32.627 48.2375 32.743 48.2995 32.884 48.3665C33.025 48.4315 33.185 48.4945 33.372 48.5515C33.559 48.6085 33.769 48.6355 34.005 48.6355C34.156 48.6355 34.287 48.6195 34.402 48.5915C34.518 48.5595 34.62 48.5145 34.704 48.4595C34.787 48.4015 34.852 48.3305 34.898 48.2435C34.94 48.1555 34.964 48.0565 34.964 47.9405C34.964 47.8095 34.921 47.6995 34.84 47.6025C34.761 47.5105 34.653 47.4275 34.521 47.3575C34.387 47.2865 34.233 47.2225 34.067 47.1615C33.899 47.1005 33.726 47.0335 33.547 46.9565C33.371 46.8835 33.198 46.7975 33.031 46.7025C32.859 46.6065 32.711 46.4885 32.58 46.3475C32.445 46.2085 32.339 46.0395 32.256 45.8435C32.175 45.6475 32.134 45.4105 32.134 45.1345C32.134 44.8555 32.189 44.5975 32.299 44.3635C32.408 44.1285 32.565 43.9285 32.772 43.7625C32.978 43.5955 33.228 43.4685 33.524 43.3745C33.818 43.2845 34.151 43.2375 34.518 43.2375C34.702 43.2375 34.878 43.2505 35.05 43.2765C35.225 43.3035 35.381 43.3355 35.522 43.3745C35.66 43.4135 35.78 43.4575 35.876 43.5015C35.971 43.5475 36.039 43.5885 36.081 43.6225C36.124 43.6545 36.152 43.6875 36.169 43.7185C36.188 43.7535 36.199 43.7915 36.209 43.8385C36.216 43.8845 36.226 43.9405 36.231 44.0095C36.238 44.0765 36.242 44.1615 36.242 44.2605C36.242 44.3805 36.238 44.4755 36.231 44.5495C36.225 44.6235 36.211 44.6825 36.199 44.7275C36.183 44.7715 36.162 44.8015 36.137 44.8165C36.111 44.8325 36.078 44.8375 36.043 44.8375C36.008 44.8375 35.945 44.8165 35.859 44.7685C35.778 44.7245 35.673 44.6755 35.547 44.6205C35.421 44.5695 35.277 44.5205 35.113 44.4745C34.949 44.4295 34.763 44.4055 34.554 44.4055C34.406 44.4055 34.276 44.4225 34.164 44.4515C34.056 44.4815 33.968 44.5265 33.898 44.5835C33.826 44.6405 33.771 44.7075 33.737 44.7835C33.703 44.8595 33.685 44.9425 33.685 45.0285C33.685 45.1635 33.727 45.2775 33.81 45.3695C33.892 45.4615 34.004 45.5425 34.139 45.6125C34.277 45.6835 34.429 45.7485 34.6 45.8105C34.776 45.8715 34.948 45.9385 35.126 46.0085C35.303 46.0815 35.477 46.1655 35.651 46.2615C35.825 46.3575 35.976 46.4765 36.113 46.6155C36.25 46.7565 36.358 46.9215 36.442 47.1165C36.527 47.3115 36.572 47.5435 36.572 47.8115Z" fill="white"/>
<path d="M41.9339 47.8115C41.9339 48.1435 41.8689 48.4355 41.7449 48.6895C41.6209 48.9415 41.4449 49.1545 41.2189 49.3265C40.9899 49.4965 40.7219 49.6245 40.4099 49.7105C40.0999 49.7965 39.7619 49.8375 39.3979 49.8375C39.1809 49.8375 38.9709 49.8215 38.7719 49.7885C38.5759 49.7575 38.3929 49.7135 38.2389 49.6635C38.0779 49.6125 37.9489 49.5615 37.8449 49.5095C37.7389 49.4575 37.6599 49.4055 37.6159 49.3615C37.5659 49.3145 37.5299 49.2445 37.5039 49.1455C37.4789 49.0465 37.4629 48.8995 37.4629 48.7065C37.4629 48.5815 37.4679 48.4775 37.4789 48.4025C37.4869 48.3265 37.4999 48.2655 37.5179 48.2175C37.5349 48.1735 37.5559 48.1415 37.5809 48.1265C37.6059 48.1105 37.6429 48.1035 37.6809 48.1035C37.7299 48.1035 37.8019 48.1285 37.8949 48.1835C37.9889 48.2375 38.1049 48.2995 38.2459 48.3665C38.3859 48.4315 38.5489 48.4945 38.7369 48.5515C38.9209 48.6085 39.1319 48.6355 39.3679 48.6355C39.5149 48.6355 39.6489 48.6195 39.7629 48.5915C39.8779 48.5595 39.9829 48.5145 40.0659 48.4595C40.1499 48.4035 40.2139 48.3305 40.2589 48.2435C40.3029 48.1555 40.3239 48.0565 40.3239 47.9405C40.3239 47.8095 40.2839 47.6995 40.2029 47.6025C40.1229 47.5095 40.0149 47.4275 39.8809 47.3575C39.7499 47.2865 39.5969 47.2225 39.4299 47.1615C39.2619 47.1005 39.0869 47.0335 38.9109 46.9565C38.7339 46.8835 38.5609 46.7975 38.3919 46.7025C38.2239 46.6065 38.0739 46.4885 37.9399 46.3475C37.8059 46.2085 37.6999 46.0395 37.6189 45.8435C37.5379 45.6475 37.4969 45.4105 37.4969 45.1345C37.4969 44.8555 37.5519 44.5975 37.6619 44.3635C37.7689 44.1285 37.9299 43.9285 38.1349 43.7625C38.3379 43.5955 38.5899 43.4685 38.8869 43.3745C39.1809 43.2845 39.5139 43.2375 39.8809 43.2375C40.0649 43.2375 40.2409 43.2505 40.4169 43.2765C40.5879 43.3035 40.7439 43.3355 40.8819 43.3745C41.0249 43.4135 41.1409 43.4575 41.2379 43.5015C41.3319 43.5475 41.4019 43.5885 41.4419 43.6225C41.4859 43.6545 41.5159 43.6875 41.5329 43.7185C41.5509 43.7535 41.5599 43.7915 41.5719 43.8385C41.5789 43.8845 41.5889 43.9405 41.5949 44.0095C41.5999 44.0765 41.6039 44.1615 41.6039 44.2605C41.6039 44.3805 41.5999 44.4755 41.5949 44.5495C41.5879 44.6235 41.5739 44.6825 41.5619 44.7275C41.5459 44.7715 41.5249 44.8015 41.4999 44.8165C41.4749 44.8325 41.4419 44.8375 41.4069 44.8375C41.3699 44.8375 41.3079 44.8165 41.2229 44.7685C41.1399 44.7245 41.0369 44.6755 40.9119 44.6205C40.7849 44.5695 40.6409 44.5205 40.4789 44.4745C40.3129 44.4295 40.1269 44.4055 39.9169 44.4055C39.7679 44.4055 39.6389 44.4225 39.5279 44.4515C39.4199 44.4815 39.3309 44.5265 39.2589 44.5835C39.1899 44.6405 39.1349 44.7075 39.1009 44.7835C39.0689 44.8605 39.0489 44.9425 39.0489 45.0285C39.0489 45.1635 39.0889 45.2775 39.1739 45.3695C39.2539 45.4615 39.3649 45.5425 39.5019 45.6125C39.6389 45.6835 39.7919 45.7485 39.9639 45.8105C40.1399 45.8715 40.3119 45.9385 40.4889 46.0085C40.6659 46.0785 40.8409 46.1655 41.0149 46.2615C41.1859 46.3585 41.3409 46.4765 41.4759 46.6155C41.6139 46.7565 41.7189 46.9215 41.8059 47.1165C41.8909 47.3115 41.9339 47.5435 41.9339 47.8115Z" fill="white"/>
</svg>
