<svg width="61" height="61" viewBox="0 0 61 61" fill="none" xmlns="http://www.w3.org/2000/svg">
<path d="M30.9979 58.0876C46.505 58.0876 59.0759 45.5167 59.0759 30.0096C59.0759 14.5026 46.505 1.93164 30.9979 1.93164C15.4909 1.93164 2.91992 14.5026 2.91992 30.0096C2.91992 45.5167 15.4909 58.0876 30.9979 58.0876Z" fill="#007ACC"/>
<path d="M30.997 60.0095C14.454 60.0095 0.998047 46.5515 0.998047 30.0095C0.998047 13.4675 14.454 0.00952148 30.997 0.00952148C47.539 0.00952148 60.997 13.4675 60.997 30.0095C60.997 46.5515 47.539 60.0095 30.997 60.0095ZM30.997 3.85552C16.575 3.85552 4.84405 15.5875 4.84405 30.0095C4.84405 44.4305 16.575 56.1635 30.997 56.1635C45.419 56.1635 57.151 44.4315 57.151 30.0095C57.151 15.5875 45.419 3.85552 30.997 3.85552Z" fill="#66AFE0"/>
<path d="M37.256 14.6465L25.334 26.5845L17.806 20.6545L14.52 22.3285V37.6925L17.822 39.3665L25.396 33.4515L37.286 45.3725L45.169 42.1935V17.7185L37.256 14.6465ZM18.082 33.5435V26.3995L21.832 30.1335L18.082 33.5435ZM37.025 35.5245L29.881 30.0095L37.026 24.4935L37.025 35.5245Z" fill="white"/>
</svg>
