<svg width="61" height="61" viewBox="0 0 61 61" fill="none" xmlns="http://www.w3.org/2000/svg">
<path d="M30.9979 58.0866C46.5044 58.0866 59.0749 45.5161 59.0749 30.0096C59.0749 14.5031 46.5044 1.93262 30.9979 1.93262C15.4914 1.93262 2.9209 14.5031 2.9209 30.0096C2.9209 45.5161 15.4914 58.0866 30.9979 58.0866Z" fill="#DE4C36"/>
<path d="M30.998 60.0095C14.455 60.0095 0.998047 46.5515 0.998047 30.0095C0.998047 13.4675 14.455 0.00952148 30.998 0.00952148C47.54 0.00952148 60.998 13.4675 60.998 30.0095C60.998 46.5515 47.54 60.0095 30.998 60.0095ZM30.998 3.85552C16.576 3.85552 4.84405 15.5875 4.84405 30.0095C4.84405 44.4305 16.576 56.1635 30.998 56.1635C45.42 56.1635 57.152 44.4315 57.152 30.0095C57.152 15.5875 45.42 3.85552 30.998 3.85552Z" fill="#E98A7C"/>
<path d="M44.4699 23.7624L32.2447 11.5378C32.0773 11.3703 31.8785 11.2375 31.6597 11.1468C31.4409 11.0562 31.2064 11.0095 30.9696 11.0095C30.7328 11.0095 30.4983 11.0562 30.2795 11.1468C30.0608 11.2375 29.862 11.3703 29.6946 11.5378L27.156 14.0766L30.3763 17.2967C30.7548 17.168 31.1619 17.1479 31.5513 17.2386C31.9407 17.3293 32.2969 17.5273 32.5795 17.81C32.8637 18.0946 33.0621 18.4533 33.1521 18.8453C33.2421 19.2373 33.22 19.6467 33.0883 20.0267L36.1914 23.1303C36.9423 22.8717 37.8088 23.0391 38.4083 23.6397C38.6076 23.8389 38.7657 24.0754 38.8736 24.3357C38.9814 24.596 39.037 24.875 39.037 25.1568C39.037 25.4386 38.9814 25.7176 38.8736 25.9779C38.7657 26.2382 38.6076 26.4748 38.4083 26.6739C38.0576 27.0249 37.5962 27.2436 37.1025 27.2926C36.6087 27.3416 36.1133 27.2181 35.7004 26.9429C35.2876 26.6678 34.9828 26.258 34.8381 25.7835C34.6933 25.3089 34.7175 24.7988 34.9065 24.3401L32.0124 21.4459L32.0121 29.0625C32.2219 29.1662 32.4135 29.3033 32.5795 29.4683C32.7788 29.6675 32.9369 29.9041 33.0448 30.1644C33.1526 30.4248 33.2081 30.7038 33.2081 30.9857C33.2081 31.2675 33.1526 31.5465 33.0448 31.8069C32.9369 32.0673 32.7788 32.3038 32.5795 32.5031C31.7411 33.3415 30.3824 33.3415 29.5453 32.5031C29.2952 32.2532 29.1108 31.9453 29.0083 31.607C28.9059 31.2686 28.8887 30.9102 28.9582 30.5635C29.0276 30.2169 29.1817 29.8928 29.4067 29.62C29.6316 29.3473 29.9205 29.1344 30.2475 29.0002V21.3127C29.9844 21.2052 29.7456 21.0459 29.5453 20.8443C28.9103 20.2101 28.7576 19.2784 29.083 18.4986L25.9087 15.3237L17.5264 23.7056C17.3589 23.8731 17.226 24.072 17.1354 24.2908C17.0447 24.5097 16.998 24.7442 16.998 24.9811C16.998 25.218 17.0447 25.4526 17.1354 25.6714C17.226 25.8902 17.3589 26.0891 17.5264 26.2566L29.7516 38.4815C30.0898 38.8196 30.5484 39.0095 31.0267 39.0095C31.5049 39.0095 31.9635 38.8196 32.3017 38.4815L44.4699 26.3136C44.8081 25.9752 44.998 25.5164 44.998 25.038C44.998 24.5596 44.8081 24.1008 44.4699 23.7624Z" fill="white"/>
<path d="M26.8217 45.943C26.2101 45.943 25.7547 46.2409 25.7547 46.9578C25.7547 47.4979 26.0548 47.8729 26.7887 47.8729C27.4107 47.8729 27.8333 47.5093 27.8333 46.9353C27.8333 46.285 27.4552 45.943 26.8217 45.943ZM25.599 51.0049C25.4542 51.181 25.3099 51.3683 25.3099 51.5891C25.3099 52.0299 25.8766 52.1626 26.655 52.1626C27.2997 52.1626 28.178 52.1177 28.178 51.5231C28.178 51.1696 27.7555 51.1479 27.2216 51.1147L25.599 51.0049ZM28.8894 45.9763C29.0891 46.23 29.3007 46.583 29.3007 47.0901C29.3007 48.314 28.3335 49.0307 26.9331 49.0307C26.577 49.0307 26.2547 48.9867 26.0548 48.9316L25.6878 49.5159L26.7771 49.582C28.7004 49.7036 29.8339 49.7589 29.8339 51.2248C29.8339 52.4932 28.7115 53.2095 26.7771 53.2095C24.7651 53.2095 23.998 52.7023 23.998 51.8313C23.998 51.3351 24.2204 51.0709 24.6095 50.7064C24.2426 50.5526 24.1204 50.2771 24.1204 49.9791C24.1204 49.7363 24.2426 49.516 24.443 49.3062C24.643 49.097 24.8652 48.8873 25.132 48.6447C24.5874 48.3801 24.1759 47.8067 24.1759 46.9905C24.1759 45.7227 25.0209 44.8519 26.7214 44.8519C27.1995 44.8519 27.4886 44.8955 27.7443 44.9621H29.9122V45.899L28.8894 45.9763ZM31.8679 43.9725C31.2342 43.9725 30.8674 43.6084 30.8674 42.9796C30.8674 42.3517 31.2341 42.0095 31.8679 42.0095C32.5126 42.0095 32.8796 42.3517 32.8796 42.9796C32.8796 43.6084 32.5127 43.9725 31.8679 43.9725ZM30.4337 50.5991V49.7284L31.0008 49.6515C31.1565 49.6292 31.1786 49.5963 31.1786 49.4306V46.1887C31.1786 46.0677 31.1453 45.9901 31.0338 45.9574L30.4337 45.7476L30.5558 44.8547H32.8572V49.4306C32.8572 49.6072 32.8679 49.6292 33.0352 49.6516L33.602 49.7285V50.5991H30.4337ZM37.998 50.1716C37.5199 50.403 36.8196 50.6125 36.1857 50.6125C34.8629 50.6125 34.3629 50.0838 34.3629 48.8371V45.9485C34.3629 45.8824 34.3629 45.8382 34.2736 45.8382H33.4956V44.8566C34.4741 44.746 34.8629 44.2609 34.9852 43.0589H36.0414V44.6252C36.0414 44.7021 36.0414 44.7354 36.1304 44.7354H37.6977V45.838H36.0414V48.4733C36.0414 49.1238 36.1972 49.3772 36.7972 49.3772C37.1088 49.3772 37.4308 49.3003 37.6976 49.201L37.998 50.1716Z" fill="white"/>
</svg>
