<svg width="61" height="61" viewBox="0 0 61 61" fill="none" xmlns="http://www.w3.org/2000/svg">
<path d="M30.9969 58.0866C46.5034 58.0866 59.0739 45.5161 59.0739 30.0096C59.0739 14.5031 46.5034 1.93262 30.9969 1.93262C15.4904 1.93262 2.91992 14.5031 2.91992 30.0096C2.91992 45.5161 15.4904 58.0866 30.9969 58.0866Z" fill="#4B4B4B"/>
<path d="M30.9971 60.0095C14.4541 60.0095 0.99707 46.5515 0.99707 30.0095C0.99707 13.4675 14.4541 0.00952148 30.9971 0.00952148C47.5381 0.00952148 60.9961 13.4675 60.9961 30.0095C60.9961 46.5515 47.5381 60.0095 30.9971 60.0095ZM30.9971 3.85552C16.5751 3.85552 4.84307 15.5875 4.84307 30.0095C4.84307 44.4305 16.5751 56.1635 30.9971 56.1635C45.4181 56.1635 57.1501 44.4315 57.1501 30.0095C57.1501 15.5875 45.4181 3.85552 30.9971 3.85552Z" fill="#6F6F6F"/>
<path d="M42.9971 22.4165V14.9375C42.9971 14.6345 42.5131 14.4685 42.2091 14.5655L19.4131 21.7375C19.1401 21.8235 18.4881 22.0955 18.4461 22.3695C18.4411 22.3965 17.9971 22.4175 17.9971 22.4485V22.4595V29.9275V29.9395C17.9971 29.9725 18.3831 29.9965 18.3891 30.0255C18.4351 30.2965 18.8381 30.5625 19.1101 30.6495L29.0061 33.7505L18.8771 36.8515C18.5711 36.9475 17.9971 37.2715 17.9971 37.5735V45.0545C17.9971 45.3555 18.6201 45.5235 18.9241 45.4265L42.0221 38.2545C42.3281 38.1565 42.9971 37.8355 42.9971 37.5325V37.4495V30.0495V29.9685C42.9971 29.6665 42.5151 29.3435 42.2091 29.2475L32.4341 26.1925L42.2671 23.1385C42.5721 23.0415 42.9971 22.7175 42.9971 22.4165Z" fill="#FF9800"/>
</svg>
