<svg width="61" height="61" viewBox="0 0 61 61" fill="none" xmlns="http://www.w3.org/2000/svg">
<path d="M30.9969 58.0866C46.5034 58.0866 59.0739 45.5161 59.0739 30.0096C59.0739 14.5031 46.5034 1.93262 30.9969 1.93262C15.4904 1.93262 2.91992 14.5031 2.91992 30.0096C2.91992 45.5161 15.4904 58.0866 30.9969 58.0866Z" fill="url(#paint0_linear_267_1795)"/>
<path d="M30.9971 60.0095C14.4551 60.0095 0.99707 46.5515 0.99707 30.0095C0.99707 13.4675 14.4551 0.00952148 30.9971 0.00952148C47.5401 0.00952148 60.9981 13.4675 60.9981 30.0095C60.9981 46.5515 47.5401 60.0095 30.9971 60.0095ZM30.9971 3.85552C16.5761 3.85552 4.84307 15.5875 4.84307 30.0095C4.84307 44.4305 16.5761 56.1635 30.9971 56.1635C45.4191 56.1635 57.1511 44.4315 57.1511 30.0095C57.1511 15.5875 45.4191 3.85552 30.9971 3.85552Z" fill="#AA70F9"/>
<path d="M13.1719 42.4087H15.5599C15.9589 42.4087 16.2649 42.5087 16.4779 42.7047C16.6919 42.9027 16.7969 43.1467 16.7969 43.4377C16.7969 43.6817 16.7209 43.8917 16.5689 44.0657C16.4669 44.1817 16.3179 44.2737 16.1239 44.3417C16.4209 44.4127 16.6389 44.5347 16.7779 44.7087C16.9179 44.8827 16.9889 45.1007 16.9889 45.3637C16.9889 45.5777 16.9379 45.7707 16.8399 45.9407C16.7389 46.1127 16.6039 46.2477 16.4309 46.3467C16.3239 46.4087 16.1619 46.4537 15.9469 46.4817C15.6599 46.5197 15.4689 46.5377 15.3759 46.5377H13.1729V42.4087H13.1719ZM14.4589 44.0297H15.0149C15.2129 44.0297 15.3519 43.9957 15.4289 43.9267C15.5079 43.8587 15.5469 43.7597 15.5469 43.6287C15.5469 43.5087 15.5079 43.4147 15.4289 43.3477C15.3519 43.2797 15.2159 43.2457 15.0229 43.2457H14.4599V44.0297H14.4589ZM14.4589 45.6527H15.1089C15.3299 45.6527 15.4839 45.6137 15.5739 45.5357C15.6649 45.4577 15.7099 45.3527 15.7099 45.2217C15.7099 45.0997 15.6649 45.0017 15.5749 44.9267C15.4869 44.8527 15.3309 44.8157 15.1059 44.8157H14.4589V45.6527Z" fill="white"/>
<path d="M17.208 44.4766C17.208 43.8036 17.396 43.2776 17.771 42.9026C18.146 42.5276 18.669 42.3396 19.34 42.3396C20.026 42.3396 20.557 42.5236 20.927 42.8936C21.3 43.2626 21.486 43.7796 21.486 44.4436C21.486 44.9266 21.405 45.3216 21.243 45.6316C21.08 45.9406 20.846 46.1816 20.539 46.3536C20.231 46.5246 19.849 46.6106 19.391 46.6106C18.925 46.6106 18.54 46.5366 18.235 46.3886C17.929 46.2396 17.682 46.0056 17.493 45.6836C17.303 45.3616 17.208 44.9606 17.208 44.4766ZM18.483 44.4826C18.483 44.9006 18.561 45.1996 18.715 45.3816C18.87 45.5636 19.081 45.6546 19.348 45.6546C19.622 45.6546 19.833 45.5656 19.984 45.3866C20.134 45.2086 20.211 44.8876 20.211 44.4276C20.211 44.0386 20.132 43.7546 19.975 43.5746C19.819 43.3946 19.606 43.3046 19.338 43.3046C19.079 43.3046 18.873 43.3956 18.718 43.5786C18.561 43.7606 18.483 44.0626 18.483 44.4826Z" fill="white"/>
<path d="M21.7251 44.4766C21.7251 43.8036 21.9131 43.2776 22.2881 42.9026C22.6641 42.5276 23.1861 42.3396 23.8561 42.3396C24.5441 42.3396 25.0741 42.5236 25.4451 42.8936C25.8171 43.2626 26.0031 43.7796 26.0031 44.4436C26.0031 44.9266 25.9231 45.3216 25.7611 45.6316C25.5981 45.9406 25.3631 46.1816 25.0561 46.3536C24.7481 46.5246 24.3671 46.6106 23.9091 46.6106C23.4431 46.6106 23.0571 46.5366 22.7521 46.3886C22.4461 46.2396 22.2001 46.0056 22.0101 45.6836C21.8191 45.3616 21.7251 44.9606 21.7251 44.4766ZM23.0011 44.4826C23.0011 44.9006 23.0781 45.1996 23.2321 45.3816C23.3871 45.5636 23.5991 45.6546 23.8651 45.6546C24.1391 45.6546 24.3511 45.5656 24.5021 45.3866C24.6521 45.2086 24.7281 44.8876 24.7281 44.4276C24.7281 44.0386 24.6501 43.7546 24.4931 43.5746C24.3371 43.3946 24.1231 43.3046 23.8541 43.3046C23.5971 43.3046 23.3901 43.3956 23.2351 43.5786C23.0781 43.7606 23.0011 44.0626 23.0011 44.4826Z" fill="white"/>
<path d="M25.9629 42.4087H29.8419V43.4297H28.5409V46.5387H27.2649V43.4297H25.9629V42.4087Z" fill="white"/>
<path d="M29.9077 45.1726L31.1217 45.0966C31.1477 45.2936 31.2017 45.4446 31.2827 45.5476C31.4147 45.7146 31.6017 45.7986 31.8457 45.7986C32.0287 45.7986 32.1687 45.7556 32.2667 45.6706C32.3657 45.5846 32.4137 45.4856 32.4137 45.3736C32.4137 45.2666 32.3667 45.1706 32.2727 45.0856C32.1787 45.0016 31.9607 44.9216 31.6197 44.8466C31.0587 44.7206 30.6617 44.5536 30.4227 44.3456C30.1827 44.1366 30.0627 43.8716 30.0627 43.5486C30.0627 43.3366 30.1237 43.1356 30.2477 42.9466C30.3707 42.7586 30.5557 42.6096 30.8027 42.5016C31.0497 42.3946 31.3887 42.3396 31.8187 42.3396C32.3457 42.3396 32.7487 42.4376 33.0257 42.6336C33.3017 42.8296 33.4677 43.1426 33.5197 43.5706L32.3177 43.6406C32.2857 43.4556 32.2177 43.3206 32.1157 43.2356C32.0137 43.1516 31.8727 43.1086 31.6927 43.1086C31.5437 43.1086 31.4317 43.1406 31.3567 43.2036C31.2817 43.2656 31.2447 43.3426 31.2447 43.4336C31.2447 43.4986 31.2747 43.5586 31.3377 43.6106C31.3977 43.6656 31.5407 43.7156 31.7667 43.7616C32.3247 43.8826 32.7227 44.0036 32.9647 44.1266C33.2047 44.2496 33.3817 44.4016 33.4907 44.5846C33.6007 44.7666 33.6557 44.9696 33.6557 45.1956C33.6557 45.4606 33.5827 45.7046 33.4357 45.9276C33.2897 46.1516 33.0847 46.3206 32.8217 46.4366C32.5587 46.5516 32.2267 46.6096 31.8267 46.6096C31.1257 46.6096 30.6387 46.4746 30.3687 46.2046C30.0977 45.9336 29.9437 45.5896 29.9077 45.1726Z" fill="white"/>
<path d="M33.7197 42.4087H37.5987V43.4297H36.2977V46.5387H35.0207V43.4297H33.7197V42.4087Z" fill="white"/>
<path d="M37.9038 46.5387V42.4087H40.0308C40.4258 42.4087 40.7258 42.4437 40.9348 42.5117C41.1428 42.5787 41.3108 42.7037 41.4388 42.8867C41.5668 43.0697 41.6298 43.2927 41.6298 43.5557C41.6298 43.7847 41.5808 43.9827 41.4838 44.1487C41.3868 44.3147 41.2518 44.4497 41.0818 44.5527C40.9728 44.6187 40.8228 44.6727 40.6338 44.7167C40.7848 44.7667 40.8968 44.8187 40.9648 44.8687C41.0128 44.9027 41.0798 44.9757 41.1688 45.0857C41.2588 45.1977 41.3178 45.2827 41.3488 45.3427L41.9658 46.5387H40.5248L39.8428 45.2767C39.7558 45.1127 39.6798 45.0067 39.6118 44.9587C39.5198 44.8947 39.4158 44.8627 39.2988 44.8627H39.1868V46.5387H37.9038ZM39.1848 44.0827H39.7238C39.7818 44.0827 39.8938 44.0637 40.0618 44.0257C40.1458 44.0087 40.2148 43.9657 40.2688 43.8967C40.3218 43.8277 40.3488 43.7477 40.3488 43.6577C40.3488 43.5237 40.3068 43.4217 40.2208 43.3507C40.1378 43.2797 39.9788 43.2437 39.7458 43.2437H39.1838L39.1848 44.0827Z" fill="white"/>
<path d="M44.6249 45.8567H43.1779L42.9759 46.5387H41.6729L43.2249 42.4087H44.6169L46.1689 46.5387H44.8319L44.6249 45.8567ZM44.3599 44.9647L43.9039 43.4807L43.4539 44.9647H44.3599Z" fill="white"/>
<path d="M46.2788 42.4087H48.4008C48.8628 42.4087 49.2078 42.5187 49.4378 42.7387C49.6678 42.9587 49.7838 43.2717 49.7838 43.6767C49.7838 44.0937 49.6578 44.4197 49.4068 44.6547C49.1558 44.8897 48.7738 45.0067 48.2598 45.0067H47.5608V46.5387H46.2798L46.2788 42.4087ZM47.5598 44.1697H47.8728C48.1188 44.1697 48.2918 44.1277 48.3918 44.0427C48.4908 43.9577 48.5398 43.8477 48.5398 43.7137C48.5398 43.5847 48.4968 43.4737 48.4108 43.3837C48.3238 43.2937 48.1608 43.2487 47.9228 43.2487H47.5598V44.1697Z" fill="white"/>
<path d="M22.668 38.1236V13.3796H31.95C33.841 13.3796 35.357 13.6306 36.499 14.1306C37.641 14.6326 38.536 15.4026 39.183 16.4426C39.83 17.4846 40.154 18.5726 40.154 19.7096C40.154 20.7676 39.868 21.7636 39.294 22.6976C38.72 23.6306 37.854 24.3846 36.694 24.9586C38.19 25.3966 39.34 26.1456 40.146 27.2036C40.95 28.2616 41.353 29.5116 41.353 30.9506C41.353 32.1106 41.108 33.1876 40.618 34.1836C40.13 35.1786 39.524 35.9476 38.805 36.4866C38.084 37.0276 37.181 37.4346 36.095 37.7116C35.009 37.9866 33.679 38.1246 32.104 38.1246H22.668V38.1236ZM25.942 23.7776H31.293C32.744 23.7776 33.784 23.6816 34.414 23.4906C35.248 23.2426 35.875 22.8326 36.297 22.2586C36.719 21.6846 36.93 20.9636 36.93 20.0976C36.93 19.2756 36.733 18.5536 36.34 17.9286C35.944 17.3036 35.383 16.8766 34.652 16.6456C33.921 16.4156 32.666 16.3006 30.887 16.3006H25.943L25.942 23.7776ZM25.942 35.2036H32.102C33.16 35.2036 33.902 35.1646 34.331 35.0866C35.084 34.9516 35.715 34.7266 36.221 34.4106C36.727 34.0966 37.143 33.6366 37.47 33.0356C37.796 32.4326 37.959 31.7396 37.959 30.9506C37.959 30.0276 37.723 29.2266 37.251 28.5446C36.778 27.8646 36.123 27.3866 35.284 27.1096C34.446 26.8346 33.239 26.6956 31.663 26.6956H25.942V35.2036Z" fill="white"/>
<defs>
<linearGradient id="paint0_linear_267_1795" x1="11.2639" y1="3.41877" x2="68.3931" y2="39.5564" gradientUnits="userSpaceOnUse">
<stop stop-color="#9013FE"/>
<stop offset="1" stop-color="#6610F2"/>
</linearGradient>
</defs>
</svg>
