<svg width="60" height="61" viewBox="0 0 60 61" fill="none" xmlns="http://www.w3.org/2000/svg">
<path d="M29.9999 58.0866C45.5064 58.0866 58.0769 45.5161 58.0769 30.0096C58.0769 14.5031 45.5064 1.93262 29.9999 1.93262C14.4934 1.93262 1.92285 14.5031 1.92285 30.0096C1.92285 45.5161 14.4934 58.0866 29.9999 58.0866Z" fill="#994C0F"/>
<path d="M30 60.0095C13.458 60.0095 0 46.5515 0 30.0095C0 13.4675 13.458 0.00952148 30 0.00952148C46.542 0.00952148 60 13.4675 60 30.0095C60 46.5515 46.542 60.0095 30 60.0095ZM30 3.85552C15.579 3.85552 3.846 15.5885 3.846 30.0095C3.846 44.4305 15.579 56.1635 30 56.1635C44.422 56.1635 56.154 44.4305 56.154 30.0095C56.154 15.5885 44.421 3.85552 30 3.85552Z" fill="#FEC478"/>
<path d="M36.5499 41.4065H32.0839L30.3089 36.7875H22.1819L20.5039 41.4065H16.1499L24.0679 21.0745H28.4089L36.5499 41.4065ZM28.9919 33.3635L26.1909 25.8195L23.4449 33.3635H28.9919Z" fill="#FEC478"/>
<path d="M37.2798 24.6814V21.0754H41.1768V24.6814H37.2798ZM37.2798 41.4064V26.6784H41.1768V41.4074H37.2798V41.4064Z" fill="#FEC478"/>
</svg>
