<svg width="1440" height="200" viewBox="0 0 1440 200" fill="none" xmlns="http://www.w3.org/2000/svg">
<g clip-path="url(#clip0_321_1919)">
<rect width="1440" height="200" fill="#FFE1E4"/>
<path d="M329.285 229.13C347.615 229.13 362.474 214.271 362.474 195.941C362.474 177.611 347.615 162.752 329.285 162.752C310.955 162.752 296.096 177.611 296.096 195.941C296.096 214.271 310.955 229.13 329.285 229.13Z" fill="white"/>
<path d="M272.445 221.574C298.723 221.574 320.025 200.272 320.025 173.994C320.025 147.716 298.723 126.414 272.445 126.414C246.168 126.414 224.865 147.716 224.865 173.994C224.865 200.272 246.168 221.574 272.445 221.574Z" fill="white"/>
<path d="M571.435 219.288C589.765 219.288 604.624 204.429 604.624 186.099C604.624 167.769 589.765 152.91 571.435 152.91C553.105 152.91 538.246 167.769 538.246 186.099C538.246 204.429 553.105 219.288 571.435 219.288Z" fill="white"/>
<path d="M881.32 239.866C899.65 239.866 914.509 225.007 914.509 206.677C914.509 188.347 899.65 173.488 881.32 173.488C862.99 173.488 848.131 188.347 848.131 206.677C848.131 225.007 862.99 239.866 881.32 239.866Z" fill="white"/>
<path d="M1146.32 239.866C1164.65 239.866 1179.51 225.007 1179.51 206.677C1179.51 188.347 1164.65 173.488 1146.32 173.488C1127.99 173.488 1113.13 188.347 1113.13 206.677C1113.13 225.007 1127.99 239.866 1146.32 239.866Z" fill="white"/>
<path d="M207.07 233.366C222.5 233.366 235.009 220.857 235.009 205.427C235.009 189.997 222.5 177.488 207.07 177.488C191.64 177.488 179.131 189.997 179.131 205.427C179.131 220.857 191.64 233.366 207.07 233.366Z" fill="white"/>
<path d="M495.174 231.394C530.886 231.394 559.836 202.444 559.836 166.732C559.836 131.02 530.886 102.07 495.174 102.07C459.462 102.07 430.512 131.02 430.512 166.732C430.512 202.444 459.462 231.394 495.174 231.394Z" fill="white"/>
<path d="M766.929 286.2C816.531 286.2 856.741 245.99 856.741 196.388C856.741 146.786 816.531 106.576 766.929 106.576C717.327 106.576 677.117 146.786 677.117 196.388C677.117 245.99 717.327 286.2 766.929 286.2Z" fill="white"/>
<path d="M1065.92 242.622C1115.52 242.622 1155.73 202.412 1155.73 152.811C1155.73 103.21 1115.52 63 1065.92 63C1016.32 63 976.108 103.21 976.108 152.811C976.108 202.412 1016.32 242.622 1065.92 242.622Z" fill="white"/>
<path d="M403.026 233.209C430.632 233.209 453.011 211.169 453.011 183.981C453.011 156.793 430.632 134.753 403.026 134.753C375.42 134.753 353.041 156.793 353.041 183.981C353.041 211.169 375.42 233.209 403.026 233.209Z" fill="white"/>
<path d="M1185.45 206.982C1206.85 206.982 1224.19 189.639 1224.19 168.245C1224.19 146.851 1206.85 129.508 1185.45 129.508C1164.06 129.508 1146.72 146.851 1146.72 168.245C1146.72 189.639 1164.06 206.982 1185.45 206.982Z" fill="white"/>
<path d="M1248.1 221.709C1266.43 221.709 1281.29 206.85 1281.29 188.52C1281.29 170.19 1266.43 155.331 1248.1 155.331C1229.77 155.331 1214.91 170.19 1214.91 188.52C1214.91 206.85 1229.77 221.709 1248.1 221.709Z" fill="white"/>
<path d="M1224.1 234.709C1242.43 234.709 1257.29 219.85 1257.29 201.52C1257.29 183.19 1242.43 168.331 1224.1 168.331C1205.77 168.331 1190.91 183.19 1190.91 201.52C1190.91 219.85 1205.77 234.709 1224.1 234.709Z" fill="white"/>
<path d="M1320.57 233.209C1348.18 233.209 1370.56 211.169 1370.56 183.981C1370.56 156.793 1348.18 134.753 1320.57 134.753C1292.97 134.753 1270.59 156.793 1270.59 183.981C1270.59 211.169 1292.97 233.209 1320.57 233.209Z" fill="white"/>
<path d="M640.282 229.577C667.888 229.577 690.267 207.537 690.267 180.349C690.267 153.161 667.888 131.121 640.282 131.121C612.676 131.121 590.297 153.161 590.297 180.349C590.297 207.537 612.676 229.577 640.282 229.577Z" fill="white"/>
<path d="M1491.4 236.61C1491.4 278.06 1457.29 311.661 1415.2 311.661C1373.12 311.661 1339 278.06 1339 236.61C1339 195.164 1373.12 161.563 1415.2 161.563C1457.29 161.563 1491.4 195.164 1491.4 236.61Z" fill="white"/>
<path d="M87.4041 236.61C87.4041 278.06 53.288 311.661 11.203 311.661C-30.883 311.661 -65 278.06 -65 236.61C-65 195.164 -30.883 161.563 11.203 161.563C53.288 161.563 87.4041 195.164 87.4041 236.61Z" fill="white"/>
<path d="M944.113 233.209C971.718 233.209 994.097 211.169 994.097 183.981C994.097 156.793 971.718 134.753 944.113 134.753C916.508 134.753 894.129 156.793 894.129 183.981C894.129 211.169 916.508 233.209 944.113 233.209Z" fill="white"/>
<path d="M204.404 233.61C204.404 275.06 170.288 308.661 128.203 308.661C86.117 308.661 52 275.06 52 233.61C52 192.164 86.117 158.563 128.203 158.563C170.288 158.563 204.404 192.164 204.404 233.61Z" fill="white"/>
</g>
<defs>
<clipPath id="clip0_321_1919">
<rect width="1440" height="200" fill="white"/>
</clipPath>
</defs>
</svg>
