<?xml version="1.0" encoding="utf-8"?>
<!-- Generator: Adobe Illustrator 16.0.0, SVG Export Plug-In . SVG Version: 6.00 Build 0)  -->
<!DOCTYPE svg PUBLIC "-//W3C//DTD SVG 1.1//EN" "http://www.w3.org/Graphics/SVG/1.1/DTD/svg11.dtd">
<svg version="1.1" id="圖層_1" xmlns="http://www.w3.org/2000/svg" xmlns:xlink="http://www.w3.org/1999/xlink" x="0px" y="0px"
	 width="300px" height="180px" viewBox="0 0 300 180" enable-background="new 0 0 300 180" xml:space="preserve">
<g>
	<g>
		<circle fill="#0868AC" cx="270" cy="30" r="28.077"/>
		<path fill="#6BA4CD" d="M270,60c-16.542,0-30-13.458-30-30c0-16.542,13.458-30,30-30s29.999,13.458,29.999,30
			C299.999,46.542,286.542,60,270,60z M270,3.846c-14.422,0-26.154,11.732-26.154,26.154c0,14.421,11.732,26.154,26.154,26.154
			S296.153,44.422,296.153,30C296.153,15.578,284.422,3.846,270,3.846z"/>
	</g>
	<g>
		<g>
			<path fill="#FFFFFF" d="M259.664,17.968c-2.096,3.013-1.836,6.933-0.233,10.134l0.117,0.228l0.075,0.144l0.046,0.083l0.085,0.149
				c0.049,0.088,0.101,0.175,0.153,0.262l0.086,0.145c0.059,0.092,0.117,0.185,0.179,0.278l0.075,0.117
				c0.083,0.124,0.168,0.248,0.256,0.37l0.008,0.01l0.043,0.059c0.077,0.104,0.155,0.209,0.234,0.312l0.088,0.112
				c0.072,0.088,0.144,0.178,0.218,0.266l0.082,0.098c0.099,0.116,0.199,0.232,0.302,0.346l0.005,0.005l0.013,0.013
				c0.101,0.109,0.203,0.216,0.307,0.324l0.098,0.098c0.081,0.082,0.163,0.161,0.244,0.24l0.102,0.095
				c0.11,0.104,0.221,0.206,0.335,0.305l0.005,0.005l0.061,0.049c0.098,0.087,0.2,0.174,0.303,0.257l0.127,0.101
				c0.083,0.068,0.169,0.134,0.254,0.199l0.136,0.104c0.095,0.069,0.189,0.137,0.284,0.204l0.104,0.074l0.028,0.02
				c0.09,0.062,0.184,0.123,0.276,0.183l0.119,0.08c0.143,0.089,0.287,0.181,0.434,0.266l0.12,0.067
				c0.108,0.062,0.215,0.123,0.325,0.183l0.18,0.092l0.232,0.121l0.054,0.026l0.096,0.047c0.122,0.057,0.245,0.115,0.369,0.17
				l0.078,0.035c0.143,0.061,0.285,0.121,0.429,0.179l0.105,0.041c0.134,0.053,0.27,0.103,0.407,0.151l0.051,0.017
				c0.149,0.053,0.301,0.101,0.452,0.148l0.109,0.032c0.154,0.046,0.308,0.103,0.467,0.133c10.138,1.847,13.083-6.093,13.083-6.093
				c-2.474,3.222-6.864,4.072-11.023,3.126c-0.157-0.035-0.311-0.085-0.464-0.13l-0.116-0.036c-0.15-0.046-0.298-0.094-0.446-0.145
				l-0.062-0.022c-0.133-0.046-0.264-0.096-0.394-0.146l-0.11-0.043c-0.144-0.056-0.285-0.114-0.426-0.176l-0.084-0.038
				c-0.121-0.056-0.241-0.11-0.359-0.166l-0.104-0.051c-0.093-0.044-0.186-0.094-0.277-0.141l-0.186-0.098
				c-0.111-0.06-0.224-0.121-0.332-0.185l-0.112-0.063c-0.146-0.086-0.29-0.175-0.434-0.265l-0.117-0.078
				c-0.104-0.067-0.206-0.135-0.309-0.206l-0.101-0.07c-0.097-0.069-0.194-0.139-0.291-0.21l-0.128-0.098
				c-0.089-0.067-0.177-0.136-0.263-0.206l-0.118-0.094c-0.11-0.091-0.22-0.182-0.327-0.276l-0.036-0.029
				c-0.116-0.103-0.231-0.209-0.345-0.314l-0.096-0.094c-0.085-0.079-0.167-0.159-0.248-0.242l-0.097-0.098
				c-0.103-0.105-0.205-0.211-0.304-0.32l-0.015-0.017c-0.105-0.114-0.209-0.23-0.308-0.35l-0.081-0.096
				c-0.074-0.09-0.149-0.181-0.222-0.275l-0.081-0.101c-0.087-0.113-0.173-0.227-0.257-0.341c-2.309-3.151-3.14-7.494-1.293-11.063
				 M266.171,15.43c-1.515,2.182-1.435,5.102-0.251,7.408c0.199,0.387,0.423,0.764,0.671,1.12c0.228,0.326,0.479,0.713,0.779,0.975
				c0.11,0.121,0.225,0.237,0.342,0.354l0.088,0.088c0.114,0.11,0.229,0.217,0.35,0.322l0.014,0.013l0.003,0.003
				c0.131,0.115,0.267,0.227,0.405,0.336l0.092,0.071c0.139,0.106,0.28,0.21,0.426,0.31l0.012,0.009l0.194,0.128l0.092,0.06
				c0.104,0.067,0.209,0.132,0.315,0.194l0.044,0.025c0.092,0.054,0.185,0.105,0.278,0.156l0.098,0.051l0.195,0.102l0.028,0.013
				c0.134,0.065,0.269,0.129,0.407,0.189l0.089,0.036c0.109,0.047,0.222,0.094,0.333,0.135l0.143,0.053
				c0.102,0.038,0.203,0.073,0.306,0.106l0.138,0.045c0.146,0.043,0.29,0.101,0.441,0.128c7.827,1.295,9.635-4.731,9.635-4.731
				c-1.629,2.348-4.783,3.467-8.149,2.594c-0.15-0.04-0.297-0.084-0.443-0.129l-0.134-0.043c-0.104-0.034-0.207-0.068-0.31-0.108
				l-0.141-0.052c-0.112-0.042-0.223-0.087-0.334-0.134l-0.09-0.036c-0.138-0.062-0.274-0.125-0.408-0.19l-0.205-0.104l-0.116-0.062
				c-0.087-0.047-0.176-0.097-0.26-0.146l-0.062-0.035c-0.105-0.062-0.211-0.126-0.313-0.191l-0.095-0.063l-0.203-0.134
				c-0.145-0.1-0.284-0.205-0.423-0.31l-0.095-0.076c-1.474-1.162-2.642-2.753-3.197-4.555c-0.582-1.87-0.457-3.968,0.552-5.671
				 M271.644,13.533c-0.893,1.316-0.98,2.948-0.36,4.4c0.653,1.542,1.993,2.751,3.557,3.325l0.195,0.068l0.085,0.027
				c0.093,0.028,0.183,0.062,0.278,0.08c4.322,0.835,5.495-2.217,5.807-2.667c-1.027,1.479-2.753,1.833-4.87,1.319
				c-0.168-0.04-0.35-0.1-0.512-0.158c-0.208-0.074-0.41-0.157-0.608-0.252c-0.376-0.181-0.734-0.399-1.066-0.651
				c-1.896-1.437-3.072-4.179-1.836-6.413"/>
		</g>
		<g>
			<path fill="#FFFFFF" d="M270.671,39.603h-1.205c-0.066,0-0.134,0.053-0.147,0.119l-0.428,1.979l-0.427,1.979
				c-0.015,0.064-0.082,0.119-0.147,0.119h-0.854c-0.843,0-0.747-0.584-0.573-1.383l0.005-0.024l0.02-0.101l0.003-0.019l0.039-0.206
				l0.041-0.22l0.044-0.225l0.194-0.949l0.194-0.95c0.014-0.066-0.03-0.12-0.097-0.12h-1.237c-0.065,0-0.133,0.054-0.146,0.12
				l-0.266,1.261l-0.267,1.262v0.001l-0.024,0.118c-0.306,1.398-0.226,2.732,1.439,2.773h0.048h2.612
				c0.067,0,0.134-0.054,0.147-0.117l0.564-2.649l0.562-2.649C270.782,39.656,270.737,39.603,270.671,39.603z M257.767,39.589
				h-1.322c-0.067,0-0.134,0.053-0.149,0.118l-0.125,0.554l-0.124,0.555c-0.015,0.064,0.026,0.118,0.095,0.118h1.332
				c0.067,0,0.134-0.054,0.148-0.119l0.121-0.554l0.122-0.552C257.877,39.643,257.834,39.589,257.767,39.589z M257.382,41.312
				h-1.332c-0.067,0-0.134,0.054-0.149,0.119l-0.188,0.83l-0.187,0.83l-0.052,0.237l-0.18,0.847l-0.18,0.848
				c-0.015,0.064-0.043,0.171-0.064,0.234c0,0-0.25,0.74-0.668,0.733l-0.054-0.001l-0.361-0.007l0,0
				c-0.066-0.001-0.135,0.051-0.15,0.115l-0.138,0.583l-0.138,0.581c-0.016,0.064,0.025,0.118,0.093,0.12
				c0.238,0.002,0.771,0.009,1.092,0.009c1.047,0,1.598-0.58,1.952-2.249l0.414-1.915l0.387-1.796
				C257.494,41.366,257.45,41.312,257.382,41.312z M281.939,40.863l-0.057-0.228l-0.054-0.234l-0.027-0.118
				c-0.108-0.422-0.426-0.665-1.118-0.665l-1.074-0.001l-0.989-0.001h-1.114c-0.068,0-0.133,0.054-0.147,0.12l-0.049,0.232
				l-0.058,0.275l-0.018,0.078l-0.5,2.349l-0.478,2.231c-0.015,0.065-0.019,0.145-0.011,0.178c0.009,0.034,0.137,0.06,0.204,0.06
				h1.004c0.067,0,0.151-0.013,0.188-0.026c0.036-0.015,0.09-0.146,0.104-0.212l0.179-0.884l0.18-0.882v-0.001l0.023-0.118
				L278.344,42l0.191-0.897c0.015-0.065,0.081-0.118,0.147-0.118l3.162-0.001C281.911,40.982,281.955,40.929,281.939,40.863
				L281.939,40.863z M286.01,38.799l-0.243,0.001h-1.013c-0.067,0-0.153,0.045-0.189,0.1l-2.239,3.279
				c-0.036,0.055-0.08,0.047-0.096-0.018l-0.166-0.721c-0.013-0.065-0.08-0.119-0.147-0.119h-1.438
				c-0.068,0-0.108,0.052-0.089,0.116l0.645,2.258c0.019,0.064,0.021,0.169,0.003,0.236l-0.281,1.092
				c-0.016,0.065,0.024,0.118,0.091,0.118h1.424c0.065,0,0.135-0.053,0.15-0.118l0.282-1.092c0.017-0.066,0.062-0.162,0.103-0.216
				l3.634-4.822c0.041-0.053,0.019-0.097-0.047-0.097L286.01,38.799z M274.579,41.627v-0.001c-0.008,0.073-0.076,0.127-0.143,0.127
				h-1.824c-0.063,0-0.096-0.043-0.086-0.096l0.001-0.004h-0.001l0.001-0.006l0.008-0.031c0.175-0.464,0.53-0.768,1.196-0.768
				C274.483,40.848,274.63,41.215,274.579,41.627L274.579,41.627z M274.043,39.521c-2.341,0-2.896,1.422-3.207,2.856
				c-0.312,1.462-0.285,2.831,2.139,2.831h0.294l0.072-0.001h0.018l0.289,0h0.006c0.64-0.004,1.281-0.008,1.541-0.011
				c0.066,0,0.131-0.054,0.145-0.119l0.099-0.48l0.019-0.093l0.117-0.572c0.014-0.064-0.029-0.118-0.097-0.118h-2.179
				c-0.865,0-1.122-0.23-1.027-0.907h3.481l0,0h0.002c0.056-0.001,0.106-0.039,0.127-0.089l0.009-0.031l0,0
				C276.407,40.836,276.259,39.522,274.043,39.521L274.043,39.521z M262.978,41.621l-0.033,0.116l0,0l-0.264,0.932l-0.263,0.932
				c-0.019,0.065-0.088,0.117-0.155,0.117h-1.391c-1.056,0-1.312-0.826-1.056-2.043c0.256-1.245,0.761-2.02,1.799-2.098
				C263.036,39.47,263.32,40.468,262.978,41.621L262.978,41.621z M263.933,43.646c0,0,0.655-1.593,0.804-2.514
				c0.204-1.231-0.412-3.018-2.795-3.018c-2.368,0-3.396,1.707-3.789,3.56c-0.393,1.869,0.121,3.507,2.477,3.492l1.858-0.007
				l1.735-0.007c0.066,0,0.136-0.053,0.153-0.118l0.303-1.154c0.016-0.064-0.024-0.117-0.092-0.119l-0.289-0.001l-0.291-0.002
				c-0.056,0-0.089-0.038-0.082-0.086L263.933,43.646z M275.657,42.579c0,0.044-0.036,0.081-0.081,0.081
				c-0.044,0-0.079-0.037-0.079-0.081s0.035-0.079,0.079-0.079C275.621,42.5,275.657,42.535,275.657,42.579z"/>
		</g>
	</g>
</g>
<g>
	<g>
		<circle fill="#0C61C6" cx="30" cy="30" r="28.077"/>
		<path fill="#CCEFFF" d="M30,60C13.458,60,0,46.542,0,30C0,13.458,13.458,0,30,0c16.542,0,30,13.458,30,30
			C60,46.542,46.542,60,30,60z M30,3.846C15.579,3.846,3.846,15.579,3.846,30c0,14.422,11.732,26.154,26.154,26.154
			c14.421,0,26.154-11.732,26.154-26.154C56.154,15.579,44.421,3.846,30,3.846z"/>
	</g>
	<g>
		<g>
			<path fill="#CCEFFF" d="M15.907,41.013V20.681h6.587c2.497,0,4.124,0.102,4.881,0.305c1.165,0.305,2.141,0.969,2.926,1.99
				c0.786,1.021,1.179,2.341,1.179,3.96c0,1.248-0.227,2.297-0.679,3.148c-0.454,0.851-1.029,1.518-1.727,2.004
				c-0.698,0.485-1.408,0.807-2.128,0.963c-0.98,0.194-2.4,0.292-4.258,0.292h-2.676v7.669H15.907z M20.012,24.121v5.769h2.247
				c1.618,0,2.7-0.105,3.246-0.319c0.545-0.212,0.973-0.545,1.283-0.998c0.31-0.453,0.464-0.98,0.464-1.582
				c0-0.739-0.217-1.349-0.652-1.831c-0.435-0.48-0.985-0.781-1.65-0.901c-0.491-0.092-1.476-0.139-2.955-0.139H20.012z"/>
		</g>
		<g>
			<path fill="#CCEFFF" d="M32.031,36.81l3.911-0.596c0.166,0.758,0.504,1.334,1.012,1.727c0.509,0.393,1.221,0.59,2.136,0.59
				c1.008,0,1.766-0.185,2.275-0.555c0.342-0.259,0.513-0.605,0.513-1.041c0-0.296-0.092-0.541-0.277-0.735
				c-0.194-0.185-0.629-0.356-1.304-0.513c-3.144-0.693-5.136-1.327-5.977-1.9c-1.165-0.795-1.748-1.9-1.748-3.314
				c0-1.276,0.504-2.349,1.512-3.217c1.007-0.87,2.57-1.304,4.688-1.304c2.015,0,3.513,0.328,4.493,0.985
				c0.979,0.656,1.655,1.627,2.025,2.912l-3.675,0.679c-0.158-0.573-0.456-1.013-0.895-1.317c-0.439-0.305-1.065-0.458-1.879-0.458
				c-1.027,0-1.761,0.144-2.205,0.43c-0.296,0.203-0.444,0.467-0.444,0.791c0,0.277,0.13,0.513,0.388,0.707
				c0.352,0.259,1.565,0.625,3.641,1.096s3.525,1.049,4.348,1.733c0.813,0.694,1.221,1.66,1.221,2.899
				c0,1.35-0.564,2.51-1.692,3.481s-2.797,1.457-5.007,1.457c-2.006,0-3.594-0.407-4.764-1.221
				C33.156,39.312,32.391,38.207,32.031,36.81z"/>
		</g>
	</g>
</g>
<g>
	<g>
		<circle fill="#994C0F" cx="90" cy="30" r="28.077"/>
		<path fill="#FEC478" d="M90,60c-16.542,0-30-13.458-30-30C60,13.458,73.458,0,90,0c16.542,0,30,13.458,30,30
			C120,46.542,106.542,60,90,60z M90,3.846C75.579,3.846,63.846,15.579,63.846,30c0,14.421,11.733,26.154,26.154,26.154
			c14.422,0,26.154-11.733,26.154-26.154C116.154,15.579,104.421,3.846,90,3.846z"/>
	</g>
	<g>
		<g>
			<path fill="#FEC478" d="M96.55,41.397h-4.466l-1.775-4.619h-8.127l-1.678,4.619H76.15l7.918-20.332h4.341L96.55,41.397z
				 M88.992,33.354l-2.801-7.544l-2.746,7.544H88.992z"/>
		</g>
		<g>
			<path fill="#FEC478" d="M97.28,24.672v-3.606h3.897v3.606H97.28z M97.28,41.397V26.669h3.897v14.729H97.28z"/>
		</g>
	</g>
</g>
<g>
	<g>
		<circle fill="#270114" cx="30" cy="150" r="28.077"/>
		<path fill="#FD6BA5" d="M30,180c-16.542,0-30-13.458-30-30c0-16.542,13.458-30,30-30c16.542,0,30,13.458,30,30
			C60,166.542,46.542,180,30,180z M30,123.846c-14.421,0-26.154,11.732-26.154,26.154c0,14.421,11.733,26.154,26.154,26.154
			c14.422,0,26.154-11.733,26.154-26.154C56.154,135.579,44.421,123.846,30,123.846z"/>
	</g>
	<g>
		<path fill="#FD6BA5" d="M18.498,136.996h3.993v24.131h-3.993V136.996z"/>
		<path fill="#FD6BA5" d="M38.119,136.464h3.921v24.663h-3.921v-2.652c-0.369,1.192-1.533,2.252-2.303,2.573
			s-1.604,0.481-2.503,0.481c-2.019,0-3.764-0.783-5.237-2.349c-1.473-1.566-2.209-4.513-2.209-6.839
			c0-2.414,0.712-5.391,2.138-6.933c1.425-1.542,3.156-2.312,5.194-2.312c0.937,0,1.817,0.177,2.64,0.531
			c0.822,0.354,1.583,0.886,2.281,1.595V136.464z M33.997,146.715c-1.212,0-2.219,0.429-3.021,1.286s-1.203,2.957-1.203,4.297
			c0,1.351,0.408,3.462,1.224,4.333c0.816,0.872,1.82,1.307,3.014,1.307c1.231,0,2.252-0.428,3.063-1.286
			c0.811-0.857,1.217-2.98,1.217-4.369c0-1.36-0.406-3.461-1.217-4.304S35.238,146.715,33.997,146.715z"/>
	</g>
</g>
<g>
	<g>
		<circle fill="#2E372E" cx="270" cy="90" r="28.077"/>
		<path fill="#9CE43C" d="M270,120c-16.543,0-30-13.458-30-30c0-16.542,13.457-30,30-30c16.542,0,30,13.458,30,30
			C300,106.542,286.542,120,270,120z M270,63.846c-14.422,0-26.154,11.732-26.154,26.154c0,14.421,11.732,26.154,26.154,26.154
			S296.154,104.422,296.154,90C296.154,75.578,284.422,63.846,270,63.846z"/>
	</g>
	<g>
		<g>
			<path fill="#9CE43C" d="M252.045,81.066h7.502c1.692,0,2.981,0.13,3.87,0.389c1.192,0.352,2.215,0.975,3.064,1.872
				c0.851,0.897,1.498,1.995,1.941,3.294c0.445,1.299,0.666,2.9,0.666,4.806c0,1.674-0.208,3.116-0.624,4.327
				c-0.509,1.48-1.234,2.677-2.177,3.592c-0.713,0.693-1.674,1.235-2.885,1.623c-0.907,0.287-2.118,0.43-3.635,0.43h-7.724V81.066z
				 M256.149,84.506v13.466h3.065c1.146,0,1.974-0.065,2.481-0.194c0.666-0.167,1.219-0.449,1.658-0.846
				c0.439-0.398,0.797-1.052,1.075-1.963c0.277-0.911,0.415-2.152,0.415-3.724c0-1.572-0.138-2.778-0.415-3.619
				c-0.278-0.841-0.666-1.498-1.166-1.97c-0.499-0.472-1.132-0.79-1.899-0.958c-0.574-0.129-1.696-0.193-3.369-0.193H256.149z"/>
		</g>
		<g>
			<path fill="#9CE43C" d="M273.868,101.397l-4.66-14.728h3.787l2.76,9.652l2.537-9.652h3.76l2.454,9.652l2.813-9.652h3.842
				l-4.729,14.728h-3.744l-2.538-9.473l-2.496,9.473H273.868z"/>
		</g>
	</g>
</g>
<g>
	<g>
		<circle fill="#1572B6" cx="210" cy="30" r="28.078"/>
		<path fill="#33A9DC" d="M209.999,60C193.457,60,180,46.542,180,30c0-16.542,13.457-30,29.999-30s30,13.458,30,30
			C239.999,46.542,226.541,60,209.999,60z M209.999,3.846c-14.422,0-26.153,11.732-26.153,26.154
			c0,14.421,11.731,26.154,26.153,26.154S236.153,44.422,236.153,30C236.153,15.578,224.421,3.846,209.999,3.846z"/>
	</g>
	<g>
		<polygon fill="#FFFFFF" points="210.008,15 210.008,15 199.615,15 199.712,15.681 199.899,17.418 199.981,18 210.008,18 
			210.008,18 215.644,18 215.271,23 209.854,23 204.986,23 205.083,23.824 205.271,25.99 205.353,27 209.854,27 214.907,27 
			214.496,32.078 210,33.271 210,34 209.86,34 205.302,32.517 205.01,29 200.901,29 201.475,35.22 209.926,37.445 210,37.34 
			210,37.341 218.322,35.016 218.352,34.553 219.031,27 219.022,27 220.023,15.909 220.119,15 		"/>
	</g>
	<g>
		<path fill="#FFFFFF" d="M219.273,44.027h-2.715l2.823,3.062v1.457h-5.813v-1.707h2.822l-2.822-3.063v-1.458h5.705V44.027
			L219.273,44.027z M212.416,44.027h-2.713l2.821,3.062v1.457h-5.812v-1.707h2.822l-2.822-3.063v-1.458h5.704V44.027z
			 M205.626,44.095h-2.927v2.671h2.928v1.779h-5.01v-6.229h5.01L205.626,44.095L205.626,44.095z"/>
	</g>
</g>
<g>
	<g>
		<circle fill="#E44D26" cx="150" cy="30" r="28.077"/>
		<path fill="#F48454" d="M150,60c-16.543,0-30-13.458-30-30c0-16.542,13.458-30,30-30c16.541,0,30,13.458,30,30
			C180,46.542,166.542,60,150,60z M150,3.846c-14.422,0-26.154,11.732-26.154,26.154c0,14.421,11.732,26.154,26.154,26.154
			c14.421,0,26.154-11.732,26.154-26.154C176.154,15.578,164.421,3.846,150,3.846z"/>
	</g>
	<g>
		<path fill="#FFFFFF" d="M137.689,42.32h2.079v2.055h1.904V42.32h2.081v6.225h-2.081v-2.085h-1.904v2.085h-2.081V42.32H137.689z
			 M146.488,44.384h-1.832V42.32h5.745v2.064h-1.833v4.161h-2.08V44.384z M151.312,42.32h2.168l1.335,2.188l1.333-2.188h2.17v6.225
			h-2.073V45.46l-1.43,2.211h-0.036l-1.432-2.211v3.084h-2.036V42.32L151.312,42.32z M159.354,42.32h2.081v4.168h2.925v2.057h-5.006
			V42.32z"/>
	</g>
	<g>
		<polygon fill="#FFFFFF" points="150.397,15 150.382,15 140.133,15 140.23,15.909 141.235,27 150.777,27 150.777,27 155.422,27 
			154.948,32.208 150.397,33.386 150.397,33.386 150.202,33.361 150,33.384 150,34 150.379,34 145.821,32.516 145.529,29 141.42,29 
			141.994,35.349 150.181,37.638 150,37.594 150,37.593 158.575,35.271 158.737,34.58 159.747,23.95 159.897,23 158.792,23 
			150.397,23 150.382,23 144.979,23 144.607,19 150.777,19 150.777,19 160.27,19 160.352,17.837 160.54,15.93 160.637,15 		"/>
	</g>
</g>
<g>
	<g>
		<circle fill="#CD6699" cx="29.999" cy="90" r="28.077"/>
		<path fill="#E1A3C2" d="M29.999,120C13.457,120,0,106.542,0,90c0-16.542,13.457-30,29.999-30s30,13.458,30,30
			C59.999,106.542,46.541,120,29.999,120z M29.999,63.846C15.577,63.846,3.846,75.578,3.846,90
			c0,14.421,11.731,26.154,26.153,26.154c14.421,0,26.154-11.732,26.154-26.154C56.153,75.578,44.42,63.846,29.999,63.846z"/>
	</g>
	<g>
		<path fill="#F2F2F2" d="M25.361,90.083c0.063-0.126,0.26-0.189,0.403-0.273c0.574-0.334,1.153-0.666,1.746-1.005
			c1.696-1.068,2.141-2.504,2.141-2.504c-1.223,0.666-3.67,1.971-4.89,2.642c-0.133,0.075-0.23,0.053-0.327-0.049
			c-0.614-0.657-1.333-1.201-2.037-1.752c-0.986-0.771-2.008-1.501-2.859-2.431c-0.497-0.544-0.914-1.139-1.122-1.858
			c-0.339-1.176-0.086-2.273,0.479-3.313c0.666-1.231,1.655-2.182,2.747-3.03c1.734-1.344,3.635-2.411,5.64-3.29
			c2.244-0.983,4.57-1.617,7.051-1.521c0.982,0.038,1.935,0.208,2.812,0.688c0.618,0.341,1.027,0.833,1.144,1.555
			c0.138,0.845-0.066,1.625-0.441,2.366c-0.838,1.655-2.171,2.826-3.746,3.744c-1.312,0.763-2.726,1.249-4.224,1.502
			c-0.828,0.142-1.657,0.227-2.491,0.1c-0.954-0.146-1.837-0.464-2.491-1.234c-0.074-0.088-0.17-0.15-0.299-0.088
			c-0.131,0.064-0.12,0.182-0.108,0.292c0.009,0.077,0.028,0.155,0.057,0.229c0.176,0.47,0.503,0.827,0.885,1.137
			c0.996,0.811,2.178,1.048,3.416,1.073c1.213,0.024,2.408-0.13,3.589-0.412c2.667-0.638,4.898-1.945,6.53-4.187
			c0.975-1.341,1.591-2.816,1.537-4.505c-0.036-1.072-0.396-2.018-1.177-2.787c-0.929-0.913-2.081-1.373-3.317-1.648
			c-1.378-0.306-2.77-0.35-4.173-0.182c-1.222,0.146-2.417,0.396-3.578,0.797c-1.779,0.613-3.498,1.366-5.143,2.281
			c-1.684,0.938-3.272,2.01-4.663,3.355c-1.232,1.188-2.292,2.501-2.889,4.132c-0.256,0.697-0.437,1.413-0.267,2.168
			c0.218,0.971,0.697,1.811,1.326,2.57c0.952,1.149,2.12,2.054,3.325,2.918c0.967,0.693,1.98,1.326,2.909,2.073
			c0.263,0.21,0.261,0.21-0.049,0.373c-0.362,0.189-0.727,0.37-1.084,0.572c-1.434,0.812-2.82,1.69-3.955,2.913
			c-0.558,0.601-0.935,1.279-1.11,2.028c-0.304,0.952,0.148,2.082,0.754,2.586c0.637,0.531,2.053,0.866,3.22,0.677
			c2.115-0.165,3.016-0.811,4.213-2.632c0.577-0.877,0.847-1.872,0.95-2.921c0.089-0.924-0.005-1.82-0.277-2.702
			C25.47,90.375,25.293,90.22,25.361,90.083z M24.117,92.304c0.065,2.092-1.455,4.127-3.335,4.793
			c-0.354,0.125-0.725,0.179-1.104,0.15c-0.469-0.039-0.768-0.369-0.798-0.868c-0.033-0.576,0.137-1.095,0.387-1.6
			c0.459-0.916,1.228-1.54,2.01-2.15c0.762-0.594,1.583-1.102,2.411-1.594c0.252-0.149,0.256-0.148,0.312,0.15
			C24.076,91.57,24.143,91.956,24.117,92.304z"/>
	</g>
	<g>
		<g>
			<path fill="#FFFFFF" d="M24.606,107.129c0,0.448-0.083,0.838-0.249,1.178c-0.165,0.337-0.392,0.617-0.675,0.842
				c-0.283,0.227-0.615,0.395-0.996,0.508c-0.381,0.115-0.788,0.171-1.221,0.171c-0.294,0-0.565-0.025-0.817-0.072
				c-0.251-0.047-0.476-0.106-0.666-0.173c-0.191-0.07-0.352-0.14-0.484-0.215c-0.129-0.076-0.22-0.14-0.277-0.197
				c-0.056-0.057-0.099-0.137-0.121-0.245c-0.025-0.106-0.036-0.261-0.036-0.463c0-0.135,0.002-0.249,0.014-0.342
				c0.009-0.09,0.025-0.165,0.04-0.222c0.022-0.058,0.05-0.099,0.079-0.122c0.036-0.025,0.071-0.036,0.116-0.036
				c0.062,0,0.148,0.036,0.258,0.108c0.112,0.074,0.255,0.152,0.431,0.239c0.175,0.087,0.386,0.167,0.625,0.24
				c0.244,0.073,0.529,0.108,0.847,0.108c0.207,0,0.395-0.027,0.562-0.077c0.168-0.051,0.308-0.121,0.425-0.213
				c0.116-0.092,0.203-0.206,0.265-0.341c0.061-0.137,0.094-0.289,0.094-0.454c0-0.193-0.053-0.357-0.16-0.496
				c-0.103-0.136-0.243-0.259-0.409-0.367c-0.167-0.109-0.359-0.208-0.573-0.301s-0.437-0.194-0.663-0.3
				c-0.228-0.104-0.447-0.222-0.66-0.356c-0.217-0.133-0.407-0.292-0.573-0.48c-0.17-0.186-0.306-0.402-0.411-0.66
				c-0.106-0.251-0.158-0.556-0.158-0.91c0-0.407,0.077-0.766,0.224-1.074c0.153-0.308,0.358-0.565,0.614-0.768
				c0.252-0.202,0.557-0.355,0.905-0.457c0.345-0.098,0.713-0.148,1.104-0.148c0.203,0,0.405,0.014,0.603,0.045
				c0.203,0.03,0.392,0.073,0.565,0.125c0.177,0.051,0.331,0.111,0.468,0.176c0.134,0.066,0.225,0.122,0.269,0.165
				c0.044,0.044,0.071,0.08,0.088,0.111c0.017,0.031,0.028,0.072,0.038,0.123s0.02,0.114,0.024,0.189
				c0.002,0.077,0.005,0.173,0.005,0.286c0,0.128-0.003,0.235-0.01,0.321c-0.007,0.087-0.017,0.16-0.029,0.219
				c-0.019,0.057-0.041,0.097-0.067,0.124c-0.029,0.026-0.065,0.04-0.116,0.04c-0.049,0-0.124-0.031-0.23-0.092
				c-0.104-0.061-0.235-0.129-0.386-0.2c-0.154-0.073-0.333-0.137-0.532-0.198c-0.202-0.058-0.422-0.087-0.662-0.087
				c-0.187,0-0.354,0.024-0.492,0.07c-0.14,0.046-0.257,0.108-0.353,0.188c-0.092,0.081-0.163,0.181-0.207,0.292
				c-0.05,0.115-0.071,0.234-0.071,0.361c0,0.188,0.052,0.351,0.152,0.488c0.106,0.139,0.24,0.261,0.417,0.367
				c0.171,0.108,0.367,0.21,0.585,0.302c0.221,0.094,0.442,0.192,0.668,0.298c0.229,0.106,0.451,0.227,0.671,0.358
				c0.22,0.133,0.412,0.292,0.583,0.48c0.171,0.184,0.308,0.403,0.414,0.656C24.556,106.493,24.606,106.789,24.606,107.129z"/>
		</g>
		<g>
			<path fill="#FFFFFF" d="M30.257,108.522c0,0.116-0.002,0.208-0.01,0.286c-0.006,0.077-0.014,0.141-0.026,0.192
				c-0.01,0.054-0.025,0.096-0.041,0.129c-0.014,0.034-0.049,0.074-0.1,0.126c-0.052,0.048-0.141,0.111-0.27,0.183
				c-0.129,0.072-0.271,0.136-0.435,0.193c-0.16,0.059-0.335,0.104-0.524,0.138c-0.191,0.034-0.388,0.053-0.59,0.053
				c-0.45,0-0.851-0.071-1.196-0.211c-0.35-0.139-0.642-0.348-0.877-0.621s-0.416-0.604-0.536-1c-0.121-0.394-0.18-0.844-0.18-1.35
				c0-0.587,0.074-1.095,0.219-1.519c0.146-0.427,0.353-0.779,0.614-1.061c0.265-0.279,0.575-0.486,0.934-0.624
				c0.357-0.134,0.751-0.202,1.181-0.202c0.176,0,0.344,0.016,0.513,0.044c0.17,0.031,0.328,0.075,0.473,0.127
				c0.146,0.053,0.279,0.11,0.396,0.179c0.116,0.063,0.196,0.121,0.247,0.169c0.046,0.047,0.077,0.088,0.101,0.121
				c0.02,0.032,0.031,0.077,0.043,0.128s0.021,0.118,0.026,0.194c0.007,0.077,0.013,0.169,0.013,0.279
				c0,0.253-0.025,0.432-0.067,0.536c-0.045,0.101-0.101,0.152-0.173,0.152c-0.073,0-0.152-0.028-0.236-0.091
				c-0.082-0.062-0.184-0.13-0.293-0.203c-0.115-0.076-0.25-0.141-0.407-0.203c-0.158-0.061-0.346-0.093-0.564-0.093
				c-0.43,0-0.759,0.165-0.984,0.496c-0.228,0.332-0.341,0.815-0.341,1.454c0,0.314,0.027,0.593,0.086,0.833
				c0.055,0.239,0.139,0.443,0.251,0.604c0.112,0.163,0.251,0.285,0.421,0.365c0.167,0.08,0.363,0.122,0.586,0.122
				c0.23,0,0.422-0.035,0.587-0.102c0.162-0.067,0.309-0.143,0.432-0.227c0.123-0.083,0.226-0.158,0.309-0.227
				c0.082-0.067,0.152-0.101,0.211-0.101c0.038,0,0.07,0.013,0.098,0.034c0.025,0.021,0.044,0.062,0.062,0.121
				c0.018,0.058,0.027,0.133,0.034,0.226C30.252,108.26,30.257,108.379,30.257,108.522z"/>
		</g>
		<g>
			<path fill="#FFFFFF" d="M35.574,107.802c0,0.332-0.064,0.624-0.188,0.878c-0.125,0.252-0.299,0.465-0.528,0.637
				c-0.229,0.17-0.496,0.298-0.808,0.384c-0.311,0.086-0.648,0.127-1.012,0.127c-0.217,0-0.428-0.016-0.623-0.049
				c-0.199-0.031-0.378-0.075-0.536-0.125c-0.156-0.051-0.289-0.102-0.394-0.154c-0.105-0.052-0.183-0.104-0.232-0.148
				c-0.047-0.047-0.083-0.117-0.108-0.216c-0.026-0.099-0.04-0.246-0.04-0.439c0-0.125,0.005-0.229,0.014-0.304
				c0.008-0.076,0.021-0.137,0.039-0.185c0.017-0.044,0.039-0.076,0.066-0.091c0.024-0.016,0.06-0.023,0.097-0.023
				c0.049,0,0.119,0.025,0.214,0.08c0.094,0.054,0.21,0.116,0.351,0.183c0.141,0.065,0.301,0.128,0.488,0.185
				c0.187,0.057,0.397,0.084,0.633,0.084c0.151,0,0.282-0.016,0.397-0.044c0.116-0.032,0.218-0.077,0.302-0.132
				c0.083-0.058,0.148-0.129,0.194-0.216c0.042-0.088,0.066-0.187,0.066-0.303c0-0.131-0.043-0.241-0.124-0.338
				c-0.079-0.092-0.187-0.175-0.319-0.245c-0.134-0.071-0.288-0.135-0.454-0.196c-0.168-0.061-0.341-0.128-0.52-0.205
				c-0.176-0.073-0.349-0.159-0.516-0.254c-0.172-0.096-0.32-0.214-0.451-0.355c-0.135-0.139-0.241-0.308-0.324-0.504
				c-0.081-0.196-0.122-0.433-0.122-0.709c0-0.279,0.055-0.537,0.165-0.771c0.109-0.235,0.266-0.435,0.473-0.601
				c0.206-0.167,0.456-0.294,0.752-0.388c0.294-0.09,0.627-0.137,0.994-0.137c0.184,0,0.36,0.013,0.532,0.039
				c0.175,0.027,0.331,0.059,0.472,0.098c0.138,0.039,0.258,0.083,0.354,0.127c0.095,0.046,0.163,0.087,0.205,0.121
				c0.043,0.032,0.071,0.065,0.088,0.096c0.019,0.035,0.03,0.073,0.04,0.12c0.007,0.046,0.017,0.102,0.022,0.171
				c0.007,0.067,0.011,0.152,0.011,0.251c0,0.12-0.004,0.215-0.011,0.289c-0.006,0.074-0.02,0.133-0.032,0.178
				c-0.016,0.044-0.037,0.074-0.062,0.089c-0.026,0.016-0.059,0.021-0.094,0.021s-0.098-0.021-0.184-0.069
				c-0.081-0.044-0.186-0.093-0.312-0.148c-0.126-0.051-0.27-0.1-0.434-0.146c-0.164-0.045-0.35-0.069-0.559-0.069
				c-0.148,0-0.278,0.017-0.39,0.046c-0.108,0.03-0.196,0.075-0.266,0.132c-0.072,0.057-0.127,0.124-0.161,0.2
				s-0.052,0.159-0.052,0.245c0,0.135,0.042,0.249,0.125,0.341c0.082,0.092,0.194,0.173,0.329,0.243
				c0.138,0.071,0.29,0.136,0.461,0.198c0.176,0.061,0.348,0.128,0.526,0.198c0.177,0.073,0.351,0.157,0.525,0.253
				s0.325,0.215,0.462,0.354c0.137,0.141,0.245,0.306,0.329,0.501C35.529,107.302,35.574,107.534,35.574,107.802z"/>
		</g>
		<g>
			<path fill="#FFFFFF" d="M40.936,107.802c0,0.332-0.065,0.624-0.189,0.878c-0.124,0.252-0.3,0.465-0.526,0.637
				c-0.229,0.17-0.497,0.298-0.809,0.384c-0.31,0.086-0.648,0.127-1.012,0.127c-0.217,0-0.427-0.016-0.626-0.049
				c-0.196-0.031-0.379-0.075-0.533-0.125c-0.161-0.051-0.29-0.102-0.394-0.154c-0.106-0.052-0.185-0.104-0.229-0.148
				c-0.05-0.047-0.086-0.117-0.112-0.216c-0.025-0.099-0.041-0.246-0.041-0.439c0-0.125,0.005-0.229,0.016-0.304
				c0.008-0.076,0.021-0.137,0.039-0.185c0.017-0.044,0.038-0.076,0.063-0.091c0.025-0.016,0.062-0.023,0.1-0.023
				c0.049,0,0.121,0.025,0.214,0.08c0.094,0.054,0.21,0.116,0.351,0.183c0.14,0.065,0.303,0.128,0.491,0.185
				c0.184,0.057,0.395,0.084,0.631,0.084c0.147,0,0.281-0.016,0.395-0.044c0.115-0.032,0.22-0.077,0.303-0.132
				c0.084-0.056,0.148-0.129,0.193-0.216c0.044-0.088,0.065-0.187,0.065-0.303c0-0.131-0.04-0.241-0.121-0.338
				c-0.08-0.093-0.188-0.175-0.322-0.245c-0.131-0.071-0.284-0.135-0.451-0.196c-0.168-0.061-0.343-0.128-0.519-0.205
				c-0.177-0.073-0.35-0.159-0.519-0.254c-0.168-0.096-0.318-0.214-0.452-0.355c-0.134-0.139-0.24-0.308-0.321-0.504
				c-0.081-0.196-0.122-0.433-0.122-0.709c0-0.279,0.055-0.537,0.165-0.771c0.107-0.235,0.268-0.435,0.473-0.601
				c0.203-0.167,0.455-0.294,0.752-0.388c0.294-0.09,0.627-0.137,0.994-0.137c0.184,0,0.36,0.013,0.536,0.039
				c0.171,0.027,0.327,0.059,0.465,0.098c0.143,0.039,0.259,0.083,0.356,0.127c0.094,0.046,0.164,0.087,0.204,0.121
				c0.044,0.032,0.074,0.065,0.091,0.096c0.018,0.035,0.027,0.073,0.039,0.12c0.007,0.046,0.017,0.102,0.023,0.171
				c0.005,0.067,0.009,0.152,0.009,0.251c0,0.12-0.004,0.215-0.009,0.289c-0.007,0.074-0.021,0.133-0.033,0.178
				c-0.016,0.044-0.037,0.074-0.062,0.089c-0.025,0.016-0.058,0.021-0.093,0.021c-0.037,0-0.099-0.021-0.184-0.069
				c-0.083-0.044-0.186-0.093-0.311-0.148c-0.127-0.051-0.271-0.1-0.433-0.146c-0.166-0.045-0.352-0.069-0.562-0.069
				c-0.149,0-0.278,0.017-0.389,0.046c-0.108,0.03-0.197,0.075-0.269,0.132c-0.069,0.057-0.124,0.124-0.158,0.2
				c-0.032,0.077-0.052,0.159-0.052,0.245c0,0.135,0.04,0.249,0.125,0.341c0.08,0.092,0.191,0.173,0.328,0.243
				c0.137,0.071,0.29,0.136,0.462,0.198c0.176,0.061,0.348,0.128,0.525,0.198s0.352,0.157,0.526,0.253
				c0.171,0.097,0.326,0.215,0.461,0.354c0.138,0.141,0.243,0.306,0.33,0.501C40.893,107.302,40.936,107.534,40.936,107.802z"/>
		</g>
	</g>
</g>
<g>
	<g>
		<circle fill="#5B4282" cx="90" cy="90" r="28.077"/>
		<path fill="#9D8EB4" d="M90,120c-16.542,0-30-13.458-30-30c0-16.542,13.458-30,30-30c16.543,0,30.001,13.458,30.001,30
			C120.001,106.542,106.543,120,90,120z M90,63.846c-14.421,0-26.154,11.732-26.154,26.154c0,14.421,11.733,26.154,26.154,26.154
			c14.422,0,26.154-11.732,26.154-26.154C116.154,75.578,104.422,63.846,90,63.846z"/>
	</g>
	<g>
		<g>
			<path fill="#FFFFFF" d="M72.175,102.399h2.388c0.399,0,0.705,0.1,0.918,0.296c0.214,0.198,0.319,0.442,0.319,0.733
				c0,0.244-0.076,0.454-0.228,0.628c-0.102,0.116-0.251,0.208-0.445,0.276c0.297,0.071,0.515,0.193,0.654,0.367
				c0.14,0.174,0.211,0.392,0.211,0.655c0,0.214-0.051,0.407-0.149,0.577c-0.101,0.172-0.236,0.307-0.409,0.406
				c-0.107,0.062-0.269,0.107-0.484,0.135c-0.287,0.038-0.478,0.056-0.571,0.056h-2.203V102.399z M73.462,104.02h0.556
				c0.198,0,0.337-0.034,0.414-0.103c0.079-0.068,0.118-0.167,0.118-0.298c0-0.12-0.039-0.214-0.118-0.281
				c-0.077-0.068-0.213-0.102-0.406-0.102h-0.563V104.02z M73.462,105.643h0.65c0.221,0,0.375-0.039,0.465-0.117
				c0.091-0.078,0.136-0.183,0.136-0.314c0-0.122-0.045-0.22-0.135-0.295c-0.088-0.074-0.244-0.111-0.469-0.111h-0.647V105.643z"/>
		</g>
		<g>
			<path fill="#FFFFFF" d="M76.211,104.467c0-0.673,0.188-1.199,0.563-1.574c0.375-0.375,0.898-0.563,1.569-0.563
				c0.686,0,1.217,0.184,1.587,0.554c0.373,0.369,0.559,0.886,0.559,1.55c0,0.483-0.081,0.878-0.243,1.188
				c-0.163,0.309-0.397,0.55-0.704,0.722c-0.308,0.171-0.69,0.257-1.148,0.257c-0.466,0-0.851-0.074-1.156-0.222
				c-0.306-0.149-0.553-0.383-0.742-0.705C76.306,105.352,76.211,104.951,76.211,104.467z M77.486,104.473
				c0,0.418,0.078,0.717,0.232,0.899c0.155,0.182,0.366,0.273,0.633,0.273c0.274,0,0.485-0.089,0.636-0.268
				c0.15-0.178,0.227-0.499,0.227-0.959c0-0.389-0.079-0.673-0.236-0.853c-0.156-0.18-0.369-0.27-0.637-0.27
				c-0.259,0-0.465,0.091-0.62,0.274C77.564,103.751,77.486,104.053,77.486,104.473z"/>
		</g>
		<g>
			<path fill="#FFFFFF" d="M80.728,104.467c0-0.673,0.188-1.199,0.563-1.574c0.376-0.375,0.898-0.563,1.568-0.563
				c0.688,0,1.218,0.184,1.589,0.554c0.372,0.369,0.558,0.886,0.558,1.55c0,0.483-0.08,0.878-0.242,1.188
				c-0.163,0.309-0.398,0.55-0.705,0.722c-0.308,0.171-0.689,0.257-1.147,0.257c-0.466,0-0.852-0.074-1.157-0.222
				c-0.306-0.149-0.552-0.383-0.742-0.705C80.822,105.352,80.728,104.951,80.728,104.467z M82.004,104.473
				c0,0.418,0.077,0.717,0.231,0.899c0.155,0.182,0.367,0.273,0.633,0.273c0.274,0,0.486-0.089,0.637-0.268
				c0.15-0.178,0.226-0.499,0.226-0.959c0-0.389-0.078-0.673-0.235-0.853c-0.156-0.18-0.37-0.27-0.639-0.27
				c-0.257,0-0.464,0.091-0.619,0.274C82.081,103.751,82.004,104.053,82.004,104.473z"/>
		</g>
		<g>
			<path fill="#FFFFFF" d="M84.966,102.399h3.879v1.021h-1.301v3.109h-1.276v-3.109h-1.302V102.399z"/>
		</g>
		<g>
			<path fill="#FFFFFF" d="M88.911,105.163l1.214-0.076c0.026,0.197,0.08,0.348,0.161,0.451c0.132,0.167,0.319,0.251,0.563,0.251
				c0.183,0,0.323-0.043,0.421-0.128c0.099-0.086,0.147-0.185,0.147-0.297c0-0.107-0.047-0.203-0.141-0.288
				c-0.094-0.084-0.312-0.164-0.653-0.239c-0.561-0.126-0.958-0.293-1.197-0.501c-0.24-0.209-0.36-0.474-0.36-0.797
				c0-0.212,0.061-0.413,0.185-0.602c0.123-0.188,0.308-0.337,0.555-0.445c0.247-0.107,0.586-0.162,1.016-0.162
				c0.527,0,0.93,0.098,1.207,0.294c0.276,0.196,0.442,0.509,0.494,0.937l-1.202,0.07c-0.032-0.185-0.1-0.32-0.202-0.405
				c-0.102-0.084-0.243-0.127-0.423-0.127c-0.149,0-0.261,0.032-0.336,0.095c-0.075,0.062-0.112,0.139-0.112,0.23
				c0,0.065,0.03,0.125,0.093,0.177c0.06,0.055,0.203,0.105,0.429,0.151c0.558,0.121,0.956,0.242,1.198,0.365
				c0.24,0.123,0.417,0.275,0.526,0.458c0.11,0.182,0.165,0.385,0.165,0.611c0,0.265-0.073,0.509-0.22,0.732
				c-0.146,0.224-0.351,0.393-0.614,0.509c-0.263,0.115-0.595,0.173-0.995,0.173c-0.701,0-1.188-0.135-1.458-0.405
				C89.101,105.924,88.947,105.58,88.911,105.163z"/>
		</g>
		<g>
			<path fill="#FFFFFF" d="M92.723,102.399h3.879v1.021h-1.301v3.109h-1.277v-3.109h-1.301V102.399z"/>
		</g>
		<g>
			<path fill="#FFFFFF" d="M96.907,106.529v-4.13h2.127c0.395,0,0.695,0.035,0.904,0.103c0.208,0.067,0.376,0.192,0.504,0.375
				c0.128,0.183,0.191,0.406,0.191,0.669c0,0.229-0.049,0.427-0.146,0.593s-0.232,0.301-0.402,0.404
				c-0.109,0.066-0.259,0.12-0.448,0.164c0.151,0.05,0.263,0.102,0.331,0.152c0.048,0.034,0.115,0.107,0.204,0.217
				c0.09,0.112,0.149,0.197,0.18,0.257l0.617,1.196h-1.441l-0.682-1.262c-0.087-0.164-0.163-0.27-0.231-0.318
				c-0.092-0.064-0.196-0.096-0.313-0.096h-0.112v1.676H96.907z M98.188,104.073h0.539c0.058,0,0.17-0.019,0.338-0.057
				c0.084-0.017,0.153-0.06,0.207-0.129c0.053-0.069,0.08-0.149,0.08-0.239c0-0.134-0.042-0.236-0.128-0.307
				c-0.083-0.071-0.242-0.107-0.475-0.107h-0.562V104.073z"/>
		</g>
		<g>
			<path fill="#FFFFFF" d="M103.628,105.847h-1.447l-0.202,0.682h-1.303l1.552-4.13h1.392l1.552,4.13h-1.337L103.628,105.847z
				 M103.363,104.955l-0.456-1.484l-0.45,1.484H103.363z"/>
		</g>
		<g>
			<path fill="#FFFFFF" d="M105.282,102.399h2.122c0.462,0,0.807,0.11,1.037,0.33s0.346,0.533,0.346,0.938
				c0,0.417-0.126,0.743-0.377,0.978c-0.251,0.235-0.633,0.352-1.147,0.352h-0.699v1.532h-1.281V102.399z M106.563,104.16h0.313
				c0.246,0,0.419-0.042,0.519-0.127c0.099-0.085,0.148-0.195,0.148-0.329c0-0.129-0.043-0.24-0.129-0.33
				c-0.087-0.09-0.25-0.135-0.488-0.135h-0.363V104.16z"/>
		</g>
	</g>
	<g>
		<g>
			<path fill="#FFFFFF" d="M81.671,98.114V73.37h9.282c1.891,0,3.407,0.251,4.549,0.751c1.142,0.502,2.037,1.272,2.684,2.312
				c0.647,1.042,0.971,2.13,0.971,3.267c0,1.058-0.286,2.054-0.86,2.988c-0.574,0.933-1.44,1.687-2.6,2.261
				c1.496,0.438,2.646,1.187,3.452,2.245c0.804,1.058,1.207,2.308,1.207,3.747c0,1.16-0.245,2.237-0.735,3.233
				c-0.488,0.995-1.094,1.764-1.813,2.303c-0.721,0.541-1.624,0.948-2.71,1.225c-1.086,0.275-2.416,0.413-3.991,0.413H81.671z
				 M84.945,83.768h5.351c1.451,0,2.491-0.096,3.121-0.287c0.834-0.248,1.461-0.658,1.883-1.232
				c0.422-0.574,0.633-1.295,0.633-2.161c0-0.822-0.197-1.544-0.59-2.169c-0.396-0.625-0.957-1.052-1.688-1.283
				c-0.731-0.23-1.986-0.345-3.765-0.345h-4.944V83.768z M84.945,95.194h6.16c1.058,0,1.8-0.039,2.229-0.117
				c0.753-0.135,1.384-0.36,1.89-0.676c0.506-0.314,0.922-0.774,1.249-1.375c0.326-0.603,0.489-1.296,0.489-2.085
				c0-0.923-0.236-1.724-0.708-2.406c-0.473-0.68-1.128-1.158-1.967-1.435c-0.838-0.275-2.045-0.414-3.621-0.414h-5.721V95.194z"/>
		</g>
	</g>
</g>
<g>
	<g>
		<circle fill="#007ACC" cx="210" cy="90" r="28.078"/>
		<path fill="#66AFE0" d="M209.999,120C193.456,120,180,106.542,180,90c0-16.542,13.456-30,29.999-30c16.542,0,30,13.458,30,30
			C239.999,106.542,226.541,120,209.999,120z M209.999,63.846c-14.422,0-26.153,11.732-26.153,26.154
			c0,14.421,11.731,26.154,26.153,26.154S236.153,104.422,236.153,90C236.153,75.578,224.421,63.846,209.999,63.846z"/>
	</g>
	<g>
		<path fill="#FFFFFF" d="M216.258,74.637l-11.922,11.938l-7.528-5.93l-3.286,1.674v15.364l3.302,1.674l7.574-5.915l11.89,11.921
			l7.883-3.179V77.709L216.258,74.637z M197.084,93.534V86.39l3.75,3.734L197.084,93.534z M216.027,95.515L208.883,90l7.145-5.516
			V95.515z"/>
	</g>
</g>
<g>
	<g>
		<circle fill="#4B4B4B" cx="150" cy="90" r="28.077"/>
		<path fill="#6F6F6F" d="M150,120c-16.543,0-30-13.458-30-30c0-16.542,13.457-30,30-30c16.541,0,29.999,13.458,29.999,30
			C179.999,106.542,166.541,120,150,120z M150,63.846c-14.422,0-26.154,11.732-26.154,26.154c0,14.421,11.732,26.154,26.154,26.154
			c14.421,0,26.153-11.732,26.153-26.154C176.153,75.578,164.421,63.846,150,63.846z"/>
	</g>
	<g>
		<path fill="#FF9800" d="M162,82.407v-7.479c0-0.303-0.484-0.469-0.788-0.372l-22.796,7.172c-0.273,0.086-0.925,0.358-0.967,0.632
			c-0.005,0.027-0.449,0.048-0.449,0.079v0.011v7.468v0.012c0,0.033,0.386,0.057,0.392,0.086c0.046,0.271,0.449,0.537,0.721,0.624
			l9.896,3.101l-10.129,3.101c-0.306,0.096-0.88,0.42-0.88,0.722v7.481c0,0.301,0.623,0.469,0.927,0.372l23.098-7.172
			c0.306-0.098,0.975-0.419,0.975-0.722V97.44v-7.4v-0.081c0-0.302-0.482-0.625-0.788-0.721l-9.775-3.055l9.833-3.054
			C161.575,83.032,162,82.708,162,82.407z"/>
	</g>
</g>
<g>
</g>
<g>
</g>
<g>
</g>
<g>
</g>
<g>
</g>
<g>
</g>
<g>
</g>
<g>
</g>
<g>
</g>
<g>
</g>
<g>
</g>
<g>
</g>
<g>
</g>
<g>
</g>
<g>
</g>
</svg>
