<svg width="25" height="25" viewBox="0 0 25 25" fill="none" xmlns="http://www.w3.org/2000/svg">
<path d="M13.5675 2.96927L22.5675 11.9693C22.6372 12.0389 22.6925 12.1216 22.7303 12.2127C22.768 12.3037 22.7875 12.4013 22.7875 12.4999C22.7875 12.5985 22.768 12.6961 22.7303 12.7871C22.6925 12.8782 22.6372 12.9609 22.5675 13.0305L13.5675 22.0305C13.4626 22.1355 13.3289 22.2071 13.1833 22.236C13.0378 22.265 12.8869 22.2502 12.7498 22.1934C12.6127 22.1365 12.4955 22.0403 12.4131 21.9169C12.3307 21.7934 12.2867 21.6483 12.2869 21.4999L12.2869 17.7499L4.78687 17.7499C4.38904 17.7499 4.00751 17.5919 3.7262 17.3106C3.4449 17.0293 3.28686 16.6477 3.28686 16.2499L3.28686 8.7499C3.28686 8.35207 3.4449 7.97054 3.7262 7.68924C4.00751 7.40793 4.38904 7.2499 4.78686 7.2499L12.2869 7.2499L12.2869 3.49989C12.2867 3.35147 12.3307 3.20635 12.4131 3.08291C12.4955 2.95946 12.6127 2.86324 12.7498 2.80643C12.8869 2.74961 13.0378 2.73476 13.1833 2.76375C13.3289 2.79274 13.4626 2.86426 13.5675 2.96927Z" fill="#CED4DA"/>
</svg>
