<svg width="25" height="24" viewBox="0 0 25 24" fill="none" xmlns="http://www.w3.org/2000/svg">
<path d="M22.0307 13.2806L13.0307 22.2806C12.9611 22.3504 12.8784 22.4057 12.7873 22.4434C12.6963 22.4812 12.5987 22.5006 12.5001 22.5006C12.4015 22.5006 12.3039 22.4812 12.2129 22.4434C12.1218 22.4057 12.0391 22.3504 11.9695 22.2806L2.96948 13.2806C2.86447 13.1757 2.79294 13.042 2.76396 12.8965C2.73497 12.7509 2.74982 12.6 2.80664 12.4629C2.86345 12.3258 2.95967 12.2086 3.08312 12.1262C3.20656 12.0438 3.35168 11.9999 3.5001 12H7.2501V4.5C7.2501 4.10218 7.40814 3.72064 7.68944 3.43934C7.97075 3.15804 8.35228 3 8.7501 3H16.2501C16.6479 3 17.0295 3.15804 17.3108 3.43934C17.5921 3.72064 17.7501 4.10218 17.7501 4.5V12H21.5001C21.6485 11.9999 21.7936 12.0438 21.9171 12.1262C22.0405 12.2086 22.1368 12.3258 22.1936 12.4629C22.2504 12.6 22.2652 12.7509 22.2363 12.8965C22.2073 13.042 22.1357 13.1757 22.0307 13.2806Z" fill="#CED4DA"/>
</svg>
