<?xml version="1.0" encoding="UTF-8"?>
<svg width="300px" height="180px" viewBox="0 0 300 180" version="1.1" xmlns="http://www.w3.org/2000/svg" xmlns:xlink="http://www.w3.org/1999/xlink">
    <title>icon-sprites 2</title>
    <g id="Page-1" stroke="none" stroke-width="1" fill="none" fill-rule="evenodd">
        <g id="icon-sprites" fill-rule="nonzero">
            <g id="Group-Copy" transform="translate(60.000000, 120.000000)">
                <g id="Group">
                    <circle id="Oval" fill="#525967" cx="30" cy="30" r="28.077"></circle>
                    <path d="M30,60 C13.458,60 0,46.542 0,30 C0,13.458 13.458,0 30,0 C46.542,0 60,13.458 60,30 C60,46.542 46.542,60 30,60 Z M30,3.846 C15.579,3.846 3.846,15.578 3.846,30 C3.846,44.421 15.579,56.154 30,56.154 C44.422,56.154 56.154,44.421 56.154,30 C56.154,15.579 44.421,3.846 30,3.846 Z" id="Shape" fill="#454B57"></path>
                </g>
                <g id="Group" transform="translate(20.000000, 17.000000)">
                    <path d="M5.5,30 C6.95869078,30 8.35763727,29.4732158 9.38908733,28.5355339 C10.4205374,27.597852 11,26.3260824 11,25 L11,20 L5.5,20 C3.53503936,20 1.71934071,20.9529945 0.736860302,22.5 C-0.245620101,24.0470054 -0.245620101,25.9529946 0.736860302,27.5 C1.71934071,29.0470055 3.53503936,30 5.5,30 L5.5,30 Z" id="path0_fill" fill="#0ACF83"></path>
                    <path d="M0,15 C0,12.2385763 2.46243388,10 5.5,10 L11,10 L11,20 L5.5,20 C2.46243388,20 0,17.7614237 0,15 L0,15 Z" id="path1_fill" fill="#A259FF"></path>
                    <path d="M0,5 C0,2.23857625 2.46243388,0 5.5,0 L11,0 L11,10 L5.5,10 C4.04130931,10 2.64236278,9.4732158 1.6109127,8.53553391 C0.579462622,7.59785201 0,6.32608245 0,5 L0,5 Z" id="path1_fill-2" fill="#F24E1E"></path>
                    <path d="M10,0 L15.5,0 C18.5375661,0 21,2.23857625 21,5 C21,7.76142375 18.5375661,10 15.5,10 L10,10 L10,0 Z" id="path2_fill" fill="#FF7262"></path>
                    <path d="M21,15 C21,17.7614237 18.5375661,20 15.5,20 C12.4624339,20 10,17.7614237 10,15 C10,12.2385763 12.4624339,10 15.5,10 C18.5375661,10 21,12.2385763 21,15 L21,15 Z" id="path3_fill" fill="#1ABCFE"></path>
                </g>
            </g>
            <g id="Group-Copy-2" transform="translate(120.000000, 120.000000)">
                <g id="Group">
                    <circle id="Oval" fill="#6F6F6F" cx="30" cy="30" r="28.077"></circle>
                    <path d="M30,60 C13.458,60 0,46.542 0,30 C0,13.458 13.458,0 30,0 C46.542,0 60,13.458 60,30 C60,46.542 46.542,60 30,60 Z M30,3.846 C15.579,3.846 3.846,15.578 3.846,30 C3.846,44.421 15.579,56.154 30,56.154 C44.422,56.154 56.154,44.421 56.154,30 C56.154,15.579 44.421,3.846 30,3.846 Z" id="Shape" fill="#4B4B4B"></path>
                </g>
                <g id="Group" transform="translate(10.000000, 14.000000)">
                    <polygon id="Path" fill="#FDB300" points="8.72727277 1.18526786 20.0000001 0 31.2727273 1.18526786 40 12.8370536 20.0000001 36 0 12.8370536"></polygon>
                    <g transform="translate(0.000000, 13.000000)" id="Path">
                        <polygon fill="#EA6C00" points="8.08467005 0 19.9596954 22.9941747 0 0"></polygon>
                        <polygon fill="#EA6C00" transform="translate(29.939489, 11.497087) scale(-1, 1) translate(-29.939489, -11.497087) " points="28.0443115 0 39.9193369 22.9941747 19.9596414 0"></polygon>
                        <polygon fill="#FDAD00" points="8.08467005 0 31.8347208 0 19.9596954 22.9941747"></polygon>
                    </g>
                    <g id="Path">
                        <polygon fill="#FDD231" points="19.9596954 0 8.70964467 1.19917323 8.08467005 12.9878189"></polygon>
                        <polygon fill="#FDD231" transform="translate(25.897147, 6.493909) scale(-1, 1) translate(-25.897147, -6.493909) " points="31.8346595 0 20.5846087 1.19917323 19.9596341 12.9878189"></polygon>
                        <polygon fill="#FDAD00" transform="translate(35.564515, 7.093496) scale(-1, 1) translate(-35.564515, -7.093496) " points="31.2096414 12.9878189 39.9193876 1.19917323 39.2943115 12.9878189"></polygon>
                        <polygon fill="#FDAD00" points="0 12.9878189 8.70964467 1.19917323 8.08467005 12.9878189"></polygon>
                        <polygon fill="#FEEEB7" points="19.9596954 0 8.08467005 12.9878189 31.8347208 12.9878189"></polygon>
                    </g>
                </g>
            </g>
            <g id="Group" transform="translate(240.000000, 0.000000)">
                <g>
                    <circle id="Oval" fill="#0868AC" cx="30" cy="30" r="28.077"></circle>
                    <path d="M30,60 C13.458,60 0,46.542 0,30 C0,13.458 13.458,0 30,0 C46.542,0 59.999,13.458 59.999,30 C59.999,46.542 46.542,60 30,60 Z M30,3.846 C15.578,3.846 3.846,15.578 3.846,30 C3.846,44.421 15.578,56.154 30,56.154 C44.422,56.154 56.153,44.422 56.153,30 C56.153,15.578 44.422,3.846 30,3.846 Z" id="Shape" fill="#6BA4CD"></path>
                </g>
                <g transform="translate(13.000000, 12.000000)" fill="#FFFFFF" id="Shape">
                    <path d="M6.664,5.968 C4.568,8.981 4.828,12.901 6.431,16.102 L6.548,16.33 L6.623,16.474 L6.669,16.557 L6.754,16.706 C6.803,16.794 6.855,16.881 6.907,16.968 L6.993,17.113 C7.052,17.205 7.11,17.298 7.172,17.391 L7.247,17.508 C7.33,17.632 7.415,17.756 7.503,17.878 L7.511,17.888 L7.554,17.947 C7.631,18.051 7.709,18.156 7.788,18.259 L7.876,18.371 C7.948,18.459 8.02,18.549 8.094,18.637 L8.176,18.735 C8.275,18.851 8.375,18.967 8.478,19.081 L8.483,19.086 L8.496,19.099 C8.597,19.208 8.699,19.315 8.803,19.423 L8.901,19.521 C8.982,19.603 9.064,19.682 9.145,19.761 L9.247,19.856 C9.357,19.96 9.468,20.062 9.582,20.161 L9.587,20.166 L9.648,20.215 C9.746,20.302 9.848,20.389 9.951,20.472 L10.078,20.573 C10.161,20.641 10.247,20.707 10.332,20.772 L10.468,20.876 C10.563,20.945 10.657,21.013 10.752,21.08 L10.856,21.154 L10.884,21.174 C10.974,21.236 11.068,21.297 11.16,21.357 L11.279,21.437 C11.422,21.526 11.566,21.618 11.713,21.703 L11.833,21.77 C11.941,21.832 12.048,21.893 12.158,21.953 L12.338,22.045 L12.57,22.166 L12.624,22.192 L12.72,22.239 C12.842,22.296 12.965,22.354 13.089,22.409 L13.167,22.444 C13.31,22.505 13.452,22.565 13.596,22.623 L13.701,22.664 C13.835,22.717 13.971,22.767 14.108,22.815 L14.159,22.832 C14.308,22.885 14.46,22.933 14.611,22.98 L14.72,23.012 C14.874,23.058 15.028,23.115 15.187,23.145 C25.325,24.992 28.27,17.052 28.27,17.052 C25.796,20.274 21.406,21.124 17.247,20.178 C17.09,20.143 16.936,20.093 16.783,20.048 L16.667,20.012 C16.517,19.966 16.369,19.918 16.221,19.867 L16.159,19.845 C16.026,19.799 15.895,19.749 15.765,19.699 L15.655,19.656 C15.511,19.6 15.37,19.542 15.229,19.48 L15.145,19.442 C15.024,19.386 14.904,19.332 14.786,19.276 L14.682,19.225 C14.589,19.181 14.496,19.131 14.405,19.084 L14.219,18.986 C14.108,18.926 13.995,18.865 13.887,18.801 L13.775,18.738 C13.629,18.652 13.485,18.563 13.341,18.473 L13.224,18.395 C13.12,18.328 13.018,18.26 12.915,18.189 L12.814,18.119 C12.717,18.05 12.62,17.98 12.523,17.909 L12.395,17.811 C12.306,17.744 12.218,17.675 12.132,17.605 L12.014,17.511 C11.904,17.42 11.794,17.329 11.687,17.235 L11.651,17.206 C11.535,17.103 11.42,16.997 11.306,16.892 L11.21,16.798 C11.125,16.719 11.043,16.639 10.962,16.556 L10.865,16.458 C10.762,16.353 10.66,16.247 10.561,16.138 L10.546,16.121 C10.441,16.007 10.337,15.891 10.238,15.771 L10.157,15.675 C10.083,15.585 10.008,15.494 9.935,15.4 L9.854,15.299 C9.767,15.186 9.681,15.072 9.597,14.958 C7.288,11.807 6.457,7.464 8.304,3.895 M13.171,3.43 C11.656,5.612 11.736,8.532 12.92,10.838 C13.119,11.225 13.343,11.602 13.591,11.958 C13.819,12.284 14.07,12.671 14.37,12.933 C14.48,13.054 14.595,13.17 14.712,13.287 L14.8,13.375 C14.914,13.485 15.029,13.592 15.15,13.697 L15.164,13.71 L15.167,13.713 C15.298,13.828 15.434,13.94 15.572,14.049 L15.664,14.12 C15.803,14.226 15.944,14.33 16.09,14.43 L16.102,14.439 L16.296,14.567 L16.388,14.627 C16.492,14.694 16.597,14.759 16.703,14.821 L16.747,14.846 C16.839,14.9 16.932,14.951 17.025,15.002 L17.123,15.053 L17.318,15.155 L17.346,15.168 C17.48,15.233 17.615,15.297 17.753,15.357 L17.842,15.393 C17.951,15.44 18.064,15.487 18.175,15.528 L18.318,15.581 C18.42,15.619 18.521,15.654 18.624,15.687 L18.762,15.732 C18.908,15.775 19.052,15.833 19.203,15.86 C27.03,17.155 28.838,11.129 28.838,11.129 C27.209,13.477 24.055,14.596 20.689,13.723 C20.539,13.683 20.392,13.639 20.246,13.594 L20.112,13.551 C20.008,13.517 19.905,13.483 19.802,13.443 L19.661,13.391 C19.549,13.349 19.438,13.304 19.327,13.257 L19.237,13.221 C19.099,13.159 18.963,13.096 18.829,13.031 L18.624,12.927 L18.508,12.865 C18.421,12.818 18.332,12.768 18.248,12.719 L18.186,12.684 C18.081,12.622 17.975,12.558 17.873,12.493 L17.778,12.43 L17.575,12.296 C17.43,12.196 17.291,12.091 17.152,11.986 L17.057,11.91 C15.583,10.748 14.415,9.157 13.86,7.355 C13.278,5.485 13.403,3.387 14.412,1.684 M18.644,1.533 C17.751,2.849 17.664,4.481 18.284,5.933 C18.937,7.475 20.277,8.684 21.841,9.258 L22.036,9.326 L22.121,9.353 C22.214,9.381 22.304,9.415 22.399,9.433 C26.721,10.268 27.894,7.216 28.206,6.766 C27.179,8.245 25.453,8.599 23.336,8.085 C23.168,8.045 22.986,7.985 22.824,7.927 C22.616,7.853 22.414,7.77 22.216,7.675 C21.84,7.494 21.482,7.276 21.15,7.024 C19.254,5.587 18.078,2.845 19.314,0.611"></path>
                    <path d="M17.671,27.603 L16.466,27.603 C16.4,27.603 16.332,27.656 16.319,27.722 L15.891,29.701 L15.464,31.68 C15.449,31.744 15.382,31.799 15.317,31.799 L14.463,31.799 C13.62,31.799 13.716,31.215 13.89,30.416 L13.895,30.392 L13.915,30.291 L13.918,30.272 L13.957,30.066 L13.998,29.846 L14.042,29.621 L14.236,28.672 L14.43,27.722 C14.444,27.656 14.4,27.602 14.333,27.602 L13.096,27.602 C13.031,27.602 12.963,27.656 12.95,27.722 L12.684,28.983 L12.417,30.245 L12.417,30.246 L12.393,30.364 C12.087,31.762 12.167,33.096 13.832,33.137 L13.88,33.137 L16.492,33.137 C16.559,33.137 16.626,33.083 16.639,33.02 L17.203,30.371 L17.765,27.722 C17.782,27.656 17.737,27.603 17.671,27.603 Z M4.767,27.589 L3.445,27.589 C3.378,27.589 3.311,27.642 3.296,27.707 L3.171,28.261 L3.047,28.816 C3.032,28.88 3.073,28.934 3.142,28.934 L4.474,28.934 C4.541,28.934 4.608,28.88 4.622,28.815 L4.743,28.261 L4.865,27.709 C4.877,27.643 4.834,27.589 4.767,27.589 Z M4.382,29.312 L3.05,29.312 C2.983,29.312 2.916,29.366 2.901,29.431 L2.713,30.261 L2.526,31.091 L2.474,31.328 L2.294,32.175 L2.114,33.023 C2.099,33.087 2.071,33.194 2.05,33.257 C2.05,33.257 1.8,33.997 1.382,33.99 L1.328,33.989 L0.967,33.982 L0.967,33.982 C0.901,33.981 0.832,34.033 0.817,34.097 L0.679,34.68 L0.541,35.261 C0.525,35.325 0.566,35.379 0.634,35.381 C0.872,35.383 1.405,35.39 1.726,35.39 C2.773,35.39 3.324,34.81 3.678,33.141 L4.092,31.226 L4.479,29.43 C4.494,29.366 4.45,29.312 4.382,29.312 Z M28.939,28.863 L28.882,28.635 L28.828,28.401 L28.801,28.283 C28.693,27.861 28.375,27.618 27.683,27.618 L26.609,27.617 L25.62,27.616 L24.506,27.616 C24.438,27.616 24.373,27.67 24.359,27.736 L24.31,27.968 L24.252,28.243 L24.234,28.321 L23.734,30.67 L23.256,32.901 C23.2409622,32.966 23.237,33.046 23.245,33.079 C23.254,33.113 23.382,33.139 23.449,33.139 L24.453,33.139 C24.52,33.139 24.604,33.126 24.641,33.113 C24.677,33.098 24.731,32.967 24.745,32.901 L24.924,32.017 L25.104,31.135 L25.104,31.134 L25.127,31.016 L25.344,30 L25.535,29.103 C25.55,29.038 25.616,28.985 25.682,28.985 L28.844,28.984 C28.911,28.982 28.955,28.929 28.939,28.863 L28.939,28.863 Z M33.01,26.799 L32.767,26.8 L31.754,26.8 C31.687,26.8 31.601,26.845 31.565,26.9 L29.326,30.179 C29.29,30.234 29.246,30.226 29.23,30.161 L29.064,29.44 C29.051,29.375 28.984,29.321 28.917,29.321 L27.479,29.321 C27.411,29.321 27.371,29.373 27.39,29.437 L28.035,31.695 C28.054,31.759 28.056,31.864 28.038,31.931 L27.757,33.023 C27.741,33.088 27.781,33.141 27.848,33.141 L29.272,33.141 C29.337,33.141 29.407,33.088 29.422,33.023 L29.704,31.931 C29.721,31.865 29.766,31.769 29.807,31.715 L33.441,26.893 C33.482,26.84 33.46,26.796 33.394,26.796 L33.01,26.799 Z M21.579,29.627 L21.579,29.626 C21.571,29.699 21.503,29.753 21.436,29.753 L19.612,29.753 C19.549,29.753 19.516,29.71 19.526,29.657 L19.527,29.653 L19.526,29.653 L19.527,29.647 L19.535,29.616 C19.71,29.152 20.065,28.848 20.731,28.848 C21.483,28.848 21.63,29.215 21.579,29.627 L21.579,29.627 Z M21.043,27.521 C18.702,27.521 18.147,28.943 17.836,30.377 C17.524,31.839 17.551,33.208 19.975,33.208 L20.269,33.208 L20.341,33.207 L20.359,33.207 L20.648,33.207 L20.654,33.207 C21.294,33.203 21.935,33.199 22.195,33.196 C22.261,33.196 22.326,33.142 22.34,33.077 L22.439,32.597 L22.458,32.504 L22.575,31.932 C22.589,31.868 22.546,31.814 22.478,31.814 L20.299,31.814 C19.434,31.814 19.177,31.584 19.272,30.907 L22.753,30.907 L22.753,30.907 L22.755,30.907 C22.811,30.906 22.861,30.868 22.882,30.818 L22.891,30.787 L22.891,30.787 C23.407,28.836 23.259,27.522 21.043,27.521 L21.043,27.521 Z M9.978,29.621 L9.945,29.737 L9.945,29.737 L9.681,30.669 L9.418,31.601 C9.399,31.666 9.33,31.718 9.263,31.718 L7.872,31.718 C6.816,31.718 6.56,30.892 6.816,29.675 C7.072,28.43 7.577,27.655 8.615,27.577 C10.036,27.47 10.32,28.468 9.978,29.621 L9.978,29.621 Z M10.933,31.646 C10.933,31.646 11.588,30.053 11.737,29.132 C11.941,27.901 11.325,26.114 8.942,26.114 C6.574,26.114 5.546,27.821 5.153,29.674 C4.76,31.543 5.274,33.181 7.63,33.166 L9.488,33.159 L11.223,33.152 C11.289,33.152 11.359,33.099 11.376,33.034 L11.679,31.88 C11.695,31.816 11.655,31.763 11.587,31.761 L11.298,31.76 L11.007,31.758 C10.951,31.758 10.918,31.72 10.925,31.672 L10.933,31.646 Z M22.657,30.579 C22.657,30.623 22.621,30.66 22.576,30.66 C22.532,30.66 22.497,30.623 22.497,30.579 C22.497,30.535 22.532,30.5 22.576,30.5 C22.621,30.5 22.657,30.535 22.657,30.579 Z"></path>
                </g>
            </g>
            <g id="Group">
                <g>
                    <circle id="Oval" fill="#0C61C6" cx="30" cy="30" r="28.077"></circle>
                    <path d="M30,60 C13.458,60 0,46.542 0,30 C0,13.458 13.458,0 30,0 C46.542,0 60,13.458 60,30 C60,46.542 46.542,60 30,60 Z M30,3.846 C15.579,3.846 3.846,15.579 3.846,30 C3.846,44.422 15.578,56.154 30,56.154 C44.421,56.154 56.154,44.422 56.154,30 C56.154,15.579 44.421,3.846 30,3.846 Z" id="Shape" fill="#CCEFFF"></path>
                </g>
                <g transform="translate(15.000000, 20.000000)" fill="#CCEFFF">
                    <path d="M0.907,21.013 L0.907,0.681 L7.494,0.681 C9.991,0.681 11.618,0.783 12.375,0.986 C13.54,1.291 14.516,1.955 15.301,2.976 C16.087,3.997 16.48,5.317 16.48,6.936 C16.48,8.184 16.253,9.233 15.801,10.084 C15.347,10.935 14.772,11.602 14.074,12.088 C13.376,12.573 12.666,12.895 11.946,13.051 C10.966,13.245 9.546,13.343 7.688,13.343 L5.012,13.343 L5.012,21.012 L0.907,21.012 L0.907,21.013 Z M5.012,4.121 L5.012,9.89 L7.259,9.89 C8.877,9.89 9.959,9.785 10.505,9.571 C11.05,9.359 11.478,9.026 11.788,8.573 C12.098,8.12 12.252,7.593 12.252,6.991 C12.252,6.252 12.035,5.642 11.6,5.16 C11.165,4.68 10.615,4.379 9.95,4.259 C9.459,4.167 8.474,4.12 6.995,4.12 L5.012,4.12 L5.012,4.121 Z" id="Shape"></path>
                    <path d="M17.031,16.81 L20.942,16.214 C21.108,16.972 21.446,17.548 21.954,17.941 C22.463,18.334 23.175,18.531 24.09,18.531 C25.098,18.531 25.856,18.346 26.365,17.976 C26.707,17.717 26.878,17.371 26.878,16.935 C26.878,16.639 26.786,16.394 26.601,16.2 C26.407,16.015 25.972,15.844 25.297,15.687 C22.153,14.994 20.161,14.36 19.32,13.787 C18.155,12.992 17.572,11.887 17.572,10.473 C17.572,9.197 18.076,8.124 19.084,7.256 C20.091,6.386 21.654,5.952 23.772,5.952 C25.787,5.952 27.285,6.28 28.265,6.937 C29.244,7.593 29.92,8.564 30.29,9.849 L26.615,10.528 C26.457,9.955 26.159,9.515 25.72,9.211 C25.281,8.906 24.655,8.753 23.841,8.753 C22.814,8.753 22.08,8.897 21.636,9.183 C21.34,9.386 21.192,9.65 21.192,9.974 C21.192,10.251 21.322,10.487 21.58,10.681 C21.932,10.94 23.145,11.306 25.221,11.777 C27.297,12.248 28.746,12.826 29.569,13.51 C30.382,14.204 30.79,15.17 30.79,16.409 C30.79,17.759 30.226,18.919 29.098,19.89 C27.97,20.861 26.301,21.347 24.091,21.347 C22.085,21.347 20.497,20.94 19.327,20.126 C18.156,19.312 17.391,18.207 17.031,16.81 Z" id="Path"></path>
                </g>
            </g>
            <g id="Group" transform="translate(60.000000, 0.000000)">
                <g>
                    <circle id="Oval" fill="#994C0F" cx="30" cy="30" r="28.077"></circle>
                    <path d="M30,60 C13.458,60 0,46.542 0,30 C0,13.458 13.458,0 30,0 C46.542,0 60,13.458 60,30 C60,46.542 46.542,60 30,60 Z M30,3.846 C15.579,3.846 3.846,15.579 3.846,30 C3.846,44.421 15.579,56.154 30,56.154 C44.422,56.154 56.154,44.421 56.154,30 C56.154,15.579 44.421,3.846 30,3.846 Z" id="Shape" fill="#FEC478"></path>
                </g>
                <g transform="translate(16.000000, 21.000000)" fill="#FEC478" id="Shape">
                    <path d="M20.55,20.397 L16.084,20.397 L14.309,15.778 L6.182,15.778 L4.504,20.397 L0.15,20.397 L8.068,0.065 L12.409,0.065 L20.55,20.397 Z M12.992,12.354 L10.191,4.81 L7.445,12.354 L12.992,12.354 Z"></path>
                    <path d="M21.28,3.672 L21.28,0.066 L25.177,0.066 L25.177,3.672 L21.28,3.672 L21.28,3.672 Z M21.28,20.397 L21.28,5.669 L25.177,5.669 L25.177,20.398 L21.28,20.398 L21.28,20.397 Z"></path>
                </g>
            </g>
            <g id="Group" transform="translate(0.000000, 120.000000)">
                <g>
                    <circle id="Oval" fill="#270114" cx="30" cy="30" r="28.077"></circle>
                    <path d="M30,60 C13.458,60 0,46.542 0,30 C0,13.458 13.458,0 30,0 C46.542,0 60,13.458 60,30 C60,46.542 46.542,60 30,60 Z M30,3.846 C15.579,3.846 3.846,15.578 3.846,30 C3.846,44.421 15.579,56.154 30,56.154 C44.422,56.154 56.154,44.421 56.154,30 C56.154,15.579 44.421,3.846 30,3.846 Z" id="Shape" fill="#FD6BA5"></path>
                </g>
                <g transform="translate(18.000000, 16.000000)" fill="#FD6BA5">
                    <polygon id="Path" points="0.498 0.996 4.491 0.996 4.491 25.127 0.498 25.127"></polygon>
                    <path d="M20.119,0.464 L24.04,0.464 L24.04,25.127 L20.119,25.127 L20.119,22.475 C19.75,23.667 18.586,24.727 17.816,25.048 C17.046,25.369 16.212,25.529 15.313,25.529 C13.294,25.529 11.549,24.746 10.076,23.18 C8.603,21.614 7.867,18.667 7.867,16.341 C7.867,13.927 8.579,10.95 10.005,9.408 C11.43,7.866 13.161,7.096 15.199,7.096 C16.136,7.096 17.016,7.273 17.839,7.627 C18.661,7.981 19.422,8.513 20.12,9.222 L20.12,0.464 L20.119,0.464 Z M15.997,10.715 C14.785,10.715 13.778,11.144 12.976,12.001 C12.174,12.858 11.773,14.958 11.773,16.298 C11.773,17.649 12.181,19.76 12.997,20.631 C13.813,21.503 14.817,21.938 16.011,21.938 C17.242,21.938 18.263,21.51 19.074,20.652 C19.885,19.795 20.291,17.672 20.291,16.283 C20.291,14.923 19.885,12.822 19.074,11.979 C18.263,11.136 17.238,10.715 15.997,10.715 Z" id="Shape"></path>
                </g>
            </g>
            <g id="Group" transform="translate(240.000000, 60.000000)">
                <g>
                    <circle id="Oval" fill="#2E372E" cx="30" cy="30" r="28.077"></circle>
                    <path d="M30,60 C13.457,60 0,46.542 0,30 C0,13.458 13.457,0 30,0 C46.542,0 60,13.458 60,30 C60,46.542 46.542,60 30,60 Z M30,3.846 C15.578,3.846 3.846,15.578 3.846,30 C3.846,44.421 15.578,56.154 30,56.154 C44.422,56.154 56.154,44.422 56.154,30 C56.154,15.578 44.422,3.846 30,3.846 Z" id="Shape" fill="#9CE43C"></path>
                </g>
                <g transform="translate(12.000000, 21.000000)" fill="#9CE43C">
                    <path d="M0.045,0.066 L7.547,0.066 C9.239,0.066 10.528,0.196 11.417,0.455 C12.609,0.807 13.632,1.43 14.481,2.327 C15.332,3.224 15.979,4.322 16.422,5.621 C16.867,6.92 17.088,8.521 17.088,10.427 C17.088,12.101 16.88,13.543 16.464,14.754 C15.955,16.234 15.23,17.431 14.287,18.346 C13.574,19.039 12.613,19.581 11.402,19.969 C10.495,20.256 9.284,20.399 7.767,20.399 L0.043,20.399 L0.043,0.066 L0.045,0.066 Z M4.149,3.506 L4.149,16.972 L7.214,16.972 C8.36,16.972 9.188,16.907 9.695,16.778 C10.361,16.611 10.914,16.329 11.353,15.932 C11.792,15.534 12.15,14.88 12.428,13.969 C12.705,13.058 12.843,11.817 12.843,10.245 C12.843,8.673 12.705,7.467 12.428,6.626 C12.15,5.785 11.762,5.128 11.262,4.656 C10.763,4.184 10.13,3.866 9.363,3.698 C8.789,3.569 7.667,3.505 5.994,3.505 L4.149,3.505 L4.149,3.506 Z" id="Shape"></path>
                    <polygon id="Path" points="21.868 20.397 17.208 5.669 20.995 5.669 23.755 15.321 26.292 5.669 30.052 5.669 32.506 15.321 35.319 5.669 39.161 5.669 34.432 20.397 30.688 20.397 28.15 10.924 25.654 20.397"></polygon>
                </g>
            </g>
            <g id="Group" transform="translate(180.000000, 0.000000)">
                <g>
                    <circle id="Oval" fill="#1572B6" cx="30" cy="30" r="28.078"></circle>
                    <path d="M29.999,60 C13.457,60 0,46.542 0,30 C0,13.458 13.457,0 29.999,0 C46.541,0 59.999,13.458 59.999,30 C59.999,46.542 46.541,60 29.999,60 Z M29.999,3.846 C15.577,3.846 3.846,15.578 3.846,30 C3.846,44.421 15.577,56.154 29.999,56.154 C44.421,56.154 56.153,44.422 56.153,30 C56.153,15.578 44.421,3.846 29.999,3.846 Z" id="Shape" fill="#33A9DC"></path>
                </g>
                <polygon id="Path" fill="#FFFFFF" points="30.008 15 30.008 15 19.615 15 19.712 15.681 19.899 17.418 19.981 18 30.008 18 30.008 18 35.644 18 35.271 23 29.854 23 24.986 23 25.083 23.824 25.271 25.99 25.353 27 29.854 27 34.907 27 34.496 32.078 30 33.271 30 34 29.86 34 25.302 32.517 25.01 29 20.901 29 21.475 35.22 29.926 37.445 30 37.34 30 37.341 38.322 35.016 38.352 34.553 39.031 27 39.022 27 40.023 15.909 40.119 15"></polygon>
                <path d="M39.273,44.027 L36.558,44.027 L39.381,47.089 L39.381,48.546 L33.568,48.546 L33.568,46.839 L36.39,46.839 L33.568,43.776 L33.568,42.318 L39.273,42.318 L39.273,44.027 L39.273,44.027 Z M32.416,44.027 L29.703,44.027 L32.524,47.089 L32.524,48.546 L26.712,48.546 L26.712,46.839 L29.534,46.839 L26.712,43.776 L26.712,42.318 L32.416,42.318 L32.416,44.027 Z M25.626,44.095 L22.699,44.095 L22.699,46.766 L25.627,46.766 L25.627,48.545 L20.617,48.545 L20.617,42.316 L25.627,42.316 L25.626,44.095 L25.626,44.095 Z" id="Shape" fill="#FFFFFF"></path>
            </g>
            <g id="Group" transform="translate(120.000000, 0.000000)">
                <g>
                    <circle id="Oval" fill="#E44D26" cx="30" cy="30" r="28.077"></circle>
                    <path d="M30,60 C13.457,60 0,46.542 0,30 C0,13.458 13.458,0 30,0 C46.541,0 60,13.458 60,30 C60,46.542 46.542,60 30,60 Z M30,3.846 C15.578,3.846 3.846,15.578 3.846,30 C3.846,44.421 15.578,56.154 30,56.154 C44.421,56.154 56.154,44.422 56.154,30 C56.154,15.578 44.421,3.846 30,3.846 Z" id="Shape" fill="#F48454"></path>
                </g>
                <path d="M17.689,42.32 L19.768,42.32 L19.768,44.375 L21.672,44.375 L21.672,42.32 L23.753,42.32 L23.753,48.545 L21.672,48.545 L21.672,46.46 L19.768,46.46 L19.768,48.545 L17.687,48.545 L17.687,42.32 L17.689,42.32 Z M26.488,44.384 L24.656,44.384 L24.656,42.32 L30.401,42.32 L30.401,44.384 L28.568,44.384 L28.568,48.545 L26.488,48.545 L26.488,44.384 Z M31.312,42.32 L33.48,42.32 L34.815,44.508 L36.148,42.32 L38.318,42.32 L38.318,48.545 L36.245,48.545 L36.245,45.46 L34.815,47.671 L34.779,47.671 L33.347,45.46 L33.347,48.544 L31.311,48.544 L31.311,42.32 L31.312,42.32 Z M39.354,42.32 L41.435,42.32 L41.435,46.488 L44.36,46.488 L44.36,48.545 L39.354,48.545 L39.354,42.32 Z" id="Shape" fill="#FFFFFF"></path>
                <polygon id="Path" fill="#FFFFFF" points="30.397 15 30.382 15 20.133 15 20.23 15.909 21.235 27 30.777 27 30.777 27 35.422 27 34.948 32.208 30.397 33.386 30.397 33.386 30.202 33.361 30 33.384 30 34 30.379 34 25.821 32.516 25.529 29 21.42 29 21.994 35.349 30.181 37.638 30 37.594 30 37.593 38.575 35.271 38.737 34.58 39.747 23.95 39.897 23 38.792 23 30.397 23 30.382 23 24.979 23 24.607 19 30.777 19 30.777 19 40.27 19 40.352 17.837 40.54 15.93 40.637 15"></polygon>
            </g>
            <g id="Group" transform="translate(0.000000, 60.000000)">
                <g>
                    <circle id="Oval" fill="#CD6699" cx="29.999" cy="30" r="28.077"></circle>
                    <path d="M29.999,60 C13.457,60 0,46.542 0,30 C0,13.458 13.457,0 29.999,0 C46.541,0 59.999,13.458 59.999,30 C59.999,46.542 46.541,60 29.999,60 Z M29.999,3.846 C15.577,3.846 3.846,15.578 3.846,30 C3.846,44.421 15.577,56.154 29.999,56.154 C44.42,56.154 56.153,44.422 56.153,30 C56.153,15.578 44.42,3.846 29.999,3.846 Z" id="Shape" fill="#E1A3C2"></path>
                </g>
                <path d="M25.361,30.083 C25.424,29.957 25.621,29.894 25.764,29.81 C26.338,29.476 26.917,29.144 27.51,28.805 C29.206,27.737 29.651,26.301 29.651,26.301 C28.428,26.967 25.981,28.272 24.761,28.943 C24.628,29.018 24.531,28.996 24.434,28.894 C23.82,28.237 23.101,27.693 22.397,27.142 C21.411,26.371 20.389,25.641 19.538,24.711 C19.041,24.167 18.624,23.572 18.416,22.853 C18.077,21.677 18.33,20.58 18.895,19.54 C19.561,18.309 20.55,17.358 21.642,16.51 C23.376,15.166 25.277,14.099 27.282,13.22 C29.526,12.237 31.852,11.603 34.333,11.699 C35.315,11.737 36.268,11.907 37.145,12.387 C37.763,12.728 38.172,13.22 38.289,13.942 C38.427,14.787 38.223,15.567 37.848,16.308 C37.01,17.963 35.677,19.134 34.102,20.052 C32.79,20.815 31.376,21.301 29.878,21.554 C29.05,21.696 28.221,21.781 27.387,21.654 C26.433,21.508 25.55,21.19 24.896,20.42 C24.822,20.332 24.726,20.27 24.597,20.332 C24.466,20.396 24.477,20.514 24.489,20.624 C24.498,20.701 24.517,20.779 24.546,20.853 C24.722,21.323 25.049,21.68 25.431,21.99 C26.427,22.801 27.609,23.038 28.847,23.063 C30.06,23.087 31.255,22.933 32.436,22.651 C35.103,22.013 37.334,20.706 38.966,18.464 C39.941,17.123 40.557,15.648 40.503,13.959 C40.467,12.887 40.107,11.941 39.326,11.172 C38.397,10.259 37.245,9.799 36.009,9.524 C34.631,9.218 33.239,9.174 31.836,9.342 C30.614,9.488 29.419,9.738 28.258,10.139 C26.479,10.752 24.76,11.505 23.115,12.42 C21.431,13.358 19.843,14.43 18.452,15.775 C17.22,16.963 16.16,18.276 15.563,19.907 C15.307,20.604 15.126,21.32 15.296,22.075 C15.514,23.046 15.993,23.886 16.622,24.645 C17.574,25.794 18.742,26.699 19.947,27.563 C20.914,28.256 21.927,28.889 22.856,29.636 C23.119,29.846 23.117,29.846 22.807,30.009 C22.445,30.198 22.08,30.379 21.723,30.581 C20.289,31.393 18.903,32.271 17.768,33.494 C17.21,34.095 16.833,34.773 16.658,35.522 C16.354,36.474 16.806,37.604 17.412,38.108 C18.049,38.639 19.465,38.974 20.632,38.785 C22.747,38.62 23.648,37.974 24.845,36.153 C25.422,35.276 25.692,34.281 25.795,33.232 C25.884,32.308 25.79,31.412 25.518,30.53 C25.47,30.375 25.293,30.22 25.361,30.083 Z M24.117,32.304 C24.182,34.396 22.662,36.431 20.782,37.097 C20.428,37.222 20.057,37.276 19.678,37.247 C19.209,37.208 18.91,36.878 18.88,36.379 C18.847,35.803 19.017,35.284 19.267,34.779 C19.726,33.863 20.495,33.239 21.277,32.629 C22.039,32.035 22.86,31.527 23.688,31.035 C23.94,30.886 23.944,30.887 24,31.185 C24.076,31.57 24.143,31.956 24.117,32.304 Z" id="Shape" fill="#F2F2F2"></path>
                <g transform="translate(19.000000, 41.000000)" fill="#FFFFFF" id="Path">
                    <path d="M5.606,6.129 C5.606,6.577 5.523,6.967 5.357,7.307 C5.192,7.644 4.965,7.924 4.682,8.149 C4.399,8.376 4.067,8.544 3.686,8.657 C3.305,8.772 2.898,8.828 2.465,8.828 C2.171,8.828 1.9,8.803 1.648,8.756 C1.397,8.709 1.172,8.65 0.982,8.583 C0.791,8.513 0.63,8.443 0.498,8.368 C0.369,8.292 0.278,8.228 0.221,8.171 C0.165,8.114 0.122,8.034 0.1,7.926 C0.075,7.82 0.064,7.665 0.064,7.463 C0.064,7.328 0.066,7.214 0.078,7.121 C0.087,7.031 0.103,6.956 0.118,6.899 C0.14,6.841 0.168,6.8 0.197,6.777 C0.233,6.752 0.268,6.741 0.313,6.741 C0.375,6.741 0.461,6.777 0.571,6.849 C0.683,6.923 0.826,7.001 1.002,7.088 C1.177,7.175 1.388,7.255 1.627,7.328 C1.871,7.401 2.156,7.436 2.474,7.436 C2.681,7.436 2.869,7.409 3.036,7.359 C3.204,7.308 3.344,7.238 3.461,7.146 C3.577,7.054 3.664,6.94 3.726,6.805 C3.787,6.668 3.82,6.516 3.82,6.351 C3.82,6.158 3.767,5.994 3.66,5.855 C3.557,5.719 3.417,5.596 3.251,5.488 C3.084,5.379 2.892,5.28 2.678,5.187 C2.464,5.094 2.241,4.993 2.015,4.887 C1.787,4.783 1.568,4.665 1.355,4.531 C1.138,4.398 0.948,4.239 0.782,4.051 C0.612,3.865 0.476,3.649 0.371,3.391 C0.265,3.14 0.213,2.835 0.213,2.481 C0.213,2.074 0.29,1.715 0.437,1.407 C0.59,1.099 0.795,0.842 1.051,0.639 C1.303,0.437 1.608,0.284 1.956,0.182 C2.301,0.084 2.669,0.034 3.06,0.034 C3.263,0.034 3.465,0.048 3.663,0.079 C3.866,0.109 4.055,0.152 4.228,0.204 C4.405,0.255 4.559,0.315 4.696,0.38 C4.83,0.446 4.921,0.502 4.965,0.545 C5.009,0.589 5.036,0.625 5.053,0.656 C5.07,0.687 5.081,0.728 5.091,0.779 C5.101,0.83 5.111,0.893 5.115,0.968 C5.117,1.045 5.12,1.141 5.12,1.254 C5.12,1.382 5.117,1.489 5.11,1.575 C5.103,1.662 5.093,1.735 5.081,1.794 C5.062,1.851 5.04,1.891 5.014,1.918 C4.985,1.944 4.949,1.958 4.898,1.958 C4.849,1.958 4.774,1.927 4.668,1.866 C4.564,1.805 4.433,1.737 4.282,1.666 C4.128,1.593 3.949,1.529 3.75,1.468 C3.548,1.41 3.328,1.381 3.088,1.381 C2.901,1.381 2.734,1.405 2.596,1.451 C2.456,1.497 2.339,1.559 2.243,1.639 C2.151,1.72 2.08,1.82 2.036,1.931 C1.986,2.046 1.965,2.165 1.965,2.292 C1.965,2.48 2.017,2.643 2.117,2.78 C2.223,2.919 2.357,3.041 2.534,3.147 C2.705,3.255 2.901,3.357 3.119,3.449 C3.34,3.543 3.561,3.641 3.787,3.747 C4.016,3.853 4.238,3.974 4.458,4.105 C4.678,4.238 4.87,4.397 5.041,4.585 C5.212,4.769 5.349,4.988 5.455,5.241 C5.556,5.493 5.606,5.789 5.606,6.129 Z"></path>
                    <path d="M11.257,7.522 C11.257,7.638 11.255,7.73 11.247,7.808 C11.241,7.885 11.233,7.949 11.221,8 C11.211,8.054 11.196,8.096 11.18,8.129 C11.166,8.163 11.131,8.203 11.08,8.255 C11.028,8.303 10.939,8.366 10.81,8.438 C10.681,8.51 10.539,8.574 10.375,8.631 C10.215,8.69 10.04,8.735 9.851,8.769 C9.66,8.803 9.463,8.822 9.261,8.822 C8.811,8.822 8.41,8.751 8.065,8.611 C7.715,8.472 7.423,8.263 7.188,7.99 C6.953,7.717 6.772,7.386 6.652,6.99 C6.531,6.596 6.472,6.146 6.472,5.64 C6.472,5.053 6.546,4.545 6.691,4.121 C6.837,3.694 7.044,3.342 7.305,3.06 C7.57,2.781 7.88,2.574 8.239,2.436 C8.596,2.302 8.99,2.234 9.42,2.234 C9.596,2.234 9.764,2.25 9.933,2.278 C10.103,2.309 10.261,2.353 10.406,2.405 C10.552,2.458 10.685,2.515 10.802,2.584 C10.918,2.647 10.998,2.705 11.049,2.753 C11.095,2.8 11.126,2.841 11.15,2.874 C11.17,2.906 11.181,2.951 11.193,3.002 C11.205,3.053 11.214,3.12 11.219,3.196 C11.226,3.273 11.232,3.365 11.232,3.475 C11.232,3.728 11.207,3.907 11.165,4.011 C11.12,4.112 11.064,4.163 10.992,4.163 C10.919,4.163 10.84,4.135 10.756,4.072 C10.674,4.01 10.572,3.942 10.463,3.869 C10.348,3.793 10.213,3.728 10.056,3.666 C9.898,3.605 9.71,3.573 9.492,3.573 C9.062,3.573 8.733,3.738 8.508,4.069 C8.28,4.401 8.167,4.884 8.167,5.523 C8.167,5.837 8.194,6.116 8.253,6.356 C8.308,6.595 8.392,6.799 8.504,6.96 C8.616,7.123 8.755,7.245 8.925,7.325 C9.092,7.405 9.288,7.447 9.511,7.447 C9.741,7.447 9.933,7.412 10.098,7.345 C10.26,7.278 10.407,7.202 10.53,7.118 C10.653,7.035 10.756,6.96 10.839,6.891 C10.921,6.824 10.991,6.79 11.05,6.79 C11.088,6.79 11.12,6.803 11.148,6.824 C11.173,6.845 11.192,6.886 11.21,6.945 C11.228,7.003 11.237,7.078 11.244,7.171 C11.252,7.26 11.257,7.379 11.257,7.522 Z"></path>
                    <path d="M16.574,6.802 C16.574,7.134 16.51,7.426 16.386,7.68 C16.261,7.932 16.087,8.145 15.858,8.317 C15.629,8.487 15.362,8.615 15.05,8.701 C14.739,8.787 14.402,8.828 14.038,8.828 C13.821,8.828 13.61,8.812 13.415,8.779 C13.216,8.748 13.037,8.704 12.879,8.654 C12.723,8.603 12.59,8.552 12.485,8.5 C12.38,8.448 12.302,8.396 12.253,8.352 C12.206,8.305 12.17,8.235 12.145,8.136 C12.119,8.037 12.105,7.89 12.105,7.697 C12.105,7.572 12.11,7.468 12.119,7.393 C12.127,7.317 12.14,7.256 12.158,7.208 C12.175,7.164 12.197,7.132 12.224,7.117 C12.248,7.101 12.284,7.094 12.321,7.094 C12.37,7.094 12.44,7.119 12.535,7.174 C12.629,7.228 12.745,7.29 12.886,7.357 C13.027,7.422 13.187,7.485 13.374,7.542 C13.561,7.599 13.771,7.626 14.007,7.626 C14.158,7.626 14.289,7.61 14.404,7.582 C14.52,7.55 14.622,7.505 14.706,7.45 C14.789,7.392 14.854,7.321 14.9,7.234 C14.942,7.146 14.966,7.047 14.966,6.931 C14.966,6.8 14.923,6.69 14.842,6.593 C14.763,6.501 14.655,6.418 14.523,6.348 C14.389,6.277 14.235,6.213 14.069,6.152 C13.901,6.091 13.728,6.024 13.549,5.947 C13.373,5.874 13.2,5.788 13.033,5.693 C12.861,5.597 12.713,5.479 12.582,5.338 C12.447,5.199 12.341,5.03 12.258,4.834 C12.177,4.638 12.136,4.401 12.136,4.125 C12.136,3.846 12.191,3.588 12.301,3.354 C12.41,3.119 12.567,2.919 12.774,2.753 C12.98,2.586 13.23,2.459 13.526,2.365 C13.82,2.275 14.153,2.228 14.52,2.228 C14.704,2.228 14.88,2.241 15.052,2.267 C15.227,2.294 15.383,2.326 15.524,2.365 C15.662,2.404 15.782,2.448 15.878,2.492 C15.973,2.538 16.041,2.579 16.083,2.613 C16.126,2.645 16.154,2.678 16.171,2.709 C16.19,2.744 16.201,2.782 16.211,2.829 C16.218,2.875 16.228,2.931 16.233,3 C16.24,3.067 16.244,3.152 16.244,3.251 C16.244,3.371 16.24,3.466 16.233,3.54 C16.227,3.614 16.213,3.673 16.201,3.718 C16.185,3.762 16.164,3.792 16.139,3.807 C16.113,3.823 16.08,3.828 16.045,3.828 C16.01,3.828 15.947,3.807 15.861,3.759 C15.78,3.715 15.675,3.666 15.549,3.611 C15.423,3.56 15.279,3.511 15.115,3.465 C14.951,3.42 14.765,3.396 14.556,3.396 C14.408,3.396 14.278,3.413 14.166,3.442 C14.058,3.472 13.97,3.517 13.9,3.574 C13.828,3.631 13.773,3.698 13.739,3.774 C13.705,3.85 13.687,3.933 13.687,4.019 C13.687,4.154 13.729,4.268 13.812,4.36 C13.894,4.452 14.006,4.533 14.141,4.603 C14.279,4.674 14.431,4.739 14.602,4.801 C14.778,4.862 14.95,4.929 15.128,4.999 C15.305,5.072 15.479,5.156 15.653,5.252 C15.827,5.348 15.978,5.467 16.115,5.606 C16.252,5.747 16.36,5.912 16.444,6.107 C16.529,6.302 16.574,6.534 16.574,6.802 Z"></path>
                    <path d="M21.936,6.802 C21.936,7.134 21.871,7.426 21.747,7.68 C21.623,7.932 21.447,8.145 21.221,8.317 C20.992,8.487 20.724,8.615 20.412,8.701 C20.102,8.787 19.764,8.828 19.4,8.828 C19.183,8.828 18.973,8.812 18.774,8.779 C18.578,8.748 18.395,8.704 18.241,8.654 C18.08,8.603 17.951,8.552 17.847,8.5 C17.741,8.448 17.662,8.396 17.618,8.352 C17.568,8.305 17.532,8.235 17.506,8.136 C17.481,8.037 17.465,7.89 17.465,7.697 C17.465,7.572 17.47,7.468 17.481,7.393 C17.489,7.317 17.502,7.256 17.52,7.208 C17.537,7.164 17.558,7.132 17.583,7.117 C17.608,7.101 17.645,7.094 17.683,7.094 C17.732,7.094 17.804,7.119 17.897,7.174 C17.991,7.228 18.107,7.29 18.248,7.357 C18.388,7.422 18.551,7.485 18.739,7.542 C18.923,7.599 19.134,7.626 19.37,7.626 C19.517,7.626 19.651,7.61 19.765,7.582 C19.88,7.55 19.985,7.505 20.068,7.45 C20.152,7.394 20.216,7.321 20.261,7.234 C20.305,7.146 20.326,7.047 20.326,6.931 C20.326,6.8 20.286,6.69 20.205,6.593 C20.125,6.5 20.017,6.418 19.883,6.348 C19.752,6.277 19.599,6.213 19.432,6.152 C19.264,6.091 19.089,6.024 18.913,5.947 C18.736,5.874 18.563,5.788 18.394,5.693 C18.226,5.597 18.076,5.479 17.942,5.338 C17.808,5.199 17.702,5.03 17.621,4.834 C17.54,4.638 17.499,4.401 17.499,4.125 C17.499,3.846 17.554,3.588 17.664,3.354 C17.771,3.119 17.932,2.919 18.137,2.753 C18.34,2.586 18.592,2.459 18.889,2.365 C19.183,2.275 19.516,2.228 19.883,2.228 C20.067,2.228 20.243,2.241 20.419,2.267 C20.59,2.294 20.746,2.326 20.884,2.365 C21.027,2.404 21.143,2.448 21.24,2.492 C21.334,2.538 21.404,2.579 21.444,2.613 C21.488,2.645 21.518,2.678 21.535,2.709 C21.553,2.744 21.562,2.782 21.574,2.829 C21.581,2.875 21.591,2.931 21.597,3 C21.602,3.067 21.606,3.152 21.606,3.251 C21.606,3.371 21.602,3.466 21.597,3.54 C21.59,3.614 21.576,3.673 21.564,3.718 C21.548,3.762 21.527,3.792 21.502,3.807 C21.477,3.823 21.444,3.828 21.409,3.828 C21.372,3.828 21.31,3.807 21.225,3.759 C21.142,3.715 21.039,3.666 20.914,3.611 C20.787,3.56 20.643,3.511 20.481,3.465 C20.315,3.42 20.129,3.396 19.919,3.396 C19.77,3.396 19.641,3.413 19.53,3.442 C19.422,3.472 19.333,3.517 19.261,3.574 C19.192,3.631 19.137,3.698 19.103,3.774 C19.071,3.851 19.051,3.933 19.051,4.019 C19.051,4.154 19.091,4.268 19.176,4.36 C19.256,4.452 19.367,4.533 19.504,4.603 C19.641,4.674 19.794,4.739 19.966,4.801 C20.142,4.862 20.314,4.929 20.491,4.999 C20.668,5.069 20.843,5.156 21.017,5.252 C21.188,5.349 21.343,5.467 21.478,5.606 C21.616,5.747 21.721,5.912 21.808,6.107 C21.893,6.302 21.936,6.534 21.936,6.802 Z"></path>
                </g>
            </g>
            <g id="Group" transform="translate(60.000000, 60.000000)">
                <g>
                    <circle id="Oval" fill="#5B4282" cx="30" cy="30" r="28.077"></circle>
                    <path d="M30,60 C13.458,60 0,46.542 0,30 C0,13.458 13.458,0 30,0 C46.543,0 60.001,13.458 60.001,30 C60.001,46.542 46.543,60 30,60 Z M30,3.846 C15.579,3.846 3.846,15.578 3.846,30 C3.846,44.421 15.579,56.154 30,56.154 C44.422,56.154 56.154,44.422 56.154,30 C56.154,15.578 44.422,3.846 30,3.846 Z" id="Shape" fill="#9D8EB4"></path>
                </g>
                <g transform="translate(12.000000, 42.000000)" fill="#FFFFFF">
                    <path d="M0.175,0.399 L2.563,0.399 C2.962,0.399 3.268,0.499 3.481,0.695 C3.695,0.893 3.8,1.137 3.8,1.428 C3.8,1.672 3.724,1.882 3.572,2.056 C3.47,2.172 3.321,2.264 3.127,2.332 C3.424,2.403 3.642,2.525 3.781,2.699 C3.921,2.873 3.992,3.091 3.992,3.354 C3.992,3.568 3.941,3.761 3.843,3.931 C3.742,4.103 3.607,4.238 3.434,4.337 C3.327,4.399 3.165,4.444 2.95,4.472 C2.663,4.51 2.472,4.528 2.379,4.528 L0.176,4.528 L0.176,0.399 L0.175,0.399 Z M1.462,2.02 L2.018,2.02 C2.216,2.02 2.355,1.986 2.432,1.917 C2.511,1.849 2.55,1.75 2.55,1.619 C2.55,1.499 2.511,1.405 2.432,1.338 C2.355,1.27 2.219,1.236 2.026,1.236 L1.463,1.236 L1.463,2.02 L1.462,2.02 Z M1.462,3.643 L2.112,3.643 C2.333,3.643 2.487,3.604 2.577,3.526 C2.668,3.448 2.713,3.343 2.713,3.212 C2.713,3.09 2.668,2.992 2.578,2.917 C2.49,2.843 2.334,2.806 2.109,2.806 L1.462,2.806 L1.462,3.643 Z" id="Shape"></path>
                    <path d="M4.211,2.467 C4.211,1.794 4.399,1.268 4.774,0.893 C5.149,0.518 5.672,0.33 6.343,0.33 C7.029,0.33 7.56,0.514 7.93,0.884 C8.303,1.253 8.489,1.77 8.489,2.434 C8.489,2.917 8.408,3.312 8.246,3.622 C8.083,3.931 7.849,4.172 7.542,4.344 C7.234,4.515 6.852,4.601 6.394,4.601 C5.928,4.601 5.543,4.527 5.238,4.379 C4.932,4.23 4.685,3.996 4.496,3.674 C4.306,3.352 4.211,2.951 4.211,2.467 Z M5.486,2.473 C5.486,2.891 5.564,3.19 5.718,3.372 C5.873,3.554 6.084,3.645 6.351,3.645 C6.625,3.645 6.836,3.556 6.987,3.377 C7.137,3.199 7.214,2.878 7.214,2.418 C7.214,2.029 7.135,1.745 6.978,1.565 C6.822,1.385 6.609,1.295 6.341,1.295 C6.082,1.295 5.876,1.386 5.721,1.569 C5.564,1.751 5.486,2.053 5.486,2.473 Z" id="Shape"></path>
                    <path d="M8.728,2.467 C8.728,1.794 8.916,1.268 9.291,0.893 C9.667,0.518 10.189,0.33 10.859,0.33 C11.547,0.33 12.077,0.514 12.448,0.884 C12.82,1.253 13.006,1.77 13.006,2.434 C13.006,2.917 12.926,3.312 12.764,3.622 C12.601,3.931 12.366,4.172 12.059,4.344 C11.751,4.515 11.37,4.601 10.912,4.601 C10.446,4.601 10.06,4.527 9.755,4.379 C9.449,4.23 9.203,3.996 9.013,3.674 C8.822,3.352 8.728,2.951 8.728,2.467 Z M10.004,2.473 C10.004,2.891 10.081,3.19 10.235,3.372 C10.39,3.554 10.602,3.645 10.868,3.645 C11.142,3.645 11.354,3.556 11.505,3.377 C11.655,3.199 11.731,2.878 11.731,2.418 C11.731,2.029 11.653,1.745 11.496,1.565 C11.34,1.385 11.126,1.295 10.857,1.295 C10.6,1.295 10.393,1.386 10.238,1.569 C10.081,1.751 10.004,2.053 10.004,2.473 Z" id="Shape"></path>
                    <polygon id="Path" points="12.966 0.399 16.845 0.399 16.845 1.42 15.544 1.42 15.544 4.529 14.268 4.529 14.268 1.42 12.966 1.42"></polygon>
                    <path d="M16.911,3.163 L18.125,3.087 C18.151,3.284 18.205,3.435 18.286,3.538 C18.418,3.705 18.605,3.789 18.849,3.789 C19.032,3.789 19.172,3.746 19.27,3.661 C19.369,3.575 19.417,3.476 19.417,3.364 C19.417,3.257 19.37,3.161 19.276,3.076 C19.182,2.992 18.964,2.912 18.623,2.837 C18.062,2.711 17.665,2.544 17.426,2.336 C17.186,2.127 17.066,1.862 17.066,1.539 C17.066,1.327 17.127,1.126 17.251,0.937 C17.374,0.749 17.559,0.6 17.806,0.492 C18.053,0.385 18.392,0.33 18.822,0.33 C19.349,0.33 19.752,0.428 20.029,0.624 C20.305,0.82 20.471,1.133 20.523,1.561 L19.321,1.631 C19.289,1.446 19.221,1.311 19.119,1.226 C19.017,1.142 18.876,1.099 18.696,1.099 C18.547,1.099 18.435,1.131 18.36,1.194 C18.285,1.256 18.248,1.333 18.248,1.424 C18.248,1.489 18.278,1.549 18.341,1.601 C18.401,1.656 18.544,1.706 18.77,1.752 C19.328,1.873 19.726,1.994 19.968,2.117 C20.208,2.24 20.385,2.392 20.494,2.575 C20.604,2.757 20.659,2.96 20.659,3.186 C20.659,3.451 20.586,3.695 20.439,3.918 C20.293,4.142 20.088,4.311 19.825,4.427 C19.562,4.542 19.23,4.6 18.83,4.6 C18.129,4.6 17.642,4.465 17.372,4.195 C17.101,3.924 16.947,3.58 16.911,3.163 Z" id="Path"></path>
                    <polygon id="Path" points="20.723 0.399 24.602 0.399 24.602 1.42 23.301 1.42 23.301 4.529 22.024 4.529 22.024 1.42 20.723 1.42"></polygon>
                    <path d="M24.907,4.529 L24.907,0.399 L27.034,0.399 C27.429,0.399 27.729,0.434 27.938,0.502 C28.146,0.569 28.314,0.694 28.442,0.877 C28.57,1.06 28.633,1.283 28.633,1.546 C28.633,1.775 28.584,1.973 28.487,2.139 C28.39,2.305 28.255,2.44 28.085,2.543 C27.976,2.609 27.826,2.663 27.637,2.707 C27.788,2.757 27.9,2.809 27.968,2.859 C28.016,2.893 28.083,2.966 28.172,3.076 C28.262,3.188 28.321,3.273 28.352,3.333 L28.969,4.529 L27.528,4.529 L26.846,3.267 C26.759,3.103 26.683,2.997 26.615,2.949 C26.523,2.885 26.419,2.853 26.302,2.853 L26.19,2.853 L26.19,4.529 L24.907,4.529 Z M26.188,2.073 L26.727,2.073 C26.785,2.073 26.897,2.054 27.065,2.016 C27.149,1.999 27.218,1.956 27.272,1.887 C27.325,1.818 27.352,1.738 27.352,1.648 C27.352,1.514 27.31,1.412 27.224,1.341 C27.141,1.27 26.982,1.234 26.749,1.234 L26.187,1.234 L26.187,2.073 L26.188,2.073 Z" id="Shape"></path>
                    <path d="M31.628,3.847 L30.181,3.847 L29.979,4.529 L28.676,4.529 L30.228,0.399 L31.62,0.399 L33.172,4.529 L31.835,4.529 L31.628,3.847 Z M31.363,2.955 L30.907,1.471 L30.457,2.955 L31.363,2.955 Z" id="Shape"></path>
                    <path d="M33.282,0.399 L35.404,0.399 C35.866,0.399 36.211,0.509 36.441,0.729 C36.671,0.949 36.787,1.262 36.787,1.667 C36.787,2.084 36.661,2.41 36.41,2.645 C36.159,2.88 35.777,2.997 35.263,2.997 L34.564,2.997 L34.564,4.529 L33.283,4.529 L33.283,0.399 L33.282,0.399 Z M34.563,2.16 L34.876,2.16 C35.122,2.16 35.295,2.118 35.395,2.033 C35.494,1.948 35.543,1.838 35.543,1.704 C35.543,1.575 35.5,1.464 35.414,1.374 C35.327,1.284 35.164,1.239 34.926,1.239 L34.563,1.239 L34.563,2.16 Z" id="Shape"></path>
                </g>
                <path d="M21.671,38.114 L21.671,13.37 L30.953,13.37 C32.844,13.37 34.36,13.621 35.502,14.121 C36.644,14.623 37.539,15.393 38.186,16.433 C38.833,17.475 39.157,18.563 39.157,19.7 C39.157,20.758 38.871,21.754 38.297,22.688 C37.723,23.621 36.857,24.375 35.697,24.949 C37.193,25.387 38.343,26.136 39.149,27.194 C39.953,28.252 40.356,29.502 40.356,30.941 C40.356,32.101 40.111,33.178 39.621,34.174 C39.133,35.169 38.527,35.938 37.808,36.477 C37.087,37.018 36.184,37.425 35.098,37.702 C34.012,37.977 32.682,38.115 31.107,38.115 L21.671,38.115 L21.671,38.114 Z M24.945,23.768 L30.296,23.768 C31.747,23.768 32.787,23.672 33.417,23.481 C34.251,23.233 34.878,22.823 35.3,22.249 C35.722,21.675 35.933,20.954 35.933,20.088 C35.933,19.266 35.736,18.544 35.343,17.919 C34.947,17.294 34.386,16.867 33.655,16.636 C32.924,16.406 31.669,16.291 29.89,16.291 L24.946,16.291 L24.946,23.768 L24.945,23.768 Z M24.945,35.194 L31.105,35.194 C32.163,35.194 32.905,35.155 33.334,35.077 C34.087,34.942 34.718,34.717 35.224,34.401 C35.73,34.087 36.146,33.627 36.473,33.026 C36.799,32.423 36.962,31.73 36.962,30.941 C36.962,30.018 36.726,29.217 36.254,28.535 C35.781,27.855 35.126,27.377 34.287,27.1 C33.449,26.825 32.242,26.686 30.666,26.686 L24.945,26.686 L24.945,35.194 Z" id="Shape" fill="#FFFFFF"></path>
            </g>
            <g id="Group" transform="translate(180.000000, 60.000000)">
                <g>
                    <circle id="Oval" fill="#007ACC" cx="30" cy="30" r="28.078"></circle>
                    <path d="M29.999,60 C13.456,60 0,46.542 0,30 C0,13.458 13.456,0 29.999,0 C46.541,0 59.999,13.458 59.999,30 C59.999,46.542 46.541,60 29.999,60 Z M29.999,3.846 C15.577,3.846 3.846,15.578 3.846,30 C3.846,44.421 15.577,56.154 29.999,56.154 C44.421,56.154 56.153,44.422 56.153,30 C56.153,15.578 44.421,3.846 29.999,3.846 Z" id="Shape" fill="#66AFE0"></path>
                </g>
                <path d="M36.258,14.637 L24.336,26.575 L16.808,20.645 L13.522,22.319 L13.522,37.683 L16.824,39.357 L24.398,33.442 L36.288,45.363 L44.171,42.184 L44.171,17.709 L36.258,14.637 Z M17.084,33.534 L17.084,26.39 L20.834,30.124 L17.084,33.534 Z M36.027,35.515 L28.883,30 L36.028,24.484 L36.028,35.515 L36.027,35.515 Z" id="Shape" fill="#FFFFFF"></path>
            </g>
            <g id="Group" transform="translate(120.000000, 60.000000)">
                <g>
                    <circle id="Oval" fill="#4B4B4B" cx="30" cy="30" r="28.077"></circle>
                    <path d="M30,60 C13.457,60 0,46.542 0,30 C0,13.458 13.457,0 30,0 C46.541,0 59.999,13.458 59.999,30 C59.999,46.542 46.541,60 30,60 Z M30,3.846 C15.578,3.846 3.846,15.578 3.846,30 C3.846,44.421 15.578,56.154 30,56.154 C44.421,56.154 56.153,44.422 56.153,30 C56.153,15.578 44.421,3.846 30,3.846 Z" id="Shape" fill="#6F6F6F"></path>
                </g>
                <path d="M42,22.407 L42,14.928 C42,14.625 41.516,14.459 41.212,14.556 L18.416,21.728 C18.143,21.814 17.491,22.086 17.449,22.36 C17.444,22.387 17,22.408 17,22.439 L17,22.45 L17,29.918 L17,29.93 C17,29.963 17.386,29.987 17.392,30.016 C17.438,30.287 17.841,30.553 18.113,30.64 L28.009,33.741 L17.88,36.842 C17.574,36.938 17,37.262 17,37.564 L17,45.045 C17,45.346 17.623,45.514 17.927,45.417 L41.025,38.245 C41.331,38.147 42,37.826 42,37.523 L42,37.44 L42,30.04 L42,29.959 C42,29.657 41.518,29.334 41.212,29.238 L31.437,26.183 L41.27,23.129 C41.575,23.032 42,22.708 42,22.407 Z" id="Path" fill="#FF9800"></path>
            </g>
        </g>
    </g>
</svg>