<svg width="848" height="508" viewBox="0 0 848 508" fill="none" xmlns="http://www.w3.org/2000/svg">
<path fill-rule="evenodd" clip-rule="evenodd" d="M218.5 459.01C222.595 459.01 226.689 457.448 229.814 454.323L419.318 264.819C425.567 258.57 425.567 248.44 419.318 242.191L229.814 52.6868C226.689 49.5626 222.595 48.0005 218.5 48.0005V459.01Z" fill="#D4B49D"/>
<path fill-rule="evenodd" clip-rule="evenodd" d="M629.5 459.009C633.595 459.009 637.689 457.447 640.814 454.323L830.318 264.818C836.567 258.57 836.567 248.439 830.318 242.191L640.814 52.6863C637.689 49.5621 633.595 48 629.5 48V459.009Z" fill="#AE8B57"/>
<path fill-rule="evenodd" clip-rule="evenodd" d="M218.5 459.009C214.405 459.009 210.311 457.447 207.186 454.323L17.6817 264.818C11.4333 258.57 11.4333 248.439 17.6817 242.191L207.186 52.6863C210.311 49.5621 214.405 48 218.5 48V459.009Z" fill="#E7D1C0"/>
<path fill-rule="evenodd" clip-rule="evenodd" d="M629.5 459.009C625.405 459.009 621.311 457.447 618.186 454.323L428.682 264.818C422.433 258.57 422.433 248.439 428.682 242.191L618.186 52.6863C621.311 49.5621 625.405 48 629.5 48V459.009Z" fill="#C19F7A"/>
<path d="M126.54 235.08H140.916V237.648H126.54V235.08ZM134.244 226.728H136.812V230.208C136.812 230.784 136.884 230.856 137.316 230.856C137.508 230.856 138.276 230.856 138.492 230.856C138.9 230.856 138.996 230.616 139.044 229.032C139.548 229.416 140.604 229.8 141.3 229.968C141.036 232.464 140.388 233.136 138.804 233.136C138.372 233.136 137.292 233.136 136.884 233.136C134.676 233.136 134.244 232.392 134.244 230.232V226.728ZM126.756 223.728H140.844V228.528H138.3V226.176H129.204V228.648H126.756V223.728ZM132.228 232.704H135.06V245.136H132.228V232.704ZM130.38 226.752H132.996C132.78 230.424 132.012 232.56 127.644 233.688C127.404 233.064 126.756 232.104 126.252 231.648C129.78 230.856 130.236 229.464 130.38 226.752ZM135.78 236.328C136.98 238.56 139.308 240.816 141.612 241.992C141.012 242.52 140.124 243.528 139.668 244.224C137.268 242.712 134.964 239.952 133.596 237.144L135.78 236.328ZM131.604 236.088L133.836 236.832C132.372 240.048 129.828 242.904 126.876 244.416C126.468 243.768 125.652 242.76 125.052 242.232C127.812 241.056 130.356 238.656 131.604 236.088ZM118.476 234.696C120.396 234.264 123.252 233.496 125.964 232.728L126.348 235.32C123.876 236.088 121.236 236.856 119.124 237.456L118.476 234.696ZM118.86 227.184H126.204V229.824H118.86V227.184ZM121.404 222.648H124.044V242.112C124.044 243.456 123.804 244.2 123.06 244.632C122.34 245.088 121.308 245.184 119.748 245.184C119.676 244.464 119.34 243.288 119.004 242.496C119.868 242.544 120.708 242.544 120.996 242.52C121.284 242.52 121.404 242.448 121.404 242.112V222.648ZM152.484 238.608H155.34V245.16H152.484V238.608ZM152.46 222.624H155.316V229.536H152.46V222.624ZM151.812 229.968L154.428 231.192C152.988 232.488 151.332 233.784 150.012 234.624L147.996 233.544C149.268 232.608 150.9 231.096 151.812 229.968ZM157.02 231.504L159.588 232.896C156.612 235.128 152.724 237.552 149.676 239.088L147.78 237.768C150.852 236.184 154.692 233.568 157.02 231.504ZM145.884 234L147.756 232.392C149.484 233.232 151.788 234.576 152.964 235.584L150.948 237.384C149.892 236.376 147.66 234.936 145.884 234ZM157.14 235.896L159.036 234.432C160.932 235.632 163.476 237.432 164.748 238.68L162.732 240.336C161.556 239.112 159.084 237.168 157.14 235.896ZM156.708 241.08L158.916 239.64C160.788 240.624 163.428 242.184 164.82 243.288L162.444 244.92C161.244 243.816 158.676 242.184 156.708 241.08ZM143.46 237.192C147.948 237.216 155.268 237.144 162.132 237.048L161.988 239.232C155.388 239.472 148.308 239.688 143.604 239.784L143.46 237.192ZM148.356 239.712L151.092 240.744C149.532 242.376 147.084 244.032 145.044 244.992C144.54 244.44 143.484 243.456 142.836 242.976C144.9 242.232 147.084 240.984 148.356 239.712ZM143.724 224.496H164.196V226.968H143.724V224.496ZM143.532 228.432H164.484V233.424H161.652V230.856H146.244V233.424H143.532V228.432Z" fill="white"/>
<path d="M97.7002 282H91.5127V264.545H97.7513C99.507 264.545 101.018 264.895 102.285 265.594C103.552 266.287 104.527 267.284 105.209 268.585C105.896 269.886 106.24 271.443 106.24 273.256C106.24 275.074 105.896 276.636 105.209 277.943C104.527 279.25 103.547 280.253 102.268 280.952C100.996 281.651 99.4729 282 97.7002 282ZM95.203 278.838H97.5467C98.6377 278.838 99.5553 278.645 100.3 278.259C101.05 277.866 101.612 277.261 101.987 276.443C102.368 275.619 102.558 274.557 102.558 273.256C102.558 271.966 102.368 270.912 101.987 270.094C101.612 269.276 101.052 268.673 100.308 268.287C99.5638 267.901 98.6462 267.707 97.5553 267.707H95.203V278.838ZM108.905 282V268.909H112.536V282H108.905ZM110.729 267.222C110.189 267.222 109.726 267.043 109.34 266.685C108.959 266.321 108.769 265.886 108.769 265.381C108.769 264.881 108.959 264.452 109.34 264.094C109.726 263.73 110.189 263.548 110.729 263.548C111.269 263.548 111.729 263.73 112.11 264.094C112.496 264.452 112.689 264.881 112.689 265.381C112.689 265.886 112.496 266.321 112.11 266.685C111.729 267.043 111.269 267.222 110.729 267.222ZM126.337 272.642L123.013 272.847C122.956 272.562 122.834 272.307 122.646 272.08C122.459 271.847 122.212 271.662 121.905 271.526C121.604 271.384 121.243 271.312 120.822 271.312C120.26 271.312 119.785 271.432 119.399 271.67C119.013 271.903 118.819 272.216 118.819 272.608C118.819 272.92 118.944 273.185 119.194 273.401C119.444 273.616 119.873 273.79 120.481 273.92L122.851 274.398C124.123 274.659 125.072 275.08 125.697 275.659C126.322 276.239 126.635 277 126.635 277.943C126.635 278.801 126.382 279.554 125.876 280.202C125.376 280.849 124.689 281.355 123.814 281.719C122.944 282.077 121.942 282.256 120.805 282.256C119.072 282.256 117.692 281.895 116.663 281.173C115.64 280.446 115.041 279.457 114.865 278.207L118.436 278.02C118.544 278.548 118.805 278.952 119.22 279.23C119.635 279.503 120.166 279.639 120.814 279.639C121.45 279.639 121.962 279.517 122.348 279.273C122.74 279.023 122.939 278.702 122.944 278.31C122.939 277.98 122.8 277.71 122.527 277.5C122.254 277.284 121.834 277.119 121.265 277.006L118.998 276.554C117.72 276.298 116.768 275.855 116.143 275.224C115.524 274.594 115.214 273.79 115.214 272.812C115.214 271.972 115.442 271.247 115.896 270.639C116.356 270.031 117.001 269.562 117.831 269.233C118.666 268.903 119.643 268.739 120.763 268.739C122.416 268.739 123.717 269.088 124.666 269.787C125.621 270.486 126.177 271.437 126.337 272.642ZM134.836 282.256C133.495 282.256 132.341 281.972 131.376 281.403C130.415 280.83 129.677 280.034 129.16 279.017C128.648 278 128.393 276.83 128.393 275.506C128.393 274.165 128.651 272.989 129.168 271.977C129.691 270.96 130.432 270.168 131.393 269.599C132.353 269.026 133.495 268.739 134.819 268.739C135.961 268.739 136.961 268.946 137.819 269.361C138.677 269.776 139.356 270.358 139.856 271.108C140.356 271.858 140.631 272.739 140.682 273.75H137.256C137.16 273.097 136.904 272.571 136.489 272.173C136.08 271.77 135.543 271.568 134.878 271.568C134.316 271.568 133.824 271.722 133.404 272.028C132.989 272.33 132.665 272.77 132.432 273.349C132.199 273.929 132.083 274.631 132.083 275.455C132.083 276.29 132.197 277 132.424 277.585C132.657 278.17 132.984 278.616 133.404 278.923C133.824 279.23 134.316 279.384 134.878 279.384C135.293 279.384 135.665 279.298 135.995 279.128C136.33 278.957 136.606 278.71 136.822 278.386C137.043 278.057 137.188 277.662 137.256 277.202H140.682C140.626 278.202 140.353 279.082 139.864 279.844C139.381 280.599 138.714 281.19 137.861 281.616C137.009 282.043 136.001 282.256 134.836 282.256ZM148.922 282.256C147.598 282.256 146.453 281.974 145.487 281.412C144.527 280.844 143.785 280.054 143.263 279.043C142.74 278.026 142.479 276.847 142.479 275.506C142.479 274.153 142.74 272.972 143.263 271.96C143.785 270.943 144.527 270.153 145.487 269.591C146.453 269.023 147.598 268.739 148.922 268.739C150.246 268.739 151.388 269.023 152.348 269.591C153.314 270.153 154.058 270.943 154.581 271.96C155.104 272.972 155.365 274.153 155.365 275.506C155.365 276.847 155.104 278.026 154.581 279.043C154.058 280.054 153.314 280.844 152.348 281.412C151.388 281.974 150.246 282.256 148.922 282.256ZM148.939 279.443C149.541 279.443 150.044 279.273 150.447 278.932C150.851 278.585 151.155 278.114 151.359 277.517C151.569 276.92 151.675 276.241 151.675 275.48C151.675 274.719 151.569 274.04 151.359 273.443C151.155 272.847 150.851 272.375 150.447 272.028C150.044 271.682 149.541 271.509 148.939 271.509C148.331 271.509 147.819 271.682 147.405 272.028C146.996 272.375 146.686 272.847 146.476 273.443C146.271 274.04 146.169 274.719 146.169 275.48C146.169 276.241 146.271 276.92 146.476 277.517C146.686 278.114 146.996 278.585 147.405 278.932C147.819 279.273 148.331 279.443 148.939 279.443ZM169.508 268.909L164.932 282H160.841L156.264 268.909H160.099L162.818 278.276H162.954L165.665 268.909H169.508ZM176.91 282.256C175.564 282.256 174.405 281.983 173.433 281.438C172.467 280.886 171.723 280.108 171.2 279.102C170.677 278.091 170.416 276.895 170.416 275.514C170.416 274.168 170.677 272.986 171.2 271.969C171.723 270.952 172.459 270.159 173.408 269.591C174.362 269.023 175.481 268.739 176.765 268.739C177.629 268.739 178.433 268.878 179.177 269.156C179.927 269.429 180.581 269.841 181.138 270.392C181.7 270.943 182.138 271.636 182.45 272.472C182.763 273.301 182.919 274.273 182.919 275.386V276.384H171.865V274.134H179.501C179.501 273.611 179.388 273.148 179.16 272.744C178.933 272.341 178.618 272.026 178.214 271.798C177.817 271.565 177.354 271.449 176.825 271.449C176.274 271.449 175.785 271.577 175.359 271.832C174.939 272.082 174.609 272.42 174.371 272.847C174.132 273.267 174.01 273.736 174.004 274.253V276.392C174.004 277.04 174.123 277.599 174.362 278.071C174.606 278.543 174.95 278.906 175.393 279.162C175.837 279.418 176.362 279.545 176.97 279.545C177.373 279.545 177.743 279.489 178.078 279.375C178.413 279.261 178.7 279.091 178.939 278.864C179.177 278.636 179.359 278.358 179.484 278.028L182.842 278.25C182.672 279.057 182.322 279.761 181.794 280.364C181.271 280.96 180.595 281.426 179.765 281.761C178.942 282.091 177.99 282.256 176.91 282.256ZM185.288 282V268.909H188.808V271.193H188.944C189.183 270.381 189.584 269.767 190.146 269.352C190.709 268.932 191.356 268.722 192.089 268.722C192.271 268.722 192.467 268.733 192.677 268.756C192.888 268.778 193.072 268.81 193.231 268.849V272.071C193.061 272.02 192.825 271.974 192.524 271.935C192.223 271.895 191.947 271.875 191.697 271.875C191.163 271.875 190.686 271.991 190.265 272.224C189.851 272.452 189.521 272.77 189.277 273.179C189.038 273.588 188.919 274.06 188.919 274.594V282H185.288Z" fill="white"/>
<path d="M279.848 229.872H293.12V232.608H279.848V229.872ZM286.472 235.632H294.584V238.32H286.472V235.632ZM284.96 231.456H287.984V243.048L284.96 242.688V231.456ZM279.224 233.952L282.248 234.264C281.624 239.136 280.136 242.952 277.4 245.304C276.92 244.8 275.696 243.768 275.024 243.336C277.616 241.416 278.816 238.08 279.224 233.952ZM281.552 236.952C283.088 241.368 286.448 242.04 290.72 242.04C291.992 242.04 296 242.04 297.608 241.992C297.2 242.664 296.72 244.056 296.6 244.92H290.552C285.008 244.92 281.264 243.792 279.2 237.744L281.552 236.952ZM284.912 222.648H287.984V227.04H284.912V222.648ZM276.176 225.072H296.816V231.096H293.84V227.808H279.008V231.096H276.176V225.072ZM300.848 224.88H320.168V227.016H300.848V224.88ZM302.096 227.88H318.92V229.872H302.096V227.88ZM299.72 230.76H321.272V232.944H299.72V230.76ZM299.696 236.376H321.392V238.488H299.696V236.376ZM308.96 226.104H311.936V231.864H308.96V226.104ZM314.096 222.576L317.264 223.2C316.616 224.16 315.944 225.024 315.44 225.6L312.968 224.976C313.376 224.256 313.856 223.272 314.096 222.576ZM299.6 239.784C302.408 239.664 306.68 239.448 310.808 239.184L310.784 241.128C306.872 241.464 302.792 241.752 299.84 241.968L299.6 239.784ZM304.448 233.904H307.232V242.664C307.232 243.936 306.944 244.488 306.032 244.824C305.12 245.136 303.872 245.16 302.072 245.16C301.928 244.488 301.592 243.576 301.256 242.952C302.312 243.024 303.632 243.024 303.968 243C304.328 243 304.448 242.904 304.448 242.592V233.904ZM308.888 232.872L310.52 234.528C307.808 235.2 303.92 235.536 300.704 235.656C300.632 235.152 300.344 234.384 300.104 233.904C303.2 233.76 306.8 233.376 308.888 232.872ZM310.976 233.256H313.736C313.976 238.416 316.28 242.568 318.824 242.544C319.4 242.52 319.568 242.112 319.688 240.744C320.24 241.248 321.128 241.656 321.8 241.872C321.392 244.56 320.576 245.136 318.68 245.136C314.312 245.136 311.36 240 310.976 233.256ZM317.408 238.368L319.856 239.184C317.648 242.088 313.64 244.008 309.68 245.136C309.416 244.56 308.72 243.408 308.264 242.856C311.96 242.088 315.632 240.576 317.408 238.368ZM314.624 234.48L316.184 232.824C317.6 233.328 319.376 234.216 320.288 234.984L318.632 236.784C317.792 236.04 316.04 235.056 314.624 234.48ZM304.16 223.44L306.68 222.624C307.304 223.272 307.904 224.208 308.168 224.88L305.528 225.864C305.312 225.192 304.736 224.16 304.16 223.44Z" fill="white"/>
<path d="M267.7 282H261.513V264.545H267.751C269.507 264.545 271.018 264.895 272.285 265.594C273.552 266.287 274.527 267.284 275.209 268.585C275.896 269.886 276.24 271.443 276.24 273.256C276.24 275.074 275.896 276.636 275.209 277.943C274.527 279.25 273.547 280.253 272.268 280.952C270.996 281.651 269.473 282 267.7 282ZM265.203 278.838H267.547C268.638 278.838 269.555 278.645 270.3 278.259C271.05 277.866 271.612 277.261 271.987 276.443C272.368 275.619 272.558 274.557 272.558 273.256C272.558 271.966 272.368 270.912 271.987 270.094C271.612 269.276 271.052 268.673 270.308 268.287C269.564 267.901 268.646 267.707 267.555 267.707H265.203V278.838ZM284.871 282.256C283.525 282.256 282.366 281.983 281.394 281.438C280.428 280.886 279.684 280.108 279.161 279.102C278.638 278.091 278.377 276.895 278.377 275.514C278.377 274.168 278.638 272.986 279.161 271.969C279.684 270.952 280.42 270.159 281.368 269.591C282.323 269.023 283.442 268.739 284.726 268.739C285.59 268.739 286.394 268.878 287.138 269.156C287.888 269.429 288.542 269.841 289.099 270.392C289.661 270.943 290.099 271.636 290.411 272.472C290.724 273.301 290.88 274.273 290.88 275.386V276.384H279.826V274.134H287.462C287.462 273.611 287.349 273.148 287.121 272.744C286.894 272.341 286.579 272.026 286.175 271.798C285.778 271.565 285.314 271.449 284.786 271.449C284.235 271.449 283.746 271.577 283.32 271.832C282.9 272.082 282.57 272.42 282.332 272.847C282.093 273.267 281.971 273.736 281.965 274.253V276.392C281.965 277.04 282.084 277.599 282.323 278.071C282.567 278.543 282.911 278.906 283.354 279.162C283.797 279.418 284.323 279.545 284.931 279.545C285.334 279.545 285.704 279.489 286.039 279.375C286.374 279.261 286.661 279.091 286.9 278.864C287.138 278.636 287.32 278.358 287.445 278.028L290.803 278.25C290.633 279.057 290.283 279.761 289.755 280.364C289.232 280.96 288.556 281.426 287.726 281.761C286.903 282.091 285.951 282.256 284.871 282.256ZM300.289 268.909V271.636H292.209V268.909H300.289ZM294.059 282V267.963C294.059 267.014 294.243 266.227 294.613 265.602C294.988 264.977 295.499 264.509 296.147 264.196C296.795 263.884 297.53 263.727 298.354 263.727C298.911 263.727 299.42 263.77 299.88 263.855C300.346 263.94 300.692 264.017 300.92 264.085L300.272 266.812C300.13 266.767 299.954 266.724 299.743 266.685C299.539 266.645 299.329 266.625 299.113 266.625C298.579 266.625 298.207 266.75 297.996 267C297.786 267.244 297.681 267.588 297.681 268.031V282H294.059ZM302.507 282V268.909H306.138V282H302.507ZM304.331 267.222C303.791 267.222 303.328 267.043 302.942 266.685C302.561 266.321 302.371 265.886 302.371 265.381C302.371 264.881 302.561 264.452 302.942 264.094C303.328 263.73 303.791 263.548 304.331 263.548C304.871 263.548 305.331 263.73 305.712 264.094C306.098 264.452 306.291 264.881 306.291 265.381C306.291 265.886 306.098 266.321 305.712 266.685C305.331 267.043 304.871 267.222 304.331 267.222ZM312.677 274.432V282H309.046V268.909H312.506V271.219H312.66C312.949 270.457 313.435 269.855 314.117 269.412C314.799 268.963 315.626 268.739 316.597 268.739C317.506 268.739 318.299 268.938 318.975 269.335C319.651 269.733 320.177 270.301 320.552 271.04C320.927 271.773 321.114 272.648 321.114 273.665V282H317.484V274.312C317.489 273.511 317.285 272.886 316.87 272.438C316.455 271.983 315.884 271.756 315.157 271.756C314.668 271.756 314.236 271.861 313.861 272.071C313.492 272.281 313.202 272.588 312.992 272.991C312.788 273.389 312.682 273.869 312.677 274.432ZM329.942 282.256C328.595 282.256 327.436 281.983 326.464 281.438C325.498 280.886 324.754 280.108 324.231 279.102C323.709 278.091 323.447 276.895 323.447 275.514C323.447 274.168 323.709 272.986 324.231 271.969C324.754 270.952 325.49 270.159 326.439 269.591C327.393 269.023 328.513 268.739 329.797 268.739C330.66 268.739 331.464 268.878 332.209 269.156C332.959 269.429 333.612 269.841 334.169 270.392C334.731 270.943 335.169 271.636 335.481 272.472C335.794 273.301 335.95 274.273 335.95 275.386V276.384H324.896V274.134H332.533C332.533 273.611 332.419 273.148 332.192 272.744C331.964 272.341 331.649 272.026 331.246 271.798C330.848 271.565 330.385 271.449 329.856 271.449C329.305 271.449 328.817 271.577 328.39 271.832C327.97 272.082 327.64 272.42 327.402 272.847C327.163 273.267 327.041 273.736 327.035 274.253V276.392C327.035 277.04 327.155 277.599 327.393 278.071C327.638 278.543 327.981 278.906 328.425 279.162C328.868 279.418 329.393 279.545 330.001 279.545C330.405 279.545 330.774 279.489 331.109 279.375C331.444 279.261 331.731 279.091 331.97 278.864C332.209 278.636 332.39 278.358 332.515 278.028L335.873 278.25C335.703 279.057 335.354 279.761 334.825 280.364C334.302 280.96 333.626 281.426 332.797 281.761C331.973 282.091 331.021 282.256 329.942 282.256Z" fill="white"/>
<path d="M539.1 229.8H543.948V231.96H539.1V229.8ZM537.3 236.808H545.124V238.728H537.3V236.808ZM529.116 223.464H535.692V225.72H529.116V223.464ZM534.948 223.464H535.428L535.884 223.368L537.684 224.232C535.908 228.432 532.14 231.168 528.036 232.656C527.7 232.032 527.004 231.048 526.5 230.544C530.148 229.464 533.652 226.944 534.948 223.872V223.464ZM540.06 222.624C541.668 226.176 544.98 228.912 549.42 230.064C548.844 230.616 548.1 231.648 547.716 232.344C543.012 230.832 539.7 227.664 537.756 223.296L540.06 222.624ZM543.66 222.768L545.724 224.232C544.596 225.216 543.3 226.2 542.316 226.872L540.66 225.6C541.596 224.88 542.916 223.656 543.66 222.768ZM546.756 225.168L548.82 226.608C547.692 227.616 546.372 228.624 545.364 229.272L543.636 228C544.62 227.28 545.988 226.056 546.756 225.168ZM529.716 229.944H536.244V236.208H533.724V232.104H529.716V229.944ZM529.26 233.808H531.636C531.276 235.896 530.772 238.488 530.34 240.144L528.012 239.76C528.444 238.176 528.972 235.728 529.26 233.808ZM533.7 237.48H536.292C536.292 237.48 536.268 238.152 536.22 238.464C535.98 241.944 535.692 243.552 535.044 244.224C534.516 244.776 533.94 244.944 533.124 245.04C532.428 245.088 531.18 245.088 529.908 245.064C529.836 244.296 529.524 243.288 529.068 242.616C530.292 242.736 531.468 242.76 531.996 242.76C532.404 242.76 532.668 242.736 532.884 242.544C533.268 242.184 533.484 240.864 533.7 237.816V237.48ZM537.996 229.8H540.396V231.552C540.396 233.328 539.916 235.368 537.756 236.736C537.396 236.232 536.436 235.272 535.956 234.936C537.756 233.904 537.996 232.632 537.996 231.504V229.8ZM544.548 236.808H545.052L545.484 236.736L547.068 237.264C545.556 241.968 541.932 244.128 537.084 245.16C536.844 244.56 536.316 243.6 535.884 243.072C540.108 242.4 543.372 240.552 544.548 237.12V236.808ZM540.204 238.56C541.596 240.864 544.572 242.328 548.484 242.832C547.908 243.408 547.188 244.464 546.828 245.16C542.628 244.344 539.7 242.328 538.02 239.136L540.204 238.56ZM530.484 233.808H534.588V235.92H530.1L530.484 233.808ZM529.812 237.48H534.42V239.568H529.404L529.812 237.48ZM542.556 229.8H544.98V233.424C544.98 233.712 544.98 233.904 545.028 233.976C545.1 234.048 545.172 234.072 545.292 234.072C545.412 234.072 545.58 234.072 545.7 234.072C545.82 234.072 545.964 234.072 546.012 234.048C546.108 234.024 546.18 233.928 546.252 233.76C546.3 233.568 546.324 233.184 546.348 232.68C546.78 233.064 547.692 233.52 548.34 233.712C548.268 234.336 548.172 234.984 547.98 235.296C547.812 235.608 547.5 235.824 547.116 235.944C546.804 236.064 546.276 236.112 545.94 236.112C545.58 236.112 545.052 236.112 544.716 236.112C544.164 236.112 543.492 235.968 543.108 235.584C542.724 235.176 542.556 234.72 542.556 233.376V229.8ZM528.324 227.256L529.932 225.744C530.916 226.224 532.188 226.992 532.836 227.544L531.132 229.224C530.556 228.648 529.284 227.808 528.324 227.256ZM556.476 231.792H571.884V234.192H556.476V231.792ZM555.828 235.824H572.964V238.248H555.828V235.824ZM559.524 229.8H562.164V236.952H559.524V229.8ZM558.324 236.712H560.964V242.76H558.324V236.712ZM565.74 229.8H568.428V236.928H565.74V229.8ZM553.092 223.656H555.996V230.784C555.996 235.008 555.612 241.272 553.092 245.232C552.516 244.776 551.22 244.032 550.5 243.744C552.9 240.048 553.092 234.624 553.092 230.784V223.656ZM554.868 223.656H571.668V230.208H554.868V227.784H568.764V226.08H554.868V223.656ZM555.852 242.208C558.204 241.968 561.732 241.488 565.116 240.984L565.236 243.456C562.116 243.984 558.756 244.464 556.26 244.848L555.852 242.208ZM565.068 236.832C566.34 239.928 569.052 242.04 573.228 242.808C572.652 243.384 571.884 244.464 571.524 245.184C566.988 244.056 564.252 241.416 562.692 237.336L565.068 236.832ZM569.94 237.936L572.1 239.4C570.804 240.336 569.196 241.224 567.972 241.8L566.124 240.432C567.324 239.808 568.98 238.728 569.94 237.936Z" fill="white"/>
<path d="M509.7 282H503.513V264.545H509.751C511.507 264.545 513.018 264.895 514.285 265.594C515.552 266.287 516.527 267.284 517.209 268.585C517.896 269.886 518.24 271.443 518.24 273.256C518.24 275.074 517.896 276.636 517.209 277.943C516.527 279.25 515.547 280.253 514.268 280.952C512.996 281.651 511.473 282 509.7 282ZM507.203 278.838H509.547C510.638 278.838 511.555 278.645 512.3 278.259C513.05 277.866 513.612 277.261 513.987 276.443C514.368 275.619 514.558 274.557 514.558 273.256C514.558 271.966 514.368 270.912 513.987 270.094C513.612 269.276 513.052 268.673 512.308 268.287C511.564 267.901 510.646 267.707 509.555 267.707H507.203V278.838ZM526.871 282.256C525.525 282.256 524.366 281.983 523.394 281.438C522.428 280.886 521.684 280.108 521.161 279.102C520.638 278.091 520.377 276.895 520.377 275.514C520.377 274.168 520.638 272.986 521.161 271.969C521.684 270.952 522.42 270.159 523.368 269.591C524.323 269.023 525.442 268.739 526.726 268.739C527.59 268.739 528.394 268.878 529.138 269.156C529.888 269.429 530.542 269.841 531.099 270.392C531.661 270.943 532.099 271.636 532.411 272.472C532.724 273.301 532.88 274.273 532.88 275.386V276.384H521.826V274.134H529.462C529.462 273.611 529.349 273.148 529.121 272.744C528.894 272.341 528.579 272.026 528.175 271.798C527.778 271.565 527.314 271.449 526.786 271.449C526.235 271.449 525.746 271.577 525.32 271.832C524.9 272.082 524.57 272.42 524.332 272.847C524.093 273.267 523.971 273.736 523.965 274.253V276.392C523.965 277.04 524.084 277.599 524.323 278.071C524.567 278.543 524.911 278.906 525.354 279.162C525.797 279.418 526.323 279.545 526.931 279.545C527.334 279.545 527.704 279.489 528.039 279.375C528.374 279.261 528.661 279.091 528.9 278.864C529.138 278.636 529.32 278.358 529.445 278.028L532.803 278.25C532.633 279.057 532.283 279.761 531.755 280.364C531.232 280.96 530.556 281.426 529.726 281.761C528.903 282.091 527.951 282.256 526.871 282.256ZM547.102 268.909L542.525 282H538.435L533.858 268.909H537.693L540.412 278.276H540.548L543.258 268.909H547.102ZM554.504 282.256C553.158 282.256 551.998 281.983 551.027 281.438C550.061 280.886 549.317 280.108 548.794 279.102C548.271 278.091 548.01 276.895 548.01 275.514C548.01 274.168 548.271 272.986 548.794 271.969C549.317 270.952 550.052 270.159 551.001 269.591C551.956 269.023 553.075 268.739 554.359 268.739C555.223 268.739 556.027 268.878 556.771 269.156C557.521 269.429 558.175 269.841 558.731 270.392C559.294 270.943 559.731 271.636 560.044 272.472C560.356 273.301 560.513 274.273 560.513 275.386V276.384H549.459V274.134H557.095C557.095 273.611 556.981 273.148 556.754 272.744C556.527 272.341 556.212 272.026 555.808 271.798C555.41 271.565 554.947 271.449 554.419 271.449C553.868 271.449 553.379 271.577 552.953 271.832C552.533 272.082 552.203 272.42 551.964 272.847C551.726 273.267 551.604 273.736 551.598 274.253V276.392C551.598 277.04 551.717 277.599 551.956 278.071C552.2 278.543 552.544 278.906 552.987 279.162C553.43 279.418 553.956 279.545 554.564 279.545C554.967 279.545 555.337 279.489 555.672 279.375C556.007 279.261 556.294 279.091 556.533 278.864C556.771 278.636 556.953 278.358 557.078 278.028L560.436 278.25C560.265 279.057 559.916 279.761 559.388 280.364C558.865 280.96 558.189 281.426 557.359 281.761C556.535 282.091 555.584 282.256 554.504 282.256ZM566.513 264.545V282H562.882V264.545H566.513ZM575.336 282.256C574.012 282.256 572.867 281.974 571.901 281.412C570.941 280.844 570.199 280.054 569.677 279.043C569.154 278.026 568.893 276.847 568.893 275.506C568.893 274.153 569.154 272.972 569.677 271.96C570.199 270.943 570.941 270.153 571.901 269.591C572.867 269.023 574.012 268.739 575.336 268.739C576.66 268.739 577.802 269.023 578.762 269.591C579.728 270.153 580.472 270.943 580.995 271.96C581.518 272.972 581.779 274.153 581.779 275.506C581.779 276.847 581.518 278.026 580.995 279.043C580.472 280.054 579.728 280.844 578.762 281.412C577.802 281.974 576.66 282.256 575.336 282.256ZM575.353 279.443C575.955 279.443 576.458 279.273 576.861 278.932C577.265 278.585 577.569 278.114 577.773 277.517C577.984 276.92 578.089 276.241 578.089 275.48C578.089 274.719 577.984 274.04 577.773 273.443C577.569 272.847 577.265 272.375 576.861 272.028C576.458 271.682 575.955 271.509 575.353 271.509C574.745 271.509 574.234 271.682 573.819 272.028C573.41 272.375 573.1 272.847 572.89 273.443C572.685 274.04 572.583 274.719 572.583 275.48C572.583 276.241 572.685 276.92 572.89 277.517C573.1 278.114 573.41 278.585 573.819 278.932C574.234 279.273 574.745 279.443 575.353 279.443ZM584.14 286.909V268.909H587.719V271.108H587.881C588.04 270.756 588.27 270.398 588.572 270.034C588.878 269.665 589.276 269.358 589.765 269.114C590.259 268.864 590.873 268.739 591.606 268.739C592.56 268.739 593.441 268.989 594.248 269.489C595.055 269.983 595.699 270.73 596.182 271.73C596.665 272.724 596.907 273.972 596.907 275.472C596.907 276.932 596.671 278.165 596.199 279.17C595.734 280.17 595.097 280.929 594.29 281.446C593.489 281.957 592.591 282.213 591.597 282.213C590.893 282.213 590.293 282.097 589.799 281.864C589.31 281.631 588.91 281.338 588.597 280.986C588.285 280.628 588.046 280.267 587.881 279.903H587.77V286.909H584.14ZM587.694 275.455C587.694 276.233 587.802 276.912 588.018 277.491C588.234 278.071 588.546 278.523 588.955 278.847C589.364 279.165 589.861 279.324 590.447 279.324C591.038 279.324 591.538 279.162 591.947 278.838C592.356 278.509 592.665 278.054 592.876 277.474C593.091 276.889 593.199 276.216 593.199 275.455C593.199 274.699 593.094 274.034 592.884 273.46C592.674 272.886 592.364 272.437 591.955 272.114C591.546 271.79 591.043 271.628 590.447 271.628C589.856 271.628 589.356 271.784 588.947 272.097C588.543 272.409 588.234 272.852 588.018 273.426C587.802 274 587.694 274.676 587.694 275.455Z" fill="white"/>
<path d="M694.176 224.76H703.32V227.136H694.176V224.76ZM693.912 238.32H703.536V240.744H693.912V238.32ZM703.824 227.256H712.536V229.92H703.824V227.256ZM693.216 228.672H704.28V231.096H693.216V228.672ZM693.696 234.216H703.824V236.64H693.696V234.216ZM697.488 222.6H700.152V229.608H697.488V222.6ZM697.488 235.008H700.152V245.088H697.488V235.008ZM703.368 234.432L704.856 232.368C707.208 233.736 710.256 235.824 711.648 237.384L710.016 239.736C708.696 238.152 705.744 235.92 703.368 234.432ZM700.8 230.76L703.2 231.336C702.72 232.56 702.24 233.76 701.832 234.624L699.792 234.048C700.152 233.136 700.608 231.72 700.8 230.76ZM694.704 231.36L696.84 230.784C697.32 231.816 697.776 233.16 697.896 234.048L695.64 234.72C695.544 233.856 695.136 232.44 694.704 231.36ZM711.096 227.256H713.856C713.64 233.784 713.592 241.992 714.384 242.28C714.528 242.328 714.624 240.432 714.648 238.584C715.104 239.232 715.848 240.24 716.256 240.576C716.064 244.752 714.84 245.664 713.304 245.016C710.808 244.008 711.072 235.56 711.096 227.256ZM706.68 222.648H709.368V230.04C709.368 234.888 708.744 241.2 703.848 245.184C703.368 244.656 702.312 243.816 701.64 243.408C706.224 239.832 706.68 234.168 706.68 230.016V222.648ZM727.2 223.992H738.936V226.728H727.2V223.992ZM733.296 231.456H736.248V241.824C736.248 243.36 735.936 244.176 734.88 244.632C733.848 245.064 732.336 245.088 730.176 245.088C730.08 244.248 729.696 243 729.312 242.16C730.68 242.232 732.264 242.232 732.696 242.232C733.152 242.208 733.296 242.112 733.296 241.752V231.456ZM726.168 230.64H739.56V233.376H726.168V230.64ZM720.792 233.472L723.312 230.952L723.672 231.096V245.184H720.792V233.472ZM723.504 227.856L726.24 228.888C724.344 232.08 721.392 235.44 718.824 237.552C718.416 236.952 717.432 235.656 716.856 235.08C719.304 233.352 721.92 230.568 723.504 227.856ZM722.592 222.624L725.352 223.752C723.6 226.032 721.008 228.528 718.728 230.112C718.344 229.464 717.6 228.336 717.12 227.76C719.112 226.464 721.416 224.304 722.592 222.624Z" fill="white"/>
<path d="M682.7 282H676.513V264.545H682.751C684.507 264.545 686.018 264.895 687.285 265.594C688.552 266.287 689.527 267.284 690.209 268.585C690.896 269.886 691.24 271.443 691.24 273.256C691.24 275.074 690.896 276.636 690.209 277.943C689.527 279.25 688.547 280.253 687.268 280.952C685.996 281.651 684.473 282 682.7 282ZM680.203 278.838H682.547C683.638 278.838 684.555 278.645 685.3 278.259C686.05 277.866 686.612 277.261 686.987 276.443C687.368 275.619 687.558 274.557 687.558 273.256C687.558 271.966 687.368 270.912 686.987 270.094C686.612 269.276 686.052 268.673 685.308 268.287C684.564 267.901 683.646 267.707 682.555 267.707H680.203V278.838ZM699.871 282.256C698.525 282.256 697.366 281.983 696.394 281.438C695.428 280.886 694.684 280.108 694.161 279.102C693.638 278.091 693.377 276.895 693.377 275.514C693.377 274.168 693.638 272.986 694.161 271.969C694.684 270.952 695.42 270.159 696.368 269.591C697.323 269.023 698.442 268.739 699.726 268.739C700.59 268.739 701.394 268.878 702.138 269.156C702.888 269.429 703.542 269.841 704.099 270.392C704.661 270.943 705.099 271.636 705.411 272.472C705.724 273.301 705.88 274.273 705.88 275.386V276.384H694.826V274.134H702.462C702.462 273.611 702.349 273.148 702.121 272.744C701.894 272.341 701.579 272.026 701.175 271.798C700.778 271.565 700.314 271.449 699.786 271.449C699.235 271.449 698.746 271.577 698.32 271.832C697.9 272.082 697.57 272.42 697.332 272.847C697.093 273.267 696.971 273.736 696.965 274.253V276.392C696.965 277.04 697.084 277.599 697.323 278.071C697.567 278.543 697.911 278.906 698.354 279.162C698.797 279.418 699.323 279.545 699.931 279.545C700.334 279.545 700.704 279.489 701.039 279.375C701.374 279.261 701.661 279.091 701.9 278.864C702.138 278.636 702.32 278.358 702.445 278.028L705.803 278.25C705.633 279.057 705.283 279.761 704.755 280.364C704.232 280.96 703.556 281.426 702.726 281.761C701.903 282.091 700.951 282.256 699.871 282.256ZM711.88 264.545V282H708.249V264.545H711.88ZM714.788 282V268.909H718.419V282H714.788ZM716.612 267.222C716.072 267.222 715.609 267.043 715.223 266.685C714.842 266.321 714.652 265.886 714.652 265.381C714.652 264.881 714.842 264.452 715.223 264.094C715.609 263.73 716.072 263.548 716.612 263.548C717.152 263.548 717.612 263.73 717.993 264.094C718.379 264.452 718.572 264.881 718.572 265.381C718.572 265.886 718.379 266.321 717.993 266.685C717.612 267.043 717.152 267.222 716.612 267.222ZM733.532 268.909L728.955 282H724.864L720.288 268.909H724.123L726.841 278.276H726.978L729.688 268.909H733.532ZM740.934 282.256C739.587 282.256 738.428 281.983 737.457 281.438C736.491 280.886 735.746 280.108 735.224 279.102C734.701 278.091 734.439 276.895 734.439 275.514C734.439 274.168 734.701 272.986 735.224 271.969C735.746 270.952 736.482 270.159 737.431 269.591C738.386 269.023 739.505 268.739 740.789 268.739C741.653 268.739 742.457 268.878 743.201 269.156C743.951 269.429 744.604 269.841 745.161 270.392C745.724 270.943 746.161 271.636 746.474 272.472C746.786 273.301 746.942 274.273 746.942 275.386V276.384H735.888V274.134H743.525C743.525 273.611 743.411 273.148 743.184 272.744C742.957 272.341 742.641 272.026 742.238 271.798C741.84 271.565 741.377 271.449 740.849 271.449C740.297 271.449 739.809 271.577 739.383 271.832C738.962 272.082 738.633 272.42 738.394 272.847C738.155 273.267 738.033 273.736 738.028 274.253V276.392C738.028 277.04 738.147 277.599 738.386 278.071C738.63 278.543 738.974 278.906 739.417 279.162C739.86 279.418 740.386 279.545 740.993 279.545C741.397 279.545 741.766 279.489 742.101 279.375C742.437 279.261 742.724 279.091 742.962 278.864C743.201 278.636 743.383 278.358 743.508 278.028L746.866 278.25C746.695 279.057 746.346 279.761 745.817 280.364C745.295 280.96 744.618 281.426 743.789 281.761C742.965 282.091 742.013 282.256 740.934 282.256ZM749.312 282V268.909H752.832V271.193H752.968C753.207 270.381 753.607 269.767 754.17 269.352C754.732 268.932 755.38 268.722 756.113 268.722C756.295 268.722 756.491 268.733 756.701 268.756C756.911 268.778 757.096 268.81 757.255 268.849V272.071C757.084 272.02 756.849 271.974 756.547 271.935C756.246 271.895 755.971 271.875 755.721 271.875C755.187 271.875 754.709 271.991 754.289 272.224C753.874 272.452 753.545 272.77 753.3 273.179C753.062 273.588 752.942 274.06 752.942 274.594V282H749.312Z" fill="white"/>
<path d="M164.417 54.5786L158.84 56.0729L162.923 60.1554L164.417 54.5786ZM23.3492 196.354L161.589 58.1142L160.881 57.4071L22.6421 195.646L23.3492 196.354Z" fill="#ADB5BD"/>
<path d="M409.417 303L403.84 304.494L407.923 308.577L409.417 303ZM268.349 444.775L406.589 306.536L405.881 305.828L267.642 444.068L268.349 444.775Z" fill="#ADB5BD"/>
<path d="M821.417 303L815.84 304.494L819.923 308.577L821.417 303ZM680.349 444.775L818.589 306.536L817.881 305.828L679.642 444.068L680.349 444.775Z" fill="#ADB5BD"/>
<path d="M579.417 54.5786L573.84 56.0729L577.923 60.1554L579.417 54.5786ZM438.349 196.354L576.589 58.1142L575.881 57.4071L437.642 195.646L438.349 196.354Z" fill="#ADB5BD"/>
<path d="M405.417 196.421L403.923 190.845L399.84 194.927L405.417 196.421ZM263.642 55.3536L401.881 193.593L402.589 192.886L264.349 54.6464L263.642 55.3536Z" fill="#ADB5BD"/>
<path d="M168.417 444.843L166.923 439.266L162.84 443.348L168.417 444.843ZM26.6421 303.775L164.881 442.014L165.589 441.307L27.3492 303.068L26.6421 303.775Z" fill="#ADB5BD"/>
<path d="M580.417 444.843L578.923 439.266L574.84 443.348L580.417 444.843ZM438.642 303.775L576.881 442.014L577.589 441.307L439.349 303.068L438.642 303.775Z" fill="#ADB5BD"/>
<path d="M819.417 196.421L817.923 190.845L813.84 194.927L819.417 196.421ZM677.642 55.3536L815.881 193.593L816.589 192.886L678.349 54.6464L677.642 55.3536Z" fill="#ADB5BD"/>
</svg>
