<svg width="40" height="40" viewBox="0 0 40 40" fill="none" xmlns="http://www.w3.org/2000/svg">
<path fill-rule="evenodd" clip-rule="evenodd" d="M40 20C40 25.1968 38.0179 29.9307 34.7685 33.4869L34.7602 33.4802C34.6402 33.3802 34.5402 33.3502 34.4602 33.3902C34.3802 33.4302 34.2902 33.5102 34.1902 33.6302C33.9902 33.8502 33.8002 34.0102 33.6202 34.1102C33.4402 34.1902 33.2602 34.2302 33.0802 34.2302C32.6402 34.2302 32.2902 34.0302 32.0302 33.6302C31.7902 33.2102 31.5902 32.6802 31.4302 32.0402C31.2702 31.4002 31.0902 30.7102 30.8902 29.9702C30.7102 29.2102 30.4602 28.4902 30.1402 27.8102C29.8202 27.1102 29.3802 26.5202 28.8202 26.0402C28.2802 25.5402 27.5602 25.2302 26.6602 25.1102C27.1002 25.0102 27.6602 24.8602 28.3402 24.6602C29.0202 24.4602 29.7002 24.1702 30.3802 23.7902C31.0802 23.4102 31.6602 22.8902 32.1202 22.2302C32.6002 21.5502 32.8402 20.7002 32.8402 19.6802C32.8402 18.3802 32.5302 17.3302 31.9102 16.5302C31.2902 15.7302 30.4702 15.1502 29.4502 14.7902C28.4502 14.4102 27.3402 14.2202 26.1202 14.2202C25.4002 14.2202 24.4902 14.2402 23.3902 14.2802C22.2902 14.3002 20.9102 14.3102 19.2502 14.3102C18.2102 14.3102 17.3002 14.3002 16.5202 14.2802C15.7602 14.2402 15.3102 14.2202 15.1702 14.2202C14.8902 14.2202 14.7502 14.3702 14.7502 14.6702C14.7502 14.7702 14.7802 14.8702 14.8402 14.9702C14.9202 15.0502 15.0302 15.0902 15.1702 15.0902C15.8702 15.0902 16.3702 15.1702 16.6702 15.3302C16.9902 15.4702 17.1902 15.6702 17.2702 15.9302C17.3702 16.1902 17.4202 16.5002 17.4202 16.8602V33.3002C17.4202 33.7002 17.3802 34.0402 17.3002 34.3202C17.2202 34.5802 17.0202 34.7802 16.7002 34.9202C16.3802 35.0602 15.8502 35.1302 15.1102 35.1302C14.8502 35.1302 14.7202 35.2802 14.7202 35.5802C14.7202 35.8602 14.8502 36.0002 15.1102 36.0002C15.3302 36.0002 15.8102 35.9902 16.5502 35.9702C17.3102 35.9302 18.2102 35.9102 19.2502 35.9102C20.3502 35.9102 21.2902 35.9302 22.0702 35.9702C22.8702 35.9902 23.3702 36.0002 23.5702 36.0002C23.6902 36.0002 23.7802 35.9602 23.8402 35.8802C23.9202 35.7802 23.9602 35.6802 23.9602 35.5802C23.9602 35.2802 23.8302 35.1302 23.5702 35.1302C22.8302 35.1302 22.2802 35.0702 21.9202 34.9502C21.5602 34.8102 21.3202 34.6002 21.2002 34.3202C21.1002 34.0402 21.0502 33.7002 21.0502 33.3002V25.5002H23.7802C24.4202 25.5002 24.9302 25.7002 25.3102 26.1002C25.7102 26.4802 26.0302 26.9902 26.2702 27.6302C26.5102 28.2702 26.7102 28.9702 26.8702 29.7302C27.0502 30.4902 27.2402 31.2502 27.4402 32.0102C27.6402 32.7702 27.8902 33.4702 28.1902 34.1102C28.5102 34.7502 28.9102 35.2702 29.3902 35.6702C29.8902 36.0502 30.5302 36.2402 31.3102 36.2402C31.4424 36.2402 31.5713 36.235 31.6969 36.2247C28.4077 38.6002 24.3673 40 20 40C8.9543 40 0 31.0457 0 20C0 8.9543 8.9543 0 20 0C31.0457 0 40 8.9543 40 20ZM21.0502 24.5102H24.2602C25.7402 24.5102 26.8702 24.1102 27.6502 23.3102C28.4302 22.5102 28.8202 21.3002 28.8202 19.6802C28.8202 18.3402 28.4902 17.2502 27.8302 16.4102C27.1902 15.5702 26.2102 15.1502 24.8902 15.1502H21.0502V24.5102ZM10.1152 12.2305C10.9437 12.2305 11.6152 11.5589 11.6152 10.7305C11.6152 9.90204 10.9437 9.23047 10.1152 9.23047C9.28681 9.23047 8.61523 9.90204 8.61523 10.7305C8.61523 11.5589 9.28681 12.2305 10.1152 12.2305Z" fill="#BB9974"/>
</svg>
