<svg width="184" height="40" viewBox="0 0 184 40" fill="none" xmlns="http://www.w3.org/2000/svg">
<path fill-rule="evenodd" clip-rule="evenodd" d="M40 20C40 26.6501 36.7543 32.5421 31.7607 36.1784L28.5824 30.1355C30.0388 29.6349 31.1424 28.7929 31.8933 27.6096C32.6443 26.4263 33.0197 24.9814 33.0197 23.2747C33.0197 20.9764 32.3257 19.2356 30.9376 18.0523C29.5495 16.8463 27.4332 16.2432 24.5888 16.2432H17.5333C16.981 16.2432 16.5333 16.6909 16.5333 17.2432V39.7006C7.13997 38.0591 0 29.8634 0 20C0 8.9543 8.9543 0 20 0C31.0457 0 40 8.9543 40 20ZM25.3397 30.6816L29.0397 37.8453C26.3247 39.2233 23.2531 40 20 40C19.8453 40 19.691 39.9982 19.5371 39.9947V30.6816H24.9984H25.3397ZM24.6229 27.8486C26.3979 27.8486 27.6949 27.5072 28.5141 26.8246C29.3561 26.1191 29.7771 24.9359 29.7771 23.2747C29.7771 21.7501 29.3561 20.6806 28.5141 20.0662C27.6949 19.429 26.3865 19.1104 24.5888 19.1104H19.5371V27.8486H24.6229ZM10.4 13.3333C11.7255 13.3333 12.8 12.2588 12.8 10.9333C12.8 9.60785 11.7255 8.53333 10.4 8.53333C9.07452 8.53333 8 9.60785 8 10.9333C8 12.2588 9.07452 13.3333 10.4 13.3333Z" fill="#BB9974"/>
<path d="M73.4215 37.5049L67.265 25.585H66.8284H59.8423V37.5049H56V7.11572H66.3044C69.943 7.11572 72.6501 7.8871 74.4257 9.42984C76.2014 10.9435 77.0892 13.1703 77.0892 16.1102C77.0892 18.2934 76.6089 20.1417 75.6483 21.6554C74.6877 23.169 73.2759 24.246 71.413 24.8864L78.0497 37.5049H73.4215ZM66.3481 21.961C68.6186 21.961 70.2778 21.5244 71.3257 20.6511C72.4027 19.7488 72.9412 18.2351 72.9412 16.1102C72.9412 14.16 72.4027 12.7919 71.3257 12.0059C70.2778 11.1909 68.604 10.7834 66.3044 10.7834H59.8423V21.961H66.3481Z" fill="#BB9974"/>
<path d="M100.034 37.5043L99.4223 34.2296C98.2871 35.4813 97.0499 36.4273 95.7109 37.0677C94.4011 37.7081 92.9165 38.0283 91.2573 38.0283C89.1906 38.0283 87.5169 37.4461 86.2361 36.2818C84.9553 35.0883 84.3149 33.5165 84.3149 31.5662C84.3149 29.0338 85.3337 27.1708 87.3713 25.9774C89.4089 24.7839 92.0287 24.1872 95.2307 24.1872C96.395 24.1872 97.6758 24.26 99.073 24.4055V22.8337C99.073 21.2618 98.6364 20.0102 97.7631 19.0787C96.919 18.1181 95.8128 17.6378 94.4447 17.6378C92.8146 17.6378 91.3301 17.8561 89.9911 18.2928C88.6812 18.7294 87.3277 19.4134 85.9305 20.3449V16.6336C87.2986 15.7312 88.6958 15.1054 90.1221 14.7561C91.5484 14.3777 93.1785 14.1885 95.0123 14.1885C97.341 14.1885 99.2331 14.9307 100.689 16.4153C102.173 17.8998 102.915 19.8646 102.915 22.3097V32.4395L103.876 37.5043H100.034ZM92.0433 34.7972C93.4405 34.7972 94.6921 34.5062 95.7983 33.924C96.9044 33.3418 97.996 32.4977 99.073 31.3916V27.1126H95.056C90.6606 27.1126 88.4629 28.5244 88.4629 31.3479C88.4629 32.3958 88.7977 33.2399 89.4672 33.8803C90.1367 34.4916 90.9954 34.7972 92.0433 34.7972Z" fill="#BB9974"/>
<path d="M113.238 9.56001C112.423 9.56001 111.753 9.29803 111.229 8.77408C110.734 8.25013 110.487 7.58063 110.487 6.7656C110.487 5.95056 110.734 5.28107 111.229 4.75712C111.753 4.23317 112.423 3.97119 113.238 3.97119C114.053 3.97119 114.708 4.23317 115.202 4.75712C115.726 5.28107 115.988 5.95056 115.988 6.7656C115.988 7.58063 115.726 8.25013 115.202 8.77408C114.708 9.29803 114.053 9.56001 113.238 9.56001ZM115.159 14.7122V37.5041H111.316V14.7122H115.159Z" fill="#BB9974"/>
<path d="M135.953 14.1885C138.107 14.1885 139.737 14.858 140.843 16.197C141.95 17.5068 142.503 19.3407 142.503 21.6985V37.5043H138.66V22.2224C138.66 20.767 138.355 19.6463 137.743 18.8604C137.132 18.0453 136.201 17.6378 134.949 17.6378C133.523 17.6378 132.315 17.8707 131.325 18.3364C130.364 18.8022 129.287 19.559 128.094 20.6069V37.5043H124.252V19.7773L123.291 14.7124H127.133L127.745 17.8998C129.113 16.5899 130.379 15.6439 131.543 15.0617C132.737 14.4796 134.207 14.1885 135.953 14.1885Z" fill="#BB9974"/>
<path d="M155.41 14.7124V37.5043H151.568V14.7124H155.41Z" fill="#BB9974"/>
<path d="M183.077 27.3746H166.922C167.155 29.6159 167.897 31.4061 169.149 32.7451C170.429 34.055 172.161 34.7099 174.344 34.7099C175.654 34.7099 176.921 34.4479 178.143 33.924C179.395 33.3709 180.661 32.5705 181.942 31.5225H182.116V35.3649C180.836 36.2963 179.569 36.9804 178.318 37.417C177.066 37.8245 175.727 38.0283 174.301 38.0283C171.972 38.0283 169.949 37.5189 168.232 36.5001C166.514 35.4813 165.19 34.0695 164.258 32.2648C163.356 30.431 162.905 28.3352 162.905 25.9774C162.905 23.736 163.312 21.7276 164.127 19.9519C164.971 18.1472 166.165 16.7355 167.708 15.7167C169.25 14.6979 171.055 14.1885 173.122 14.1885C175.218 14.1885 177.008 14.7124 178.492 15.7603C180.006 16.7791 181.141 18.1909 181.898 19.9956C182.684 21.8003 183.077 23.8379 183.077 26.1084V27.3746ZM173.166 17.3759C171.361 17.3759 169.92 18.0308 168.843 19.3407C167.766 20.6505 167.126 22.3388 166.922 24.4055H179.104C178.9 22.2806 178.303 20.5778 177.314 19.297C176.353 18.0162 174.97 17.3759 173.166 17.3759Z" fill="#BB9974"/>
<circle cx="153.75" cy="6.75" r="2.75" fill="#FC9E96"/>
</svg>
