<?xml version="1.0" encoding="utf-8"?>
<!-- Generator: Adobe Illustrator 16.0.0, SVG Export Plug-In . SVG Version: 6.00 Build 0)  -->
<!DOCTYPE svg PUBLIC "-//W3C//DTD SVG 1.1//EN" "http://www.w3.org/Graphics/SVG/1.1/DTD/svg11.dtd">
<svg version="1.1" id="圖層_1" xmlns="http://www.w3.org/2000/svg" xmlns:xlink="http://www.w3.org/1999/xlink" x="0px" y="0px"
	 width="64.653px" height="40px" viewBox="0 0 64.653 40" enable-background="new 0 0 64.653 40" xml:space="preserve">
<g>
	<polygon fill="#FFFFFF" points="44.944,31.872 41.087,25.685 38.979,27.255 	"/>
	<polygon fill="#FFFFFF" points="61.435,7.74 8.135,2.585 49.069,17.741 	"/>
	<path fill="#FFFFFF" d="M41.429,23.387c0.037,0.002,0.082-0.014,0.115-0.007c0.214,0.042,0.457,0.177,0.629,0.433l5.514,8.857
		l0.391-13.155L11.418,5.939l29.923,17.398L41.429,23.387z"/>
	<path fill="#FFFFFF" d="M21.901,37.731l14.805-11.026c0.068-0.125,0.165-0.234,0.297-0.325l2.566-1.891L3.333,3.424L21.901,37.731z
		"/>
	<path fill="#A5E6E6" d="M0.639,0.045C0.675,0.034,0.713,0.03,0.75,0.022C0.711,0.028,0.675,0.034,0.639,0.045z"/>
	<path fill="#A5E6E6" d="M0.348,0.192C0.381,0.169,0.417,0.151,0.453,0.13C0.417,0.151,0.38,0.167,0.348,0.192z"/>
	<path fill="#A5E6E6" d="M63.807,6.058L1.051,0.001C1.042,0,1.033,0.004,1.022,0.003c0.082,0.007,0.165,0.009,0.244,0.04
		l6.869,2.542L61.435,7.74L49.069,17.741l0.267,0.099c0.456,0.177,0.655,0.527,0.667,0.93l-0.011,0.41L64.284,7.752
		c0.348-0.199,0.432-0.629,0.327-1.006C64.503,6.369,64.143,6.167,63.807,6.058z"/>
	<path fill="#A5E6E6" d="M48.631,36.807c-0.209,0.013-0.44-0.051-0.707-0.242C48.056,36.773,48.317,36.847,48.631,36.807z"/>
	<path fill="#A5E6E6" d="M0.453,0.13c0.059-0.033,0.119-0.064,0.186-0.085C0.573,0.068,0.513,0.097,0.453,0.13z"/>
	<path fill="#A5E6E6" d="M0.026,0.695c0.04-0.203,0.158-0.376,0.322-0.503c-0.116,0.082-0.217,0.176-0.28,0.289
		c-0.081,0.208-0.084,0.438-0.037,0.646c-0.005-0.028,0.001-0.056,0-0.085C0.009,0.927,0.006,0.808,0.026,0.695z"/>
	<polygon fill="#A5E6E6" points="41.341,23.338 41.427,23.387 41.429,23.387 	"/>
	<path fill="#A5E6E6" d="M0.75,0.022c0.087-0.017,0.176-0.027,0.272-0.019C0.93-0.004,0.841,0.002,0.75,0.022z"/>
	<path fill="#A5E6E6" d="M48.859,36.768c0,0-0.014,0.003-0.025,0.007C48.84,36.774,48.844,36.773,48.859,36.768z"/>
	<path fill="#A5E6E6" d="M0.065,1.245c-0.009-0.029-0.026-0.061-0.033-0.09C0.042,1.188,0.055,1.214,0.065,1.245z"/>
	<polygon fill="#A5E6E6" points="48.933,17.851 49.069,17.741 8.135,2.585 7.864,2.56 	"/>
	<path fill="#A5E6E6" d="M49.392,36.324c-0.037,0.072-0.09,0.136-0.147,0.195C49.303,36.46,49.352,36.395,49.392,36.324z"/>
	<path fill="#A5E6E6" d="M49.247,19.693c-0.189,0.053-0.377,0.106-0.498,0.039L10.642,5.489l0.776,0.451l36.66,13.575l-0.391,13.155
		l1.701,2.731c0.147,0.259,0.154,0.612,0.016,0.898c0.071-0.132,0.121-0.276,0.116-0.427l0.472-16.692l-0.396,0.314
		C49.53,19.614,49.341,19.667,49.247,19.693z"/>
	<path fill="#A5E6E6" d="M48.833,36.775C48.814,36.781,48.819,36.779,48.833,36.775L48.833,36.775z"/>
	<path fill="#A5E6E6" d="M49.13,36.633c-0.003,0.003-0.008,0.007-0.011,0.009C49.122,36.64,49.126,36.636,49.13,36.633z"/>
	<path fill="#A5E6E6" d="M49.336,17.84l-0.267-0.099l-0.136,0.11L7.864,2.56l0.271,0.026L1.267,0.043
		c-0.08-0.031-0.163-0.033-0.244-0.04C0.926-0.005,0.837,0.005,0.75,0.022C0.713,0.03,0.675,0.034,0.639,0.045
		C0.572,0.066,0.512,0.097,0.453,0.13c-0.036,0.021-0.072,0.04-0.105,0.062c-0.164,0.126-0.282,0.3-0.322,0.503
		C0.006,0.808,0.009,0.927,0.03,1.043c-0.019-0.28,0.077-0.54,0.294-0.737c0.324-0.293,0.822-0.331,1.183-0.128l9.135,5.311
		l38.106,14.243c0.121,0.067,0.309,0.014,0.498-0.039c0.094-0.026,0.283-0.08,0.35-0.199l0.396-0.314l0.011-0.41
		C49.991,18.367,49.792,18.017,49.336,17.84z"/>
	<polygon fill="#A5E6E6" points="41.341,23.338 11.418,5.939 10.778,5.704 	"/>
	<path fill="#A5E6E6" d="M36.596,27.105c0.008-0.151,0.047-0.282,0.11-0.4L21.901,37.731L3.333,3.424l36.237,21.065l0.073-0.054
		L0.411,1.706c-0.164-0.093-0.277-0.263-0.346-0.46c0.02,0.077,0.039,0.152,0.079,0.229l20.646,38.092
		c0.175,0.255,0.322,0.418,0.631,0.433c0.189-0.054,0.309,0.015,0.498-0.037c0.094-0.026,0.188-0.054,0.256-0.174l15.358-11.456
		l-0.631-0.5C36.755,27.671,36.582,27.414,36.596,27.105z"/>
	<path fill="#A5E6E6" d="M0.033,1.155c-0.001-0.01,0-0.019-0.002-0.027C0.032,1.137,0.033,1.146,0.033,1.155z"/>
	<polygon fill="#A5E6E6" points="38.974,27.251 38.979,27.255 41.087,25.685 41.063,25.647 	"/>
	<path fill="#A5E6E6" d="M0.411,1.706l39.231,22.73l1.147-0.845c0.215-0.146,0.44-0.206,0.638-0.204l-0.086-0.049L10.778,5.704
		l0.64,0.236l-0.776-0.451L0.626,1.746C0.308,1.685,0.09,1.374,0.03,1.043c0.002,0.029-0.004,0.057,0,0.085
		c0.001,0.009,0.001,0.018,0.002,0.027c0.006,0.029,0.024,0.061,0.033,0.09C0.134,1.442,0.248,1.613,0.411,1.706z"/>
	<path fill="#A5E6E6" d="M0.626,1.746l10.016,3.743L1.507,0.178C1.146-0.025,0.648,0.013,0.324,0.306
		C0.107,0.503,0.011,0.763,0.03,1.043C0.09,1.374,0.308,1.685,0.626,1.746z"/>
	<path fill="#A5E6E6" d="M49.119,36.642c-0.081,0.056-0.168,0.101-0.26,0.126C48.928,36.749,49.033,36.705,49.119,36.642z"/>
	<path fill="#A5E6E6" d="M36.706,26.705l2.925-2.178l-0.062-0.038l-2.566,1.891C36.871,26.471,36.774,26.58,36.706,26.705z"/>
	<path fill="#A5E6E6" d="M48.859,36.768c-0.079,0.023-0.153,0.03-0.228,0.04C48.709,36.803,48.786,36.79,48.859,36.768z"/>
	<path fill="#A5E6E6" d="M41.092,25.681l-0.005,0.003l3.857,6.188l-5.965-4.617l-1.446,1.078l10.346,8.202
		c0.016,0.013,0.03,0.017,0.046,0.03c-0.026-0.042-0.06-0.073-0.072-0.124L41.092,25.681z"/>
	<path fill="#A5E6E6" d="M49.209,36.568c0.015-0.013,0.022-0.033,0.035-0.049c-0.037,0.039-0.071,0.083-0.114,0.113
		C49.157,36.613,49.192,36.598,49.209,36.568z"/>
	<path fill="#A5E6E6" d="M41.544,23.379c-0.034-0.006-0.078,0.01-0.115,0.007l0.312,0.182c0.081,0.034,0.151,0.079,0.212,0.137
		c0.021,0.017,0.038,0.042,0.056,0.062c0.064,0.075,0.115,0.158,0.149,0.249l5.522,8.919l0.007-0.265l-5.514-8.857
		C42,23.557,41.758,23.422,41.544,23.379z"/>
	<path fill="#A5E6E6" d="M49.404,36.299c-0.003,0.009-0.008,0.017-0.013,0.025C49.396,36.315,49.401,36.308,49.404,36.299z"/>
	<path fill="#A5E6E6" d="M49.389,35.401l-1.701-2.731l-0.007,0.265l-5.522-8.919c0.036,0.098,0.06,0.196,0.054,0.295
		c-0.015,0.309-0.124,0.643-0.38,0.818l-0.739,0.553l6.76,10.76c0.013,0.051,0.046,0.083,0.072,0.124
		c0.266,0.191,0.498,0.255,0.707,0.242c0.075-0.01,0.149-0.016,0.228-0.04c0.092-0.025,0.18-0.07,0.26-0.126
		c0.003-0.001,0.007-0.005,0.011-0.009c0.043-0.031,0.077-0.074,0.114-0.113c0.058-0.06,0.11-0.124,0.147-0.195
		c0.004-0.009,0.01-0.016,0.013-0.025C49.542,36.013,49.536,35.66,49.389,35.401z"/>
	<path fill="#A5E6E6" d="M41.74,23.568l-0.312-0.182c0,0,0,0-0.001,0l0.264,0.154C41.709,23.547,41.723,23.561,41.74,23.568z"/>
	<path fill="#A5E6E6" d="M41.953,23.705c0.021,0.019,0.038,0.041,0.056,0.062C41.991,23.747,41.974,23.722,41.953,23.705z"/>
	<path fill="#A5E6E6" d="M42.105,23.934l0.052,0.082c-0.034-0.09-0.085-0.174-0.149-0.249
		C42.047,23.812,42.084,23.857,42.105,23.934z"/>
	<path fill="#A5E6E6" d="M38.974,27.251l2.089-1.604l0.023,0.037l0.005-0.003l-0.402-0.64l-1.047-0.606l-0.073,0.054l0.062,0.038
		l-2.925,2.178c-0.063,0.118-0.102,0.25-0.11,0.4c-0.014,0.309,0.159,0.565,0.306,0.728l0.631,0.5l1.446-1.078L38.974,27.251z"/>
	<path fill="#A5E6E6" d="M41.953,23.705c-0.062-0.058-0.131-0.103-0.212-0.137l0.071,0.042
		C41.862,23.637,41.908,23.669,41.953,23.705z"/>
	<path fill="#A5E6E6" d="M42.009,23.767c-0.018-0.021-0.035-0.042-0.056-0.062c-0.044-0.036-0.09-0.068-0.141-0.095l-0.071-0.042
		c-0.018-0.007-0.031-0.021-0.049-0.028l-0.264-0.154c-0.197-0.002-0.422,0.059-0.638,0.204l-1.147,0.845l1.047,0.606l0.402,0.64
		l0.739-0.553c0.256-0.175,0.365-0.509,0.38-0.818c0.006-0.099-0.018-0.197-0.054-0.295l-0.052-0.082
		C42.084,23.857,42.047,23.812,42.009,23.767z"/>
</g>
<g>
</g>
<g>
</g>
<g>
</g>
<g>
</g>
<g>
</g>
<g>
</g>
<g>
</g>
<g>
</g>
<g>
</g>
<g>
</g>
<g>
</g>
<g>
</g>
<g>
</g>
<g>
</g>
<g>
</g>
</svg>
