<?xml version="1.0" encoding="utf-8"?>
<!-- Generator: Adobe Illustrator 16.0.0, SVG Export Plug-In . SVG Version: 6.00 Build 0)  -->
<!DOCTYPE svg PUBLIC "-//W3C//DTD SVG 1.1//EN" "http://www.w3.org/Graphics/SVG/1.1/DTD/svg11.dtd">
<svg version="1.1" id="圖層_1" xmlns="http://www.w3.org/2000/svg" xmlns:xlink="http://www.w3.org/1999/xlink" x="0px" y="0px"
	 width="300px" height="300px" viewBox="0 0 300 300" enable-background="new 0 0 300 300" xml:space="preserve">
<circle fill="none" stroke="#BB9974" stroke-miterlimit="10" stroke-dasharray="5" cx="150.051" cy="132.5" r="90.5"/>
<path fill="#FFFFFF" stroke="#A5E6E6" stroke-width="2.378" stroke-miterlimit="10" d="M55.511,161.183
	c15.402,0,28.586,9.333,34.061,22.565c4.356-4.044,10.174-6.536,16.586-6.536c3.286,0,6.414,0.659,9.276,1.835
	c3.941-22.297,23.399-39.236,46.828-39.236c14.938,0,28.262,6.892,36.982,17.663c6.011-4.213,13.356-6.699,21.295-6.699
	c19.444,0,35.354,14.868,36.672,33.69c13.363,0.141,24.156,11.006,24.156,24.402c0,13.484-10.932,24.417-24.416,24.417
	c-4.908,0-9.465-1.461-13.293-3.954c-7.189,12.659-20.925,21.221-36.699,21.221c-13.887,0-26.197-6.637-33.849-16.861
	c-3.487,0.814-7.115,1.258-10.848,1.258c-3.699,0-7.296-0.436-10.754-1.235c-3.884,4.461-9.592,7.293-15.973,7.293
	c-7.402,0-13.91-3.8-17.702-9.551c-5.402,7.51-14.208,12.405-24.165,12.405c-10.151,0-19.109-5.086-24.48-12.847
	c-4.23,1.671-8.844,2.599-13.677,2.599c-20.31,0-36.772-16.213-36.772-36.215C18.738,177.397,35.201,161.183,55.511,161.183z"/>
<g>
	<path fill="#FFFBEE" d="M208,122.432c0-6.313-5.118-11.432-11.432-11.432H91.432C85.118,111,80,116.118,80,122.432v66.137
		C80,194.882,85.118,200,91.432,200h105.137c6.313,0,11.432-5.118,11.432-11.432V122.432z"/>
	<path fill="none" stroke="#A5E6E6" stroke-linecap="round" stroke-miterlimit="10" d="M208.5,122.932
		c0-6.313-5.118-11.432-11.432-11.432H91.932c-6.313,0-11.432,5.118-11.432,11.432v66.137c0,6.313,5.118,11.432,11.432,11.432
		h105.137c6.313,0,11.432-5.118,11.432-11.432V122.932z"/>
</g>
<rect x="97.667" y="126.595" fill="none" stroke="#FFE1E4" stroke-miterlimit="10" width="0.333" height="0"/>
<rect x="90" y="122" fill="#A5E6E6" stroke="#FFFFFF" stroke-width="2" stroke-miterlimit="10" width="108" height="69"/>
<polygon opacity="0.2" fill="#FFFFFF" points="90,190.33 90,122 159.361,122 "/>
<path fill="#FFFBEE" stroke="#A5E6E6" stroke-linecap="round" stroke-miterlimit="10" d="M222.153,203.416
	c-7.859,4.573-13.635,5.084-13.635,5.084H78.958c0,0-8.475-1.512-13.389-4.703c-5.501-3.572-7.069-6.608-7.069-6.608V192.5h171
	v4.688C229.5,197.188,226.298,201.005,222.153,203.416z"/>
<rect x="131" y="192" fill="#A5E6E6" width="28" height="5"/>
<path fill="#9EA09A" d="M228.346,165.768c-1.84,0.01-3.631,0.307-5.368,0.92c-0.067,0.027-0.134,0.057-0.199,0.089
	c-0.041,0.02-0.083,0.037-0.123,0.059c-0.198,0.081-0.397,0.161-0.589,0.257c-1.24,0.629-2.332,1.436-3.123,2.604
	c-0.047,0.127-0.126,0.236-0.193,0.351c-0.029,0.054-0.055,0.109-0.077,0.166c-0.598,1.461-0.679,2.974-0.504,4.526
	c0.261,2.315,0.935,4.494,2.095,6.512c0.919,1.601,2.066,3.043,3.224,4.477c0.615,0.762,1.287,1.475,1.891,2.245
	c0.267,0.251,0.48,0.549,0.727,0.817c1.707,1.864,3.283,3.832,4.61,5.987c0.758,1.229,1.52,2.457,2.062,3.803
	c0.176,0.437,0.379,0.868,0.384,1.352c0.005,0.42-0.109,0.502-0.492,0.337c-0.531-0.23-1.021-0.538-1.509-0.848
	c-0.099-0.059-0.185-0.135-0.282-0.193c-2.211-1.429-4.41-2.875-6.729-4.127c-1.935-1.045-3.928-1.947-6.046-2.546
	c-1.764-0.498-3.559-0.565-5.382-0.396c-2.257,0.209-4.445,0.697-6.581,1.436c-2.136,0.739-4.155,1.729-6.088,2.899
	c-0.409,0.267-0.819,0.532-1.27,0.728c-1.439,0.706-2.885,0.89-4.283-0.065c-0.656-0.448-1.16-1.068-1.613-1.725
	c-1.024-1.482-1.819-3.094-2.669-4.675c-0.642-1.195-1.299-2.382-2.187-3.414c-0.338-0.394-1.763-1.624-2.084-1.859
	c-1.586-1.16-3.326-2.059-5.074-2.944c-1.277-0.648-2.469-1.421-3.506-2.425c-0.875-0.847-1.83-1.6-2.911-2.17
	c-0.42-0.222-0.851-0.51-1.366-0.237c-0.191,0.128-0.32,0.312-0.442,0.501c-0.076,0.117-0.111,0.247-0.123,0.386
	c-0.004,0.116-0.042,0.226-0.067,0.337c-0.037,0.362-0.125,0.719-0.124,1.087c0.004,1.718-0.047,3.438,0.173,5.147
	c0.04,0.315-0.007,0.604-0.281,0.82c-0.695,0.55-1.295,1.201-1.9,1.841c-0.857,0.905-1.688,1.831-2.172,3.019
	c-0.605,1.489-1.004,3.031-1.29,4.606c-0.072,0.396-0.185,0.749-0.453,1.071c-0.34,0.409-0.603,0.879-0.798,1.378
	c-0.345,0.885-0.32,1.756,0.129,2.602c0.347,0.651,0.812,1.203,1.371,1.689c0.828,0.723,1.801,1.187,2.786,1.63
	c1.084,0.487,2.199,0.895,3.32,1.285c0.319,0.11,0.417,0.273,0.403,0.601c-0.017,0.361-0.239,0.539-0.489,0.72
	c-1.227,0.889-2.262,1.942-2.849,3.37c-0.542,1.316-0.721,2.695-0.691,4.11c0.012,0.603-0.033,0.641-0.623,0.71
	c-0.075,0.01-0.151,0.014-0.228,0.017c-1.784,0.059-3.547,0.298-5.286,0.686c-1.009,0.226-2.003,0.515-2.824,1.213
	c-1.601,1.361-1.341,3.284,0.045,4.346c0.701,0,1.4,0,2.102,0c0.713-0.105,1.431-0.019,2.146-0.048
	c0.055,0.002,0.109-0.005,0.163-0.021c1.146-0.048,2.292-0.02,3.439-0.015c0.052,0.012,0.103,0.021,0.156,0.025
	c0.025-0.006,0.05-0.012,0.075-0.018c0.569-0.029,1.139-0.022,1.707-0.004c0.049,0.014,0.098,0.023,0.146,0.03
	c0.128,0.004,0.257,0.007,0.381-0.032c1.048-0.014,2.095-0.025,3.143,0.006c0.101,0.035,0.205,0.026,0.308,0.027
	c0.052,0.002,0.101-0.006,0.149-0.022c0.635-0.023,1.27-0.057,1.903,0.015c0.104,0.012,0.207,0.015,0.308-0.019
	c1.2-0.04,2.401-0.005,3.603-0.021c0.624,0.018,1.248-0.022,1.871,0.022c0.053,0.018,0.106,0.026,0.161,0.024
	c0.582,0.002,1.163,0,1.744,0.001c0.684,0,1.367,0,2.051,0c0.474-0.002,0.948,0.003,1.422-0.003c0.242-0.074,0.495-0.017,0.74-0.062
	c1.219-0.048,2.438-0.071,3.657,0.014c4.521,0.015,9.043,0.002,13.564,0.006c8.33,0,30.321,0.653,32.065-0.398
	c0.218-0.061,0.297-0.249,0.387-0.423c0.243-0.474,0.489-0.945,0.715-1.428c1.669-3.562,2.81-7.244,2.676-11.241
	c-0.054-1.6-0.326-3.132-0.969-4.604c-1.198-2.745-2.525-5.428-3.91-8.082c-0.068-0.12-0.134-0.24-0.192-0.365
	c-0.581-1.219-1.249-2.392-1.855-3.598c-0.265-0.526-0.56-1.04-0.888-1.534c-0.691-1.037-1.472-2.004-2.285-2.944
	c-0.293-0.338-2.47-2.65-2.713-2.913c-1.286-1.29-2.584-2.569-3.861-3.868c-0.617-0.628-1.179-1.307-1.709-2.01
	c-0.924-1.225-1.18-2.608-0.984-4.094c0.143-1.094,0.859-1.81,1.684-2.444c0.078-0.067,0.154-0.137,0.243-0.19
	c0.123-0.07,0.249-0.136,0.367-0.215c0.106-0.071,0.224-0.122,0.339-0.177c1.766-0.973,3.624-1.562,5.674-1.408
	c1.358,0.102,2.512,0.579,3.339,1.704c0.625,0.85,1.112,1.779,1.528,2.746c0.451,1.048,0.856,2.116,1.499,3.071
	c0.332,0.494,0.808,0.779,1.367,0.926c0.963,0.251,1.703-0.536,1.676-1.301c-0.022-0.616-0.227-1.158-0.429-1.714
	c-0.596-1.636-1.312-3.211-2.328-4.636c-0.112-0.133-0.209-0.276-0.319-0.41c-0.208-0.316-0.496-0.561-0.752-0.833
	c-0.289-0.272-0.552-0.571-0.855-0.827c-0.312-0.213-0.583-0.483-0.933-0.642c-0.055-0.03-0.108-0.06-0.164-0.087
	c-0.073-0.038-0.146-0.077-0.219-0.115c-0.136-0.066-0.269-0.141-0.399-0.216c-0.892-0.436-1.823-0.709-2.827-0.696L228.346,165.768
	z"/>
<polygon fill="#FFFFFF" points="137,148.068 150.797,156.035 137,164 "/>
<g>
	<g>
		<g>
			<path fill="#A5E6E6" d="M130.095,92.244c-0.42,0.333-1.046,0.243-1.402-0.207c-6.747-8.455-5.804-20.468,2.103-26.778
				c0.42-0.336,1.047-0.241,1.403,0.207c0.356,0.446,0.308,1.078-0.11,1.409c-7.074,5.647-7.917,16.393-1.884,23.957
				C130.562,91.277,130.513,91.911,130.095,92.244z"/>
		</g>
		<g>
			<path fill="#A5E6E6" d="M133.68,89.381c-0.417,0.334-1.045,0.242-1.402-0.202c-5.058-6.343-4.351-15.354,1.579-20.085
				c0.42-0.333,1.045-0.243,1.402,0.203c0.356,0.449,0.309,1.081-0.109,1.415c-5.097,4.067-5.706,11.808-1.357,17.257
				C134.149,88.415,134.1,89.05,133.68,89.381z"/>
		</g>
		<g>
			<path fill="#A5E6E6" d="M136.996,86.737c-0.419,0.336-1.043,0.242-1.402-0.205c-3.5-4.388-3.014-10.621,1.092-13.895
				c0.419-0.333,1.045-0.242,1.403,0.205c0.354,0.45,0.307,1.081-0.113,1.415c-3.267,2.609-3.659,7.57-0.867,11.067
				C137.461,85.773,137.414,86.403,136.996,86.737z"/>
		</g>
	</g>
	<g>
		<g>
			<path fill="#A5E6E6" d="M160.705,91.279c0.439,0.306,1.06,0.175,1.388-0.295c6.201-8.864,4.5-20.795-3.788-26.592
				c-0.439-0.309-1.061-0.178-1.387,0.293c-0.329,0.47-0.239,1.095,0.198,1.402c7.418,5.189,8.935,15.859,3.39,23.788
				C160.177,90.342,160.266,90.972,160.705,91.279z"/>
		</g>
		<g>
			<path fill="#A5E6E6" d="M156.945,88.647c0.438,0.305,1.06,0.175,1.387-0.291c4.651-6.649,3.376-15.598-2.842-19.946
				c-0.437-0.306-1.059-0.175-1.386,0.291c-0.326,0.471-0.239,1.099,0.199,1.404c5.341,3.737,6.438,11.427,2.442,17.14
				C156.417,87.711,156.508,88.342,156.945,88.647z"/>
		</g>
		<g>
			<path fill="#A5E6E6" d="M153.472,86.218c0.438,0.307,1.057,0.175,1.385-0.293c3.219-4.601,2.338-10.79-1.964-13.799
				c-0.439-0.307-1.061-0.175-1.389,0.293c-0.326,0.472-0.237,1.096,0.202,1.403c3.425,2.399,4.128,7.327,1.564,10.992
				C152.943,85.284,153.032,85.91,153.472,86.218z"/>
		</g>
	</g>
	<path fill="#A5E6E6" d="M148.257,80.266c0.057,1.783-1.338,3.275-3.124,3.329c-1.784,0.058-3.276-1.341-3.33-3.125
		c-0.06-1.783,1.342-3.274,3.123-3.329C146.714,77.083,148.201,78.481,148.257,80.266z"/>
	
		<rect x="144.581" y="79.66" transform="matrix(0.9995 -0.0311 0.0311 0.9995 -2.8586 4.5746)" fill="#A5E6E6" width="2.072" height="29.027"/>
</g>
<path fill="#FFFFFF" stroke="#A5E6E6" stroke-width="2" stroke-miterlimit="10" d="M51.073,100h35.054
	c1.586,0,1.873,0.763,1.873,2.35v21.262c0,1.586-0.287,3.388-1.873,3.388h-5.112c-0.547,3,2.239,6.609,2.239,6.609
	c-4.299,0-6.041-4.609-6.633-6.609H51.073c-1.587,0-3.073-1.801-3.073-3.388V102.35C48,100.763,49.486,100,51.073,100z"/>
<g>
	<path fill="#A5E6E6" d="M52.456,114.215v-1.7l8.383-3.235v1.977l-3.432,1.177l-2.5,0.882v0.082l2.5,0.882l3.432,1.177v1.994
		L52.456,114.215z"/>
	<path fill="#A5E6E6" d="M69.447,106.355h1.602l-4.053,16.129h-1.602L69.447,106.355z"/>
	<path fill="#A5E6E6" d="M75.833,115.458l3.448-1.177l2.5-0.882v-0.082l-2.5-0.882l-3.448-1.177v-1.977l8.383,3.235v1.7
		l-8.383,3.236V115.458z"/>
</g>
</svg>
