<?xml version="1.0" encoding="utf-8"?>
<!-- Generator: Adobe Illustrator 16.0.0, SVG Export Plug-In . SVG Version: 6.00 Build 0)  -->
<!DOCTYPE svg PUBLIC "-//W3C//DTD SVG 1.1//EN" "http://www.w3.org/Graphics/SVG/1.1/DTD/svg11.dtd">
<svg version="1.1" id="圖層_1" xmlns="http://www.w3.org/2000/svg" xmlns:xlink="http://www.w3.org/1999/xlink" x="0px" y="0px"
	 width="40px" height="40px" viewBox="0.5 640.5 40 40" enable-background="new 0.5 640.5 40 40" xml:space="preserve">
<path fill="#BB9974" d="M20.5,640.5c-11.027,0-20,8.973-20,20s8.973,20,20,20s20-8.973,20-20S31.527,640.5,20.5,640.5z
	 M20.5,678.833c-10.109,0-18.333-8.224-18.333-18.333s8.224-18.333,18.333-18.333c10.109,0,18.333,8.224,18.333,18.333
	S30.609,678.833,20.5,678.833z"/>
<g>
	<path fill="#BB9974" d="M30.461,665.423c-0.256,0-0.512-0.098-0.707-0.293l-9.254-9.255l-9.254,9.255
		c-0.391,0.391-1.023,0.391-1.414,0s-0.391-1.023,0-1.414l9.961-9.962c0.375-0.375,1.039-0.375,1.414,0l9.961,9.962
		c0.391,0.391,0.391,1.023,0,1.414C30.973,665.325,30.717,665.423,30.461,665.423z"/>
</g>
</svg>
